<svg xmlns="http://www.w3.org/2000/svg" width="287.244" height="293.898" viewBox="0 0 287.244 293.898">
  <g id="Group_553" data-name="Group 553" transform="translate(0)">
    <g id="Group_551" data-name="Group 551" transform="translate(0 0.01)">
      <path id="Path_1469" data-name="Path 1469" d="M1490.791,642.786c0-.483.581-.871,1.307-.871h0c.721,0,1.307.388,1.307.871h0c0,.48-.586.871-1.307.871h0C1491.372,643.657,1490.791,643.267,1490.791,642.786Zm-8.5,0c0-.483.586-.871,1.307-.871h0c.721,0,1.307.388,1.307.871h0c0,.48-.586.871-1.307.871h0C1482.878,643.657,1482.292,643.267,1482.292,642.786Zm-8.5,0c0-.483.586-.871,1.307-.871h0c.721,0,1.307.388,1.307.871h0c0,.48-.587.871-1.307.871h0C1474.381,643.657,1473.8,643.267,1473.8,642.786Zm-8.5,0c0-.483.587-.871,1.307-.871h0c.725,0,1.307.388,1.307.871h0c0,.48-.581.871-1.307.871h0C1465.883,643.657,1465.3,643.267,1465.3,642.786Zm-8.5,0c0-.483.586-.871,1.311-.871h0c.722,0,1.3.388,1.3.871h0c0,.48-.581.871-1.3.871h0C1457.386,643.657,1456.8,643.267,1456.8,642.786Zm-8.494,0c0-.483.581-.871,1.307-.871h0c.721,0,1.307.388,1.307.871h0c0,.48-.586.871-1.307.871h0C1448.888,643.657,1448.306,643.267,1448.306,642.786Zm-8.5,0c0-.483.587-.871,1.307-.871h0c.721,0,1.307.388,1.307.871h0c0,.48-.586.871-1.307.871h0C1440.395,643.657,1439.808,643.267,1439.808,642.786Zm-8.5,0c0-.483.586-.871,1.307-.871h0c.72,0,1.307.388,1.307.871h0c0,.48-.586.871-1.307.871h0C1431.9,643.657,1431.311,643.267,1431.311,642.786Zm-8.5,0c0-.483.586-.871,1.307-.871h0c.726,0,1.307.388,1.307.871h0c0,.48-.581.871-1.307.871h0C1423.4,643.657,1422.813,643.267,1422.813,642.786Zm-8.493,0c0-.483.581-.871,1.307-.871h0c.721,0,1.307.388,1.307.871h0c0,.48-.587.871-1.307.871h0C1414.9,643.657,1414.32,643.267,1414.32,642.786Zm-8.5,0c0-.483.587-.871,1.308-.871h0c.721,0,1.307.388,1.307.871h0c0,.48-.586.871-1.307.871h0C1406.409,643.657,1405.822,643.267,1405.822,642.786Zm-8.5,0c0-.483.586-.871,1.307-.871h0c.721,0,1.307.388,1.307.871h0c0,.48-.587.871-1.307.871h0C1397.91,643.657,1397.324,643.267,1397.324,642.786Zm-8.5,0c0-.483.587-.871,1.307-.871h0c.726,0,1.307.388,1.307.871h0c0,.48-.581.871-1.307.871h0C1389.413,643.657,1388.827,643.267,1388.827,642.786Zm-8.493,0c0-.483.581-.871,1.307-.871h0c.721,0,1.3.388,1.3.871h0c0,.48-.582.871-1.3.871h0C1380.915,643.657,1380.333,643.267,1380.333,642.786Zm-8.5,0c0-.483.586-.871,1.307-.871h0c.721,0,1.307.388,1.307.871h0c0,.48-.586.871-1.307.871h0C1372.422,643.657,1371.836,643.267,1371.836,642.786Zm-8.5,0c0-.483.587-.871,1.307-.871h0c.721,0,1.307.388,1.307.871h0c0,.48-.585.871-1.307.871h0C1363.925,643.657,1363.338,643.267,1363.338,642.786Zm-8.5,0c0-.483.586-.871,1.307-.871h0c.721,0,1.307.388,1.307.871h0c0,.48-.586.871-1.307.871h0C1355.426,643.657,1354.84,643.267,1354.84,642.786Zm-8.5,0c0-.483.586-.871,1.307-.871h0c.725,0,1.307.388,1.307.871h0c0,.48-.581.871-1.307.871h0C1346.928,643.657,1346.342,643.267,1346.342,642.786Zm-8.493,0c0-.483.586-.871,1.307-.871h0c.721,0,1.307.388,1.307.871h0c0,.48-.586.871-1.307.871h0C1338.435,643.657,1337.849,643.267,1337.849,642.786Zm-8.5,0c0-.483.586-.871,1.307-.871h0c.721,0,1.307.388,1.307.871h0c0,.48-.586.871-1.307.871h0C1329.938,643.657,1329.352,643.267,1329.352,642.786Zm-8.5,0c0-.483.586-.871,1.307-.871h0c.721,0,1.307.388,1.307.871h0c0,.48-.587.871-1.307.871h0C1321.44,643.657,1320.854,643.267,1320.854,642.786Zm-8.5,0c0-.483.586-.871,1.307-.871h0c.721,0,1.307.388,1.307.871h0c0,.48-.586.871-1.307.871h0C1312.943,643.657,1312.356,643.267,1312.356,642.786Zm-8.493,0c0-.483.581-.871,1.307-.871h0c.721,0,1.307.388,1.307.871h0c0,.48-.586.871-1.307.871h0C1304.445,643.657,1303.863,643.267,1303.863,642.786Zm-7.344.459h0c-.711-.068-1.209-.511-1.1-.985h0c.1-.477.763-.806,1.479-.737h0c.717.068,1.209.508,1.107.985h0a1.254,1.254,0,0,1-1.293.747h0A1.855,1.855,0,0,1,1296.519,643.245Zm-8.474-1.24h-.005c-.688-.136-1.084-.623-.879-1.081h0a1.494,1.494,0,0,1,1.628-.589h0c.688.136,1.083.623.879,1.084h0a1.352,1.352,0,0,1-1.251.623h0A1.86,1.86,0,0,1,1288.045,642.005Zm-8.121-2.048c-.656-.2-.939-.719-.637-1.156h0a1.637,1.637,0,0,1,1.735-.424h0c.656.2.94.722.637,1.159h0a1.462,1.462,0,0,1-1.186.5h0A1.837,1.837,0,0,1,1279.923,639.957Zm-7.591-2.808c-.6-.263-.772-.8-.377-1.205h0a1.742,1.742,0,0,1,1.81-.251h0c.6.263.777.8.377,1.205h0a1.556,1.556,0,0,1-1.093.393h0A1.817,1.817,0,0,1,1272.333,637.15Zm-6.9-3.5a.687.687,0,0,1-.116-1.227h0a1.792,1.792,0,0,1,1.846-.078h0a.692.692,0,0,1,.116,1.23h0a1.688,1.688,0,0,1-.981.294h0A1.729,1.729,0,0,1,1265.435,633.645Zm-6.079-4.121a.7.7,0,0,1,.149-1.23h0a1.8,1.8,0,0,1,1.842.1v0a.689.689,0,0,1-.149,1.227h0a1.718,1.718,0,0,1-.846.208h0A1.658,1.658,0,0,1,1259.355,629.524Zm-5.13-4.66c-.381-.409-.2-.945.414-1.2h0a1.728,1.728,0,0,1,1.8.276h0c.386.406.2.945-.409,1.2h0a1.776,1.776,0,0,1-.693.133h0A1.555,1.555,0,0,1,1254.225,624.864Zm-4.07-5.1h0c-.293-.44.009-.954.67-1.15h0a1.612,1.612,0,0,1,1.721.446v0c.293.44,0,.954-.665,1.149h0a1.926,1.926,0,0,1-.53.074h0A1.451,1.451,0,0,1,1250.156,619.763Zm-2.921-5.444c-.2-.462.214-.942.912-1.072h0a1.474,1.474,0,0,1,1.609.607h0c.191.462-.214.942-.911,1.072h0a1.9,1.9,0,0,1-.349.031h0A1.333,1.333,0,0,1,1247.235,614.319Zm-1.707-5.668c-.089-.477.419-.914,1.135-.973h0c.716-.059,1.372.279,1.46.756h0c.088.477-.418.914-1.135.973h0c-.051,0-.107.006-.163.006h0C1246.174,609.414,1245.611,609.091,1245.527,608.651Zm-.47-5.754c0-.48.586-.871,1.307-.871h0c.721,0,1.307.39,1.307.871h0c0,.481-.586.871-1.307.871h0C1245.644,603.768,1245.058,603.378,1245.058,602.9Zm0-5.661c0-.48.586-.871,1.307-.871h0c.721,0,1.307.391,1.307.871h0c0,.48-.586.871-1.307.871h0C1245.644,598.107,1245.058,597.716,1245.058,597.236Zm0-5.661c0-.48.586-.87,1.307-.87h0c.721,0,1.307.391,1.307.87h0c0,.484-.586.871-1.307.871h0C1245.644,592.445,1245.058,592.058,1245.058,591.574Zm0-5.658c0-.483.586-.871,1.307-.871h0c.721,0,1.307.387,1.307.871h0c0,.48-.586.871-1.307.871h0C1245.644,586.788,1245.058,586.4,1245.058,585.917Zm0-5.661c0-.48.586-.871,1.307-.871h0c.721,0,1.307.391,1.307.871h0c0,.48-.586.871-1.307.871h0C1245.644,581.126,1245.058,580.736,1245.058,580.255Zm0-5.661c0-.48.586-.87,1.307-.87h0c.721,0,1.307.391,1.307.87h0c0,.48-.586.871-1.307.871h0C1245.644,575.465,1245.058,575.074,1245.058,574.594Zm0-5.661c0-.48.586-.871,1.307-.871h0c.721,0,1.307.391,1.307.871h0c0,.48-.586.871-1.307.871h0C1245.644,569.8,1245.058,569.413,1245.058,568.933Zm0-5.658c0-.483.586-.874,1.307-.874h0c.721,0,1.307.39,1.307.874h0c0,.48-.586.868-1.307.868h0C1245.644,564.142,1245.058,563.755,1245.058,563.275Zm0-5.661c0-.48.586-.871,1.307-.871h0c.721,0,1.307.391,1.307.871h0c0,.48-.586.871-1.307.871h0C1245.644,558.484,1245.058,558.094,1245.058,557.613Zm0-5.661c0-.481.586-.871,1.307-.871h0c.721,0,1.307.391,1.307.871h0c0,.48-.586.87-1.307.87h0C1245.644,552.823,1245.058,552.432,1245.058,551.952Zm0-5.661c0-.48.586-.871,1.307-.871h0c.721,0,1.307.39,1.307.871h0c0,.48-.586.871-1.307.871h0C1245.644,547.162,1245.058,546.771,1245.058,546.291Zm0-5.661c0-.481.586-.868,1.307-.868h0c.721,0,1.307.387,1.307.868h0c0,.483-.586.871-1.307.871h0C1245.644,541.5,1245.058,541.113,1245.058,540.63Zm0-5.659c0-.483.586-.87,1.307-.87h0c.721,0,1.307.387,1.307.87h0c0,.481-.586.871-1.307.871h0C1245.644,535.842,1245.058,535.452,1245.058,534.971Zm0-5.661c0-.48.586-.871,1.307-.871h0c.721,0,1.307.391,1.307.871h0c0,.48-.586.871-1.307.871h0C1245.644,530.181,1245.058,529.79,1245.058,529.31Zm0-5.661c0-.48.586-.871,1.307-.871h0c.721,0,1.307.391,1.307.871h0c0,.481-.586.871-1.307.871h0C1245.644,524.52,1245.058,524.129,1245.058,523.649Zm0-5.661c0-.48.586-.871,1.307-.871h0c.721,0,1.307.39,1.307.871h0c0,.483-.586.87-1.307.87h0C1245.644,518.858,1245.058,518.471,1245.058,517.988Zm0-5.658c0-.484.586-.871,1.307-.871h0c.721,0,1.307.387,1.307.871h0c0,.48-.586.871-1.307.871h0C1245.644,513.2,1245.058,512.81,1245.058,512.33Zm0-5.661c0-.48.586-.871,1.307-.871h0c.721,0,1.307.39,1.307.871h0c0,.48-.586.871-1.307.871h0C1245.644,507.539,1245.058,507.148,1245.058,506.668Zm0-5.661c0-.48.586-.871,1.307-.871h0c.721,0,1.307.391,1.307.871h0c0,.48-.586.871-1.307.871h0C1245.644,501.878,1245.058,501.487,1245.058,501.007Zm0-5.661c0-.48.586-.871,1.307-.871h0c.721,0,1.307.39,1.307.871h0c0,.48-.586.871-1.307.871h0C1245.644,496.217,1245.058,495.826,1245.058,495.346Zm0-5.661c0-.48.586-.871,1.307-.871h0c.721,0,1.307.391,1.307.871h0c0,.483-.586.871-1.307.871h0C1245.644,490.555,1245.058,490.168,1245.058,489.685Zm0-5.658c0-.483.586-.871,1.307-.871h0c.721,0,1.307.387,1.307.871h0c0,.48-.586.871-1.307.871h0C1245.644,484.9,1245.058,484.507,1245.058,484.026Zm0-5.661c0-.48.586-.871,1.307-.871h0c.721,0,1.307.39,1.307.871h0c0,.48-.586.87-1.307.87h0C1245.644,479.236,1245.058,478.845,1245.058,478.365Zm0-5.661c0-.48.586-.871,1.307-.871h0c.721,0,1.307.391,1.307.871h0c0,.48-.586.871-1.307.871h0C1245.644,473.575,1245.058,473.184,1245.058,472.7Zm0-5.661c0-.48.586-.871,1.307-.871h0c.721,0,1.307.391,1.307.871h0c0,.48-.586.871-1.307.871h0C1245.644,467.914,1245.058,467.523,1245.058,467.042Zm0-5.658c0-.484.586-.871,1.307-.871h0c.721,0,1.307.387,1.307.871h0c0,.48-.586.87-1.307.87h0C1245.644,462.255,1245.058,461.865,1245.058,461.384Zm0-5.661c0-.481.586-.871,1.307-.871h0c.721,0,1.307.39,1.307.871h0c0,.48-.586.871-1.307.871h0C1245.644,456.594,1245.058,456.2,1245.058,455.723Zm0-5.661c0-.48.586-.87,1.307-.87h0c.721,0,1.307.39,1.307.87h0c0,.48-.586.871-1.307.871h0C1245.644,450.933,1245.058,450.542,1245.058,450.062Zm0-5.661c0-.48.586-.871,1.307-.871h0c.721,0,1.307.391,1.307.871h0c0,.483-.586.871-1.307.871h0C1245.644,445.271,1245.058,444.884,1245.058,444.4Zm0-5.661c0-.48.586-.868,1.307-.868h0c.721,0,1.307.388,1.307.868h0c0,.483-.586.874-1.307.874h0C1245.644,439.613,1245.058,439.223,1245.058,438.74Zm0-5.658c0-.483.586-.871,1.307-.871h0c.721,0,1.307.387,1.307.871h0c0,.48-.586.871-1.307.871h0C1245.644,433.952,1245.058,433.562,1245.058,433.081Zm0-5.661c0-.48.586-.871,1.307-.871h0c.721,0,1.307.39,1.307.871h0c0,.481-.586.871-1.307.871h0C1245.644,428.291,1245.058,427.9,1245.058,427.42Zm0-5.661c0-.48.586-.87,1.307-.87h0c.721,0,1.307.39,1.307.87h0c0,.48-.586.871-1.307.871h0C1245.644,422.629,1245.058,422.239,1245.058,421.759Zm0-5.661c0-.481.586-.871,1.307-.871h0c.721,0,1.307.39,1.307.871h0c0,.483-.586.871-1.307.871h0C1245.644,416.968,1245.058,416.581,1245.058,416.1Zm0-5.659c0-.483.586-.871,1.307-.871h0c.721,0,1.307.387,1.307.871h0c0,.48-.586.871-1.307.871h0C1245.644,411.31,1245.058,410.92,1245.058,410.439Zm0-5.661c0-.48.586-.871,1.307-.871h0c.721,0,1.307.391,1.307.871h0c0,.48-.586.871-1.307.871h0C1245.644,405.649,1245.058,405.258,1245.058,404.778Zm0-5.661c0-.48.586-.871,1.307-.871h0c.721,0,1.307.39,1.307.871h0c0,.48-.586.871-1.307.871h0C1245.644,399.988,1245.058,399.6,1245.058,399.117Zm0-5.661c0-.48.586-.871,1.307-.871h0c.721,0,1.307.391,1.307.871h0c0,.484-.586.871-1.307.871h0C1245.644,394.326,1245.058,393.939,1245.058,393.455Zm1.316-4.787c-.721-.025-1.275-.434-1.238-.914h0c.037-.48.651-.849,1.372-.824h0c.721.022,1.275.431,1.237.911h0c-.032.468-.614.827-1.3.827h-.07Zm.855-5.627c-.707-.093-1.167-.552-1.028-1.023h0a1.381,1.381,0,0,1,1.535-.685h0c.707.093,1.168.552,1.028,1.023h0a1.283,1.283,0,0,1-1.279.7h0A1.794,1.794,0,0,1,1247.23,383.041Zm2.07-5.491c-.683-.158-1.037-.657-.8-1.109h0a1.545,1.545,0,0,1,1.67-.53h0c.679.161,1.032.66.8,1.113h0a1.4,1.4,0,0,1-1.233.579h0A1.9,1.9,0,0,1,1249.3,377.55Zm3.242-5.227c-.637-.226-.879-.753-.544-1.178h0a1.682,1.682,0,0,1,1.768-.363h0c.637.223.879.753.544,1.177h0a1.5,1.5,0,0,1-1.159.462h0A1.856,1.856,0,0,1,1252.542,372.323Zm4.344-4.862c-.586-.285-.712-.83-.284-1.218h0a1.761,1.761,0,0,1,1.823-.189h0c.586.282.712.828.284,1.218h0a1.593,1.593,0,0,1-1.056.356h0A1.8,1.8,0,0,1,1256.886,367.461Zm5.34-4.4a.686.686,0,0,1-.019-1.23h0a1.811,1.811,0,0,1,1.851-.016h0a.691.691,0,0,1,.019,1.233h0a1.693,1.693,0,0,1-.935.26h0A1.692,1.692,0,0,1,1262.225,363.064Zm6.233-3.842c-.442-.381-.331-.926.242-1.221h0a1.781,1.781,0,0,1,1.832.164h0c.437.381.331.929-.242,1.221h0a1.767,1.767,0,0,1-.8.18h0A1.593,1.593,0,0,1,1268.458,359.222Zm6.986-3.207c-.349-.418-.125-.948.507-1.184h0a1.7,1.7,0,0,1,1.777.335h0c.353.421.126.951-.5,1.187h0a1.878,1.878,0,0,1-.637.108h0A1.517,1.517,0,0,1,1275.444,356.014Zm7.6-2.5c-.256-.449.083-.951.758-1.125h0a1.566,1.566,0,0,1,1.684.505h0c.26.449-.08.951-.754,1.125h0a2.005,2.005,0,0,1-.465.056h0A1.413,1.413,0,0,1,1283.049,353.511Zm8.074-1.745c-.153-.468.288-.936,1-1.038h0a1.413,1.413,0,0,1,1.558.66h0c.158.471-.288.936-.99,1.038h0a1.77,1.77,0,0,1-.284.022h0A1.309,1.309,0,0,1,1291.123,351.766Zm8.372-.945c-.056-.481.488-.9,1.2-.933h0c.721-.034,1.349.326,1.4.806h0c.051.48-.489.9-1.209.933h-.093C1300.119,351.627,1299.542,351.28,1299.5,350.821Zm186.918-.171c0-.48.586-.871,1.307-.871h0c.721,0,1.308.391,1.308.871h0c0,.48-.587.871-1.308.871h0C1487,351.521,1486.414,351.131,1486.414,350.651Zm-8.5,0c0-.48.586-.871,1.307-.871h0c.721,0,1.307.391,1.307.871h0c0,.48-.586.871-1.307.871h0C1478.5,351.521,1477.916,351.131,1477.916,350.651Zm-8.5,0c0-.48.586-.871,1.307-.871h0c.721,0,1.307.391,1.307.871h0c0,.48-.587.871-1.307.871h0C1470,351.521,1469.418,351.131,1469.418,350.651Zm-8.5,0c0-.48.587-.871,1.307-.871h0c.725,0,1.307.391,1.307.871h0c0,.48-.581.871-1.307.871h0C1461.507,351.521,1460.92,351.131,1460.92,350.651Zm-8.493,0c0-.48.581-.871,1.307-.871h0c.721,0,1.307.391,1.307.871h0c0,.48-.586.871-1.307.871h0C1453.009,351.521,1452.427,351.131,1452.427,350.651Zm-8.5,0c0-.48.587-.871,1.307-.871h0c.721,0,1.307.391,1.307.871h0c0,.48-.586.871-1.307.871h0C1444.516,351.521,1443.929,351.131,1443.929,350.651Zm-8.5,0c0-.48.587-.871,1.308-.871h0c.721,0,1.307.391,1.307.871h0c0,.48-.586.871-1.307.871h0C1436.018,351.521,1435.431,351.131,1435.431,350.651Zm-8.5,0c0-.48.586-.871,1.307-.871h0c.72,0,1.307.391,1.307.871h0c0,.48-.587.871-1.307.871h0C1427.52,351.521,1426.934,351.131,1426.934,350.651Zm-8.493,0c0-.48.581-.871,1.307-.871h0c.721,0,1.307.391,1.307.871h0c0,.48-.586.871-1.307.871h0C1419.022,351.521,1418.441,351.131,1418.441,350.651Zm-8.5,0c0-.48.586-.871,1.307-.871h0c.722,0,1.307.391,1.307.871h0c0,.48-.586.871-1.307.871h0C1410.529,351.521,1409.943,351.131,1409.943,350.651Zm-8.5,0c0-.48.587-.871,1.307-.871h0c.721,0,1.307.391,1.307.871h0c0,.48-.586.871-1.307.871h0C1402.032,351.521,1401.445,351.131,1401.445,350.651Zm-8.5,0c0-.48.586-.871,1.307-.871h0c.726,0,1.307.391,1.307.871h0c0,.48-.581.871-1.307.871h0C1393.534,351.521,1392.948,351.131,1392.948,350.651Zm-8.5,0c0-.48.586-.871,1.307-.871h0c.725,0,1.311.391,1.311.871h0c0,.48-.586.871-1.311.871h0C1385.036,351.521,1384.45,351.131,1384.45,350.651Zm-8.493,0c0-.48.581-.871,1.307-.871h0c.721,0,1.307.391,1.307.871h0c0,.48-.587.871-1.307.871h0C1376.538,351.521,1375.957,351.131,1375.957,350.651Zm-8.5,0c0-.48.586-.871,1.307-.871h0c.721,0,1.307.391,1.307.871h0c0,.48-.586.871-1.307.871h0C1368.045,351.521,1367.46,351.131,1367.46,350.651Zm-8.5,0c0-.48.587-.871,1.307-.871h0c.725,0,1.306.391,1.306.871h0c0,.48-.581.871-1.306.871h0C1359.548,351.521,1358.961,351.131,1358.961,350.651Zm-8.5,0c0-.48.586-.871,1.307-.871h0c.725,0,1.312.391,1.312.871h0c0,.48-.586.871-1.312.871h0C1351.049,351.521,1350.464,351.131,1350.464,350.651Zm-8.493,0c0-.48.581-.871,1.307-.871h0c.721,0,1.307.391,1.307.871h0c0,.48-.587.871-1.307.871h0C1342.552,351.521,1341.97,351.131,1341.97,350.651Zm-8.5,0c0-.48.586-.871,1.307-.871h0c.721,0,1.307.391,1.307.871h0c0,.48-.586.871-1.307.871h0C1334.059,351.521,1333.473,351.131,1333.473,350.651Zm-8.5,0c0-.48.586-.871,1.307-.871h0c.721,0,1.307.391,1.307.871h0c0,.48-.586.871-1.307.871h0C1325.561,351.521,1324.975,351.131,1324.975,350.651Zm-8.5,0c0-.48.586-.871,1.307-.871h0c.725,0,1.307.391,1.307.871h0c0,.48-.581.871-1.307.871h0C1317.063,351.521,1316.477,351.131,1316.477,350.651Zm-8.5,0c0-.48.586-.871,1.312-.871h0c.721,0,1.307.391,1.307.871h0c0,.48-.586.871-1.307.871h0C1308.566,351.521,1307.979,351.131,1307.979,350.651Z" transform="translate(-1245.058 -349.78)" fill="#ffb300"/>
    </g>
    <g id="Group_552" data-name="Group 552" transform="translate(185.178)">
      <path id="Path_1470" data-name="Path 1470" d="M1725.532,349.738H1683.97a21.111,21.111,0,0,0-21.111,21.111V622.524a21.111,21.111,0,0,0,21.111,21.111h41.562a39.392,39.392,0,0,0,39.392-39.392V389.13A39.392,39.392,0,0,0,1725.532,349.738Z" transform="translate(-1662.859 -349.738)" fill="#ffb300"/>
    </g>
  </g>
</svg>
