<svg xmlns="http://www.w3.org/2000/svg" xmlns:xlink="http://www.w3.org/1999/xlink" width="314.517" height="105.681" viewBox="0 0 314.517 105.681">
  <defs>
    <linearGradient id="linear-gradient" x1="-10.115" y1="-2.365" x2="-80.058" y2="-21.246" gradientUnits="objectBoundingBox">
      <stop offset="0" stop-color="#3e889c"/>
      <stop offset="0.71" stop-color="#68b7c2"/>
      <stop offset="1" stop-color="#7accd2"/>
    </linearGradient>
    <linearGradient id="linear-gradient-2" x1="0.795" y1="0.618" x2="-0.169" y2="-0.253" xlink:href="#linear-gradient"/>
    <linearGradient id="linear-gradient-3" x1="-0.174" y1="0.782" x2="0.875" y2="0.132" xlink:href="#linear-gradient"/>
    <linearGradient id="linear-gradient-4" x1="-7.514" y1="1.237" x2="9.37" y2="-0.314" xlink:href="#linear-gradient"/>
    <linearGradient id="linear-gradient-5" x1="-3.7" y1="9.191" x2="3.413" y2="-5.526" xlink:href="#linear-gradient"/>
    <linearGradient id="linear-gradient-6" x1="0.994" y1="0.994" x2="-0.526" y2="-0.537" xlink:href="#linear-gradient"/>
    <linearGradient id="linear-gradient-7" x1="-0.123" y1="0.037" x2="1.289" y2="1.086" gradientUnits="objectBoundingBox">
      <stop offset="0" stop-color="#1a4e6f"/>
      <stop offset="0.4" stop-color="#3e7e94"/>
      <stop offset="1" stop-color="#7accd2"/>
      <stop offset="1" stop-color="#0ceac6"/>
    </linearGradient>
    <linearGradient id="linear-gradient-8" x1="9.387" y1="23.878" x2="-3.055" y2="-8.862" xlink:href="#linear-gradient"/>
  </defs>
  <g id="شعار_-_ريادة" data-name="شعار - ريادة" transform="translate(-0.016 -0.003)">
    <g id="Layer_1" data-name="Layer 1" transform="translate(0.016 0.003)">
      <path id="Path_1028" data-name="Path 1028" d="M423.89,320.307c.2-.282.4-.577.584-.892v-1.3C424.306,318.858,424.118,319.589,423.89,320.307Z" transform="translate(-174.034 -257.36)" fill="url(#linear-gradient)"/>
      <path id="Path_1029" data-name="Path 1029" d="M412.537,262.413a4.4,4.4,0,0,0-2.268.993v24.155c0,5.368-1.02,9.581-2.905,12.715v-1.295c-.168.738-.356,1.469-.584,2.187a12.749,12.749,0,0,1-.926,1.188A13.661,13.661,0,0,1,402.727,305h0a17.62,17.62,0,0,1-9.226,2.275,16.677,16.677,0,0,1-9.253-2.382c-4.509-2.912-6.944-8.562-6.944-17.277V269.525a15.432,15.432,0,0,0-.114-1.745c-.04-.429-.094-.839-.161-1.214a6.341,6.341,0,0,0-1.241-3.154c-.148-.168-.282-.329-.4-.476-.671-.832-1.06-1.261-3-1.261H372.1a1.878,1.878,0,0,1-.054-1.637.639.639,0,0,1,.06-.181h19.458c0,.06.047.121.06.181a1.785,1.785,0,0,1-.04,1.637h-.839c-2.489,0-2.717.792-3.784,2.355a5.838,5.838,0,0,0-.805,2.355v21.981a22.665,22.665,0,0,0,.49,4.985c1.033,4.556,3.63,6.6,7.092,6.6,4.784,0,7.709-3.4,7.709-11.588v-25.5a14.281,14.281,0,0,0-2.06-.584c-1.745-.4-1.745-.4-1.765-2.436h16.345C414.61,261.366,414.04,262.145,412.537,262.413Z" transform="translate(-156.923 -238.187)" fill="url(#linear-gradient-2)"/>
      <path id="Path_1030" data-name="Path 1030" d="M457.759,285.545v1a18.15,18.15,0,0,1-18.116,17.123,5.582,5.582,0,0,1,0-11.165,6.71,6.71,0,1,0-5.448-10.829h0a6.951,6.951,0,0,0-1.51,4.314v26.134a5.582,5.582,0,1,1-11.158,0V285.987a18.123,18.123,0,0,1,36.232-1C457.752,285.169,457.759,285.357,457.759,285.545Z" transform="translate(-173.254 -240.659)" fill="#414042"/>
      <path id="Path_1031" data-name="Path 1031" d="M458.379,285.545v1a18.116,18.116,0,0,1-18.116,17.123,5.582,5.582,0,1,1,0-11.165,6.71,6.71,0,1,0-5.475-10.829h0a6.945,6.945,0,0,0-1.5,4.314v26.134a5.582,5.582,0,1,1-11.158,0V285.987a18.123,18.123,0,0,1,36.232-1C458.365,285.169,458.379,285.357,458.379,285.545Z" transform="translate(-173.451 -240.659)" fill="url(#linear-gradient-3)"/>
      <path id="Path_1032" data-name="Path 1032" d="M439.517,288.32c-.074.081-.134.161-.2.242h0a6.911,6.911,0,0,0-1.5,4.314V319a5.549,5.549,0,0,1-2.013,4.267,5.569,5.569,0,0,0,1.342-3.6V293.554a6.9,6.9,0,0,1,1.51-4.314h0A7.071,7.071,0,0,1,439.517,288.32Z" transform="translate(-177.953 -247.554)" fill="url(#linear-gradient-4)"/>
      <path id="Path_1033" data-name="Path 1033" d="M447.071,303.988a6.944,6.944,0,0,0,4.563-1.718,6.917,6.917,0,0,1-5.233,2.382,5.576,5.576,0,0,0-3.59,1.3,5.576,5.576,0,0,1,4.261-1.966Z" transform="translate(-180.259 -252.144)" fill="url(#linear-gradient-5)"/>
      <rect id="Rectangle_39" data-name="Rectangle 39" width="76.705" height="5.65" transform="translate(213.906 3.99)" fill="#1a4e6f"/>
      <rect id="Rectangle_40" data-name="Rectangle 40" width="5.65" height="58.575" transform="translate(289.524 3.99)" fill="#1a4e6f"/>
      <rect id="Rectangle_41" data-name="Rectangle 41" width="64.084" height="5.65" transform="translate(198.95 85.043)" fill="#1a4e6f"/>
      <rect id="Rectangle_42" data-name="Rectangle 42" width="5.65" height="62.574" transform="translate(198.95 28.118)" fill="#1a4e6f"/>
      <path id="Path_1034" data-name="Path 1034" d="M333.954,228.755l13.339-1.188a1.154,1.154,0,0,1,.839.262l3.838,3.207a1.154,1.154,0,0,1,.356,1.228,1.141,1.141,0,0,1-.986.8l-8.092.725,9.964,8.327a1.141,1.141,0,0,1,.148,1.617l-2.275,2.717a1.147,1.147,0,0,1-1.617.141l-9.91-8.28.886,8.2a1.147,1.147,0,0,1-1.879,1.006l-3.838-3.214a1.167,1.167,0,0,1-.409-.758l-1.409-13.527a1.141,1.141,0,0,1,.255-.845,1.154,1.154,0,0,1,.792-.416Z" transform="translate(-144.095 -227.563)" fill="url(#linear-gradient-6)"/>
      <rect id="Rectangle_43" data-name="Rectangle 43" width="24.45" height="24.45" transform="translate(270.609 69.63)" fill="url(#linear-gradient-7)"/>
      <rect id="Rectangle_44" data-name="Rectangle 44" width="16.425" height="16.425" transform="translate(298.092 77.487)" fill="#77c8cf"/>
      <rect id="Rectangle_45" data-name="Rectangle 45" width="8.964" height="8.964" transform="translate(288.202 96.717)" fill="#77c8cf"/>
      <rect id="Rectangle_46" data-name="Rectangle 46" width="8.964" height="8.964" transform="translate(297.991 64.545)" fill="#77c8cf"/>
      <path id="Path_1035" data-name="Path 1035" d="M375.451,263.831a4.113,4.113,0,0,0-1.516-.456,2.261,2.261,0,0,1-1.765-.805h.282C374.391,262.57,374.74,263,375.451,263.831Z" transform="translate(-157.016 -239.082)" fill="url(#linear-gradient-8)"/>
      <path id="Path_1036" data-name="Path 1036" d="M56.293,324.25a7.174,7.174,0,0,1-2.442-1.476,7.287,7.287,0,0,1-1.7-2.456,8.36,8.36,0,0,1-.637-3.415v-8.052h2.275V316.9a6.441,6.441,0,0,0,.436,2.456,5.441,5.441,0,0,0,1.188,1.765,4.938,4.938,0,0,0,1.7,1.074,6.113,6.113,0,0,0,4.147,0,4.9,4.9,0,0,0,1.711-1.074,5.556,5.556,0,0,0,1.188-1.765,6.441,6.441,0,0,0,.436-2.456V294.58h3.529v2.147H66.881V316.9a8.36,8.36,0,0,1-.671,3.415,7.206,7.206,0,0,1-1.711,2.456,7.045,7.045,0,0,1-2.456,1.476,9.138,9.138,0,0,1-5.784,0Z" transform="translate(-51.506 -249.614)" fill="#1a4e6f"/>
      <path id="Path_1037" data-name="Path 1037" d="M82.258,294.57v16.063a6.247,6.247,0,0,0,.45,2.476,5.328,5.328,0,0,0,1.167,1.765,5.059,5.059,0,0,0,1.711,1.074,6.221,6.221,0,0,0,2.073.342,1.047,1.047,0,0,1,.778.329,1.06,1.06,0,0,1,.329.785,1.02,1.02,0,0,1-.329.758,1.047,1.047,0,0,1-.778.329,8.533,8.533,0,0,1-2.878-.49,6.8,6.8,0,0,1-2.469-1.456,7.6,7.6,0,0,1-1.711-2.456,9.26,9.26,0,0,1-.671-3.435v-16.1Z" transform="translate(-60.859 -249.604)" fill="#1a4e6f"/>
      <path id="Path_1038" data-name="Path 1038" d="M121.248,318.562a1.047,1.047,0,0,1,.778.329,1.06,1.06,0,0,1,.329.785,1.033,1.033,0,0,1-.329.772,1.087,1.087,0,0,1-.778.315,8.507,8.507,0,0,1-2.878-.49,6.885,6.885,0,0,1-2.476-1.456,7.548,7.548,0,0,1-1.577-2.161,10.737,10.737,0,0,1-.819,1.107,8.568,8.568,0,0,1-2.952,2.167,9.763,9.763,0,0,1-4.18.832,9.983,9.983,0,0,1-4.2-.819,8.547,8.547,0,0,1-2.966-2.181,9.807,9.807,0,0,1-.819-1.107,7.562,7.562,0,0,1-1.583,2.16,6.917,6.917,0,0,1-2.456,1.456,8.639,8.639,0,0,1-2.892.49v-2.2a6.279,6.279,0,0,0,2.073-.342,5.059,5.059,0,0,0,1.711-1.074,5.462,5.462,0,0,0,1.181-1.765,6.5,6.5,0,0,0,.436-2.476v-1.818a10.735,10.735,0,0,1,.671-3.8,8.783,8.783,0,0,1,4.891-5.166,9.91,9.91,0,0,1,3.986-.758,9.715,9.715,0,0,1,4.16.832,8.447,8.447,0,0,1,2.952,2.187,9.139,9.139,0,0,1,1.765,3.107,11.567,11.567,0,0,1,.577,3.6v1.818a6.247,6.247,0,0,0,.456,2.476,4.9,4.9,0,0,0,2.872,2.838,6.294,6.294,0,0,0,2.067.342ZM113.1,308.3a6.858,6.858,0,0,0-1.308-2.415,6.541,6.541,0,0,0-2.221-1.711,7.32,7.32,0,0,0-3.18-.671,7.589,7.589,0,0,0-3.133.6,6.649,6.649,0,0,0-2.275,1.657,7.273,7.273,0,0,0-1.342,2.415,9.313,9.313,0,0,0-.456,2.912,8.983,8.983,0,0,0,.436,2.764,6.757,6.757,0,0,0,1.342,2.383,6.321,6.321,0,0,0,2.234,1.691,7.455,7.455,0,0,0,3.207.637,7.266,7.266,0,0,0,3.2-.671,6.516,6.516,0,0,0,2.214-1.711,7.032,7.032,0,0,0,1.295-2.382,9.555,9.555,0,0,0,.436-2.731,9.179,9.179,0,0,0-.45-2.8Z" transform="translate(-64.649 -251.844)" fill="#1a4e6f"/>
      <path id="Path_1039" data-name="Path 1039" d="M135.86,329.167V327h4.415a1.06,1.06,0,0,1,.792.322,1.04,1.04,0,0,1,.322.772,1.087,1.087,0,0,1-1.114,1.107Z" transform="translate(-79.262 -260.281)" fill="#1a4e6f"/>
      <path id="Path_1040" data-name="Path 1040" d="M153.736,308.853v-5.2a8.406,8.406,0,0,0-1.838-.188,7.319,7.319,0,0,0-3.18.671,6.542,6.542,0,0,0-2.221,1.711,6.65,6.65,0,0,0-1.342,2.415,8.977,8.977,0,0,0-.436,2.785,8.722,8.722,0,0,0,.436,2.731,6.9,6.9,0,0,0,1.288,2.382,6.541,6.541,0,0,0,2.221,1.711,7.267,7.267,0,0,0,3.2.671h3.986v2.2H142.43v-2.181H145.6a8.575,8.575,0,0,1-.819-.819,8.991,8.991,0,0,1-1.765-3.073,11.225,11.225,0,0,1-.584-3.583,11.407,11.407,0,0,1,.584-3.6,9.138,9.138,0,0,1,1.764-3.106,8.723,8.723,0,0,1,2.946-2.187,9.722,9.722,0,0,1,4.167-.832,9.937,9.937,0,0,1,3.986.758v6.77Z" transform="translate(-81.423 -251.844)" fill="#1a4e6f"/>
      <path id="Path_1041" data-name="Path 1041" d="M170.664,291.713a2.013,2.013,0,0,1-.268-.966v-.181a2.147,2.147,0,0,1,.141-.785,1.966,1.966,0,0,1,1.342-1.087,2.685,2.685,0,0,1,.637-.074,2.61,2.61,0,0,1,1.094.235v1.4h-1.094v-.711c-.671,0-.986.356-1.04,1.074a1.087,1.087,0,0,0,.289.792.973.973,0,0,0,.751.3h1.094v.926h-3.771v-.926Zm-.832,3.2h3.516v17.123H171.02V297.074h-1.2Zm8.139,13.775V292.639H180.3V308.7a8.353,8.353,0,0,1-.953,4.026,7.092,7.092,0,0,1-2.684,2.778,7.857,7.857,0,0,1-4.066,1.02H167.94v-2.154H172.6a5.066,5.066,0,0,0,3.939-1.59,5.8,5.8,0,0,0,1.436-4.079Z" transform="translate(-89.817 -247.653)" fill="#1a4e6f"/>
      <path id="Path_1042" data-name="Path 1042" d="M190,318.5V294.58h2.328v21.753h1.2v2.147Z" transform="translate(-97.076 -249.614)" fill="#1a4e6f"/>
      <path id="Path_1043" data-name="Path 1043" d="M219.448,299.1a9.669,9.669,0,0,1,4.147.832,8.723,8.723,0,0,1,2.966,2.187,9.487,9.487,0,0,1,1.765,3.107,11.407,11.407,0,0,1,.584,3.6,11.226,11.226,0,0,1-.584,3.583,9.327,9.327,0,0,1-1.765,3.073,8.722,8.722,0,0,1-2.966,2.187,9.689,9.689,0,0,1-4.187.832,9.871,9.871,0,0,1-4.18-.819,8.629,8.629,0,0,1-2.986-2.181,9.393,9.393,0,0,1-1.745-3.093,10.883,10.883,0,0,1-.6-3.583,11,11,0,0,1,.671-3.818,8.984,8.984,0,0,1,1.892-3.08,9.157,9.157,0,0,1,.745-.671h-2.127v-2.14Zm6.71,6.944a7.079,7.079,0,0,0-1.308-2.415,6.71,6.71,0,0,0-2.221-1.711,7.38,7.38,0,0,0-3.18-.671,7.636,7.636,0,0,0-3.147.6,6.428,6.428,0,0,0-2.254,1.671,6.945,6.945,0,0,0-1.342,2.422,9.1,9.1,0,0,0-.45,2.892,8.789,8.789,0,0,0,.436,2.764,7.2,7.2,0,0,0,1.342,2.382,6.442,6.442,0,0,0,2.234,1.691,7.494,7.494,0,0,0,3.221.637,7.193,7.193,0,0,0,3.18-.671,6.293,6.293,0,0,0,2.221-1.711,7.179,7.179,0,0,0,1.308-2.382,9.092,9.092,0,0,0,.423-2.731,9.394,9.394,0,0,0-.463-2.771Zm-7.656-9.461a1.127,1.127,0,0,1-.839.329,1.165,1.165,0,1,1,0-2.328,1.174,1.174,0,0,1,.839.315,1.214,1.214,0,0,1,0,1.664Zm3.482,0a1.14,1.14,0,0,1-.845.315,1.167,1.167,0,0,1-.839-.309,1.073,1.073,0,0,1-.322-.819,1.141,1.141,0,0,1,.322-.845,1.282,1.282,0,0,1,1.677,0,1.087,1.087,0,0,1,.329.819,1.141,1.141,0,0,1-.322.832Z" transform="translate(-103.623 -249.614)" fill="#1a4e6f"/>
      <path id="Path_1044" data-name="Path 1044" d="M248.949,320.723H241.89v-2.167h7.059a7.267,7.267,0,0,0,3.2-.671,6.514,6.514,0,0,0,2.214-1.711,7.379,7.379,0,0,0,1.295-2.382,9.084,9.084,0,0,0,.416-2.731,9.393,9.393,0,0,0-.416-2.785,7.078,7.078,0,0,0-1.342-2.415,6.542,6.542,0,0,0-2.221-1.711,7.321,7.321,0,0,0-3.18-.671h-3.529v-2.14h3.529a9.715,9.715,0,0,1,4.16.832,8.723,8.723,0,0,1,2.952,2.187,9.138,9.138,0,0,1,1.765,3.107,11.567,11.567,0,0,1,.577,3.6,11.408,11.408,0,0,1-.577,3.584,8.991,8.991,0,0,1-1.764,3.072,8.722,8.722,0,0,1-2.952,2.187,9.716,9.716,0,0,1-4.126.812Z" transform="translate(-114.149 -251.837)" fill="#1a4e6f"/>
      <path id="Path_1045" data-name="Path 1045" d="M272.492,294.57v16.063a6.246,6.246,0,0,0,.456,2.476,5.226,5.226,0,0,0,1.168,1.765,5.093,5.093,0,0,0,1.7,1.074,6.294,6.294,0,0,0,2.08.342,1.047,1.047,0,0,1,.778.329,1.06,1.06,0,0,1,.329.785,1.02,1.02,0,0,1-.329.758,1.047,1.047,0,0,1-.778.329,8.509,8.509,0,0,1-2.878-.49,6.884,6.884,0,0,1-2.476-1.456,7.689,7.689,0,0,1-1.7-2.456,9.4,9.4,0,0,1-.671-3.435v-16.1Z" transform="translate(-123.454 -249.604)" fill="#1a4e6f"/>
      <path id="Path_1046" data-name="Path 1046" d="M281.69,329.167V327H286.1a1.06,1.06,0,0,1,.792.322,1.04,1.04,0,0,1,.322.772A1.087,1.087,0,0,1,286.1,329.2Z" transform="translate(-127.245 -260.281)" fill="#1a4e6f"/>
      <path id="Path_1047" data-name="Path 1047" d="M295.328,317.376a7.3,7.3,0,0,1-1.724,2.436,6.562,6.562,0,0,1-2.456,1.476,8.508,8.508,0,0,1-2.878.49V319.61a5.911,5.911,0,0,0,2.073-.362,4.952,4.952,0,0,0,1.711-1.074,5.16,5.16,0,0,0,1.167-1.765,6.246,6.246,0,0,0,.456-2.476V304.54H297.2v2.134h-1.235v7.293A8.42,8.42,0,0,1,295.328,317.376Zm-5.052,10.286a1.154,1.154,0,0,1-.839.315,1.167,1.167,0,0,1-.839-.309,1.073,1.073,0,0,1-.329-.819A1.147,1.147,0,0,1,288.6,326a1.282,1.282,0,0,1,1.677,0,1.08,1.08,0,0,1,.322.819A1.141,1.141,0,0,1,290.276,327.661Zm3.489,0a1.141,1.141,0,0,1-.839.322,1.154,1.154,0,0,1-.852-.315,1.094,1.094,0,0,1-.329-.825,1.114,1.114,0,0,1,.329-.839,1.141,1.141,0,0,1,.852-.329,1.154,1.154,0,0,1,.839.309,1.094,1.094,0,0,1,.329.839,1.128,1.128,0,0,1-.329.839Z" transform="translate(-129.409 -252.891)" fill="#1a4e6f"/>
      <path id="Path_1048" data-name="Path 1048" d="M312.01,325.344a7.106,7.106,0,0,1-2.684,2.778,7.885,7.885,0,0,1-4.066,1.013v-2.2a5.1,5.1,0,0,0,3.952-1.59,5.777,5.777,0,0,0,1.456-4.026V310.114h-1.2V308H313v13.332A8.467,8.467,0,0,1,312.01,325.344Z" transform="translate(-135 -254.03)" fill="#1a4e6f"/>
    </g>
  </g>
</svg>
