<svg xmlns="http://www.w3.org/2000/svg" width="13.25" height="26.23" viewBox="0 0 13.25 26.23">
  <path id="facebook_1_" data-name="facebook (1)" d="M127.105,13.97h2.875V25.807a.423.423,0,0,0,.423.423h4.875a.423.423,0,0,0,.423-.423V14.026h3.305a.423.423,0,0,0,.42-.375l.5-4.358a.423.423,0,0,0-.42-.471H135.7V6.09c0-.823.443-1.241,1.318-1.241h2.489a.423.423,0,0,0,.423-.423v-4A.423.423,0,0,0,139.509,0h-3.431c-.024,0-.078,0-.157,0a6.574,6.574,0,0,0-4.3,1.62,4.508,4.508,0,0,0-1.5,4.007V8.822h-3.018a.423.423,0,0,0-.423.423v4.3A.423.423,0,0,0,127.105,13.97Z" transform="translate(-126.682)" fill="#3ca7c3"/>
</svg>
