<svg xmlns="http://www.w3.org/2000/svg" width="28.419" height="29.227" viewBox="0 0 28.419 29.227">
  <g id="Group_43493" data-name="Group 43493" transform="translate(-333 -56.93)">
    <g id="bell" transform="translate(333 56.93)">
      <g id="Group_16110" data-name="Group 16110">
        <path id="Path_1946" data-name="Path 1946" d="M68.319,21.744a1.142,1.142,0,0,0-2.244.421,1.143,1.143,0,0,1-1.122,1.354H47.622A1.143,1.143,0,0,1,46.5,22.164,11.781,11.781,0,0,1,48.1,18.2a9.03,9.03,0,0,0,1.552-4.843V11.645a6.647,6.647,0,0,1,6.525-6.621H56.4a6.636,6.636,0,0,1,6.5,6.621v1.712a8.078,8.078,0,0,0,1.148,4.083,1.142,1.142,0,1,0,2.008-1.087,5.813,5.813,0,0,1-.872-3V11.645A8.917,8.917,0,0,0,57.418,2.81V1.142a1.142,1.142,0,1,0-2.283,0V2.814a8.947,8.947,0,0,0-7.763,8.831v1.712a6.884,6.884,0,0,1-1.251,3.71,13.873,13.873,0,0,0-1.864,4.676A3.426,3.426,0,0,0,47.622,25.8h5.251a3.425,3.425,0,1,0,6.85,0h5.229a3.426,3.426,0,0,0,3.366-4.058Zm-12.02,5.2A1.143,1.143,0,0,1,55.157,25.8H57.44A1.143,1.143,0,0,1,56.3,26.943Z" transform="translate(-44.197)" fill="#3ca7c3"/>
      </g>
    </g>
    <ellipse id="Ellipse_18" data-name="Ellipse 18" cx="4.993" cy="4.993" rx="4.993" ry="4.993" transform="translate(351.434 69.988)" fill="red"/>
  </g>
</svg>
