<svg id="search_2_" data-name="search (2)" xmlns="http://www.w3.org/2000/svg" width="21.409" height="21.409" viewBox="0 0 21.409 21.409">
  <path id="Path_61" data-name="Path 61" d="M4.745,145.424,4,148.206l-2.724.058a10.723,10.723,0,0,1-.079-10h0l2.425.445,1.062,2.41a6.389,6.389,0,0,0,.06,4.3Z" transform="translate(0 -132.486)" fill="#3ca7c3"/>
  <path id="Path_62" data-name="Path 62" d="M271.91,208.176a10.7,10.7,0,0,1-3.816,10.348h0l-3.054-.156-.432-2.7a6.379,6.379,0,0,0,2.745-3.258h-5.724v-4.235H271.91Z" transform="translate(-250.688 -199.471)" fill="#3ca7c3"/>
  <path id="Path_63" data-name="Path 63" d="M46.639,315.523h0a10.708,10.708,0,0,1-16.13-3.275l3.469-2.84a6.366,6.366,0,0,0,9.174,3.26Z" transform="translate(-29.233 -296.471)" fill="#3ca7c3"/>
  <path id="Path_64" data-name="Path 64" d="M44.964,2.464,41.5,5.3a6.365,6.365,0,0,0-9.385,3.333L28.625,5.782h0a10.707,10.707,0,0,1,16.34-3.317Z" transform="translate(-27.427 0)" fill="#3ca7c3"/>
</svg>
