<svg xmlns="http://www.w3.org/2000/svg" width="24.678" height="20.051" viewBox="0 0 24.678 20.051">
  <path id="twitter_1_" data-name="twitter (1)" d="M24.678,50.374a10.548,10.548,0,0,1-2.915.8,5.031,5.031,0,0,0,2.226-2.8A10.111,10.111,0,0,1,20.781,49.6a5.059,5.059,0,0,0-8.752,3.46,5.209,5.209,0,0,0,.117,1.154A14.32,14.32,0,0,1,1.718,48.922a5.061,5.061,0,0,0,1.555,6.762,5,5,0,0,1-2.286-.623v.056a5.083,5.083,0,0,0,4.053,4.971,5.049,5.049,0,0,1-1.326.167,4.473,4.473,0,0,1-.958-.086,5.107,5.107,0,0,0,4.727,3.524A10.166,10.166,0,0,1,1.211,65.85,9.48,9.48,0,0,1,0,65.781a14.243,14.243,0,0,0,7.761,2.27,14.3,14.3,0,0,0,14.4-14.4c0-.224-.008-.44-.019-.654A10.093,10.093,0,0,0,24.678,50.374Z" transform="translate(0 -48)" fill="#3ca7c3"/>
</svg>
