<svg xmlns="http://www.w3.org/2000/svg" width="24.692" height="18.191" viewBox="0 0 24.692 18.191">
  <g id="email" transform="translate(0 -57.088)">
    <g id="Group_288" data-name="Group 288" transform="translate(0 62.219)">
      <g id="Group_287" data-name="Group 287">
        <path id="Path_1025" data-name="Path 1025" d="M13.06,154.284a1.4,1.4,0,0,1-1.458,0L0,147.2v9.416a3.645,3.645,0,0,0,3.644,3.644h17.4a3.645,3.645,0,0,0,3.644-3.644V147.2Z" transform="translate(0 -147.2)" fill="#07487c"/>
      </g>
    </g>
    <g id="Group_290" data-name="Group 290" transform="translate(0.117 57.088)">
      <g id="Group_289" data-name="Group 289" transform="translate(0 0)">
        <path id="Path_1026" data-name="Path 1026" d="M22.98,57.088H5.575a3.623,3.623,0,0,0-3.527,2.857l12.244,7.463,12.215-7.463A3.623,3.623,0,0,0,22.98,57.088Z" transform="translate(-2.048 -57.088)" fill="#07487c"/>
      </g>
    </g>
  </g>
</svg>
