<svg id="google" xmlns="http://www.w3.org/2000/svg" width="32.31" height="32.31" viewBox="0 0 32.31 32.31">
  <path id="Path_9324" data-name="Path 9324" d="M7.573,110.046a8.53,8.53,0,0,1,1.207-4.384v-5.446H3.333a16.163,16.163,0,0,0,0,19.662H8.78V114.43A8.53,8.53,0,0,1,7.573,110.046Z" transform="translate(0 -93.891)" fill="#fbbd00"/>
  <path id="Path_9325" data-name="Path 9325" d="M199.786,374.162,196,377.949l3.786,3.786a16.032,16.032,0,0,0,9.831-3.333v-5.441h-5.441A8.581,8.581,0,0,1,199.786,374.162Z" transform="translate(-183.631 -349.425)" fill="#0f9d58"/>
  <path id="Path_9326" data-name="Path 9326" d="M58.269,325.477l-5.446,5.446a16.411,16.411,0,0,0,1.4,1.592,16.049,16.049,0,0,0,11.423,4.732v-7.573A8.586,8.586,0,0,1,58.269,325.477Z" transform="translate(-49.49 -304.938)" fill="#31aa52"/>
  <path id="Path_9327" data-name="Path 9327" d="M272.155,201.027a16.3,16.3,0,0,0-.265-2.927l-.142-.776H256V204.9h7.664a8.544,8.544,0,0,1-3.274,3.511l5.441,5.441a16.415,16.415,0,0,0,1.592-1.4A16.049,16.049,0,0,0,272.155,201.027Z" transform="translate(-239.845 -184.872)" fill="#3c79e6"/>
  <path id="Path_9328" data-name="Path 9328" d="M205.855,10.086l.669.669L211.879,5.4l-.669-.669A16.049,16.049,0,0,0,199.786,0L196,3.786l3.786,3.786A8.526,8.526,0,0,1,205.855,10.086Z" transform="translate(-183.631 0)" fill="#cf2d48"/>
  <path id="Path_9329" data-name="Path 9329" d="M65.643,7.573V0A16.05,16.05,0,0,0,54.22,4.732a16.4,16.4,0,0,0-1.4,1.592l5.446,5.446a8.586,8.586,0,0,1,7.375-4.2Z" transform="translate(-49.489 0)" fill="#eb4132"/>
</svg>
