<svg xmlns="http://www.w3.org/2000/svg" width="19.927" height="25.354" viewBox="0 0 19.927 25.354">
  <path id="padlock" d="M20.437,9.508h-.83V6.339A6.5,6.5,0,0,0,12.964,0,6.5,6.5,0,0,0,6.321,6.339V9.508h-.83A2.439,2.439,0,0,0,3,11.885V22.977a2.439,2.439,0,0,0,2.491,2.377H20.437a2.439,2.439,0,0,0,2.491-2.377V11.885A2.439,2.439,0,0,0,20.437,9.508ZM8.535,6.339a4.335,4.335,0,0,1,4.428-4.226,4.335,4.335,0,0,1,4.428,4.226V9.508H8.535Zm5.535,11.327v2.407a1.108,1.108,0,0,1-2.214,0V17.666a2.091,2.091,0,0,1-1.107-1.819,2.217,2.217,0,0,1,4.428,0A2.091,2.091,0,0,1,14.071,17.666Z" transform="translate(-3)" fill="#07487c"/>
</svg>
