<svg xmlns="http://www.w3.org/2000/svg" width="200" height="200" viewBox="0 0 200 200">
  <g id="图层_x0020_1" transform="translate(11 -2)">
    <path id="Path_9330" data-name="Path 9330" d="M100,200A100,100,0,1,1,200,100,100.011,100.011,0,0,1,100,200ZM86.242,117.6l60.009-60.009a5.362,5.362,0,0,1,7.542,0l6.8,6.8a5.382,5.382,0,0,1,0,7.542l-70.48,70.48a5.352,5.352,0,0,1-4.691,1.472,5.28,5.28,0,0,1-3.086-1.5L39.409,99.457a5.367,5.367,0,0,1,0-7.543l6.8-6.8a5.345,5.345,0,0,1,7.543,0Z" transform="translate(-11 2)" fill="#00af7a" fill-rule="evenodd"/>
  </g>
</svg>
