<svg xmlns="http://www.w3.org/2000/svg" width="20.683" height="20.379" viewBox="0 0 20.683 20.379">
  <path id="Path_9334" data-name="Path 9334" d="M131.856,138.433a16.945,16.945,0,0,1-4.158-.993,18.142,18.142,0,0,1-11.633-14.1,3.627,3.627,0,0,1,.969-3.362c.321-.315.607-.665.921-.987a2.835,2.835,0,0,1,4.133-.079c.388.369.782.734,1.16,1.115a2.812,2.812,0,0,1,.1,3.9c-.3.328-.606.64-.917.951a2.878,2.878,0,0,1-1.218.677c-.561.176-.665.411-.41.946a14.5,14.5,0,0,0,7.562,7.285c.459.2.671.109.855-.346a5.248,5.248,0,0,1,2-2.313,2.735,2.735,0,0,1,3.263.269,19.448,19.448,0,0,1,1.435,1.367,2.823,2.823,0,0,1,0,3.86c-.143.155-.29.307-.426.466A4.108,4.108,0,0,1,131.856,138.433Z" transform="translate(-115.997 -118.06)" fill="#a3a3a3"/>
</svg>
