<svg xmlns="http://www.w3.org/2000/svg" xmlns:xlink="http://www.w3.org/1999/xlink" width="17.504" height="17.504" viewBox="0 0 17.504 17.504">
  <defs>
    <clipPath id="clip-path">
      <path id="path21" d="M0-682.665H17.5v17.5H0Z" transform="translate(0 682.665)" fill="none"/>
    </clipPath>
  </defs>
  <g id="g15" transform="translate(0 682.665)">
    <g id="g17" transform="translate(0 -682.665)">
      <g id="g19" clip-path="url(#clip-path)">
        <g id="g25" transform="translate(0 16.991)">
          <path id="path27" d="M0,0H17.5" fill="none" stroke="#fff" stroke-miterlimit="10" stroke-width="1"/>
        </g>
        <g id="g29" transform="translate(6.547 2.053)">
          <path id="path31" d="M-236.967-311.794v-6.154H-238V-320h-4.172v2.051H-243.2v12.887" transform="translate(243.203 319.999)" fill="none" stroke="#fff" stroke-miterlimit="10" stroke-width="1"/>
        </g>
        <g id="g33" transform="translate(9.665 0)">
          <path id="path35" d="M0-78.016v-2.053" transform="translate(0 80.069)" fill="none" stroke="#fff" stroke-miterlimit="10" stroke-width="1"/>
        </g>
        <g id="g37" transform="translate(9.687 10.258)">
          <path id="path39" d="M0-255.863V-262.6H6.192v6.733" transform="translate(0 262.597)" fill="none" stroke="#fff" stroke-miterlimit="10" stroke-width="1"/>
        </g>
        <g id="g41" transform="translate(11.751 11.93)">
          <path id="path43" d="M0,0V5.062" fill="none" stroke="#fff" stroke-miterlimit="10" stroke-width="1"/>
        </g>
        <g id="g45" transform="translate(13.815 11.93)">
          <path id="path47" d="M0,0V5.062" fill="none" stroke="#fff" stroke-miterlimit="10" stroke-width="1"/>
        </g>
      </g>
    </g>
    <g id="g49" transform="translate(8.127 -676.509)">
      <path id="path51" d="M0,0H1.026" fill="none" stroke="#fff" stroke-miterlimit="10" stroke-width="1"/>
    </g>
    <g id="g53" transform="translate(9.152 -678.561)">
      <path id="path55" d="M0,0H1.026" fill="none" stroke="#fff" stroke-miterlimit="10" stroke-width="1"/>
    </g>
    <g id="g57" transform="translate(8.127 -674.458)">
      <path id="path59" d="M0,0H1.026" fill="none" stroke="#fff" stroke-miterlimit="10" stroke-width="1"/>
    </g>
    <g id="g61" transform="translate(10.178 -676.509)">
      <path id="path63" d="M0,0H1.026" fill="none" stroke="#fff" stroke-miterlimit="10" stroke-width="1"/>
    </g>
    <g id="g65" transform="translate(10.178 -674.458)">
      <path id="path67" d="M0,0H1.026" fill="none" stroke="#fff" stroke-miterlimit="10" stroke-width="1"/>
    </g>
    <g id="g69" transform="translate(0 -682.665)">
      <g id="g71" clip-path="url(#clip-path)">
        <g id="g77" transform="translate(1.625 6.156)">
          <path id="path79" d="M0-411.761V-422.6H4.882" transform="translate(0 422.596)" fill="none" stroke="#fff" stroke-miterlimit="10" stroke-width="1"/>
        </g>
      </g>
    </g>
    <g id="g81" transform="translate(3.553 -674.458)">
      <path id="path83" d="M0,0H1.026" fill="none" stroke="#fff" stroke-miterlimit="10" stroke-width="1"/>
    </g>
    <g id="g85" transform="translate(3.553 -672.262)">
      <path id="path87" d="M0,0H1.026" fill="none" stroke="#fff" stroke-miterlimit="10" stroke-width="1"/>
    </g>
    <g id="g89" transform="translate(3.553 -670.066)">
      <path id="path91" d="M0,0H1.026" fill="none" stroke="#fff" stroke-miterlimit="10" stroke-width="1"/>
    </g>
    <g id="g93" transform="translate(3.553 -667.87)">
      <path id="path95" d="M0,0H1.026" fill="none" stroke="#fff" stroke-miterlimit="10" stroke-width="1"/>
    </g>
  </g>
</svg>
