<svg xmlns="http://www.w3.org/2000/svg" width="60.645" height="61.043" viewBox="0 0 60.645 61.043">
  <g id="pen-filled-writing-tool" transform="translate(-2.992 0)">
    <path id="Path_9274" data-name="Path 9274" d="M526.955,13.9l1.792-2.243a7.112,7.112,0,0,0-1.115-10l-.113-.093a7.112,7.112,0,0,0-10,1.115l-1.785,2.236Z" transform="translate(-478.713)" fill="#fff"/>
    <path id="Path_9275" data-name="Path 9275" d="M92.46,126.675a2.14,2.14,0,0,0,3.8,1.1l12.311-15.4a2.137,2.137,0,0,0-.378-3.04,2.176,2.176,0,0,0-2.993.4l-1.2,1.5-2.057-1.646.007-.007L90.728,100.6l-28.7,35.87,11.222,8.986,26.022-32.519,2.057,1.646L92.918,125.1A2.123,2.123,0,0,0,92.46,126.675Z" transform="translate(-55.122 -93.924)" fill="#fff"/>
    <path id="Path_9276" data-name="Path 9276" d="M16.268,682.367,5.7,673.9a10.714,10.714,0,0,0-.259,1.108l-2.422,11.6a1.042,1.042,0,0,0,1.453,1.161l10.791-4.911C15.252,682.858,15.73,682.659,16.268,682.367Z" transform="translate(0 -629.176)" fill="#fff"/>
    <path id="Path_9277" data-name="Path 9277" d="M181.75,791.627a1.874,1.874,0,0,0-.272.02l-16.306,2.11a1,1,0,0,1-.969-1.526c.246-.378.484-.763.723-1.148a1.61,1.61,0,0,0-1.38-2.383,1.592,1.592,0,0,0-.246.02l-21.369,3.212-2.555.385-6.968,1.049a1.456,1.456,0,0,0-1.254,1.593,1.58,1.58,0,0,0,.4.949,1.421,1.421,0,0,0,1.062.465,1.606,1.606,0,0,0,.246-.02l25.471-3.829a1,1,0,0,1,.956,1.566c-.166.226-.332.458-.5.684a1.827,1.827,0,0,0,.179,2.2,1.358,1.358,0,0,0,.982.425.794.794,0,0,0,.126-.007h.013l21.987-2.8h.013a1.355,1.355,0,0,0,.929-.617,1.592,1.592,0,0,0,.219-1.241A1.482,1.482,0,0,0,181.75,791.627Z" transform="translate(-119.651 -736.358)" fill="#fff"/>
  </g>
</svg>
