<svg xmlns="http://www.w3.org/2000/svg" width="26.68" height="26.68" viewBox="0 0 26.68 26.68">
  <g id="_0" data-name="0" transform="translate(0 0)">
    <g id="Group_2973" data-name="Group 2973" transform="translate(0 0)">
      <g id="Group_2972" data-name="Group 2972">
        <g id="Group_2971" data-name="Group 2971">
          <path id="Path_9245" data-name="Path 9245" d="M20.751,26.68H5.929A5.929,5.929,0,0,1,0,20.751V19.269a1.482,1.482,0,1,1,2.964,0v1.482a2.964,2.964,0,0,0,2.964,2.964H20.751a2.965,2.965,0,0,0,2.964-2.964V19.269a1.482,1.482,0,1,1,2.964,0v1.482a5.929,5.929,0,0,1-5.929,5.929ZM13.34,20.751a1.478,1.478,0,0,1-1.035-.422h0l0,0h0l0,0,0,0,0,0,0,0L6.363,14.388a1.482,1.482,0,0,1,2.1-2.1l3.4,3.4V1.482a1.482,1.482,0,1,1,2.964,0V15.69l3.4-3.4a1.482,1.482,0,0,1,2.1,2.1l-5.929,5.929,0,0,0,0,0,0,0,0h0l0,0h0l-.05.046a1.473,1.473,0,0,1-.409.259h0a1.476,1.476,0,0,1-.574.115Z" transform="translate(0 0)" fill="#00af7a"/>
        </g>
      </g>
    </g>
  </g>
</svg>
