<svg xmlns="http://www.w3.org/2000/svg" width="62.6" height="54.614" viewBox="0 0 62.6 54.614">
  <g id="_12" data-name="12" transform="translate(0.25 0.25)">
    <g id="Group_526" data-name="Group 526" transform="translate(13.589 19.548)">
      <g id="Group_525" data-name="Group 525" transform="translate(0 0)">
        <path id="Path_1460" data-name="Path 1460" d="M144.411,194.416l-7.61,6.832-4.478-5.664-8.771,8.771-4.778-4.778-6.74,5.991,2.418,2.72,4.176-3.712,4.925,4.925L132,201.049l4.345,5.495,10.493-9.42Z" transform="translate(-112.034 -194.416)" fill="#06467a" stroke="#fff" stroke-width="0.5"/>
      </g>
    </g>
    <g id="Group_528" data-name="Group 528" transform="translate(0 0)">
      <g id="Group_527" data-name="Group 527" transform="translate(0 0)">
        <path id="Path_1461" data-name="Path 1461" d="M32.869,36.764V33.247H29.231v3.517H0v11.4H2.668V77.517H26.547l-3.621,8.311,3.336,1.453,4.254-9.764h1.067l4.254,9.764,3.336-1.453-3.621-8.311H58.946V48.165H62.1v-11.4ZM55.308,73.879h-49V48.165h49Zm3.154-29.352H3.639V40.4H58.461Z" transform="translate(0 -33.247)" fill="#06467a" stroke="#fff" stroke-width="0.5"/>
      </g>
    </g>
  </g>
</svg>
