<svg id="_2" data-name="2" xmlns="http://www.w3.org/2000/svg" width="17.504" height="17.377" viewBox="0 0 17.504 17.377">
  <g id="Layer_2_16_">
    <g id="Group_565" data-name="Group 565">
      <path id="Path_1475" data-name="Path 1475" d="M253.68,423.176c-.144.036-.292.068-.438.095a.7.7,0,0,0,.256,1.384c.174-.032.349-.07.521-.113a.7.7,0,0,0-.34-1.366Z" transform="translate(-243.16 -407.296)" fill="#707070"/>
      <path id="Path_1476" data-name="Path 1476" d="M412.664,137.6a.7.7,0,0,0,1.336-.442c-.056-.168-.117-.337-.183-.5a.7.7,0,1,0-1.307.522C412.565,137.313,412.617,137.455,412.664,137.6Z" transform="translate(-396.94 -131.148)" fill="#707070"/>
      <path id="Path_1477" data-name="Path 1477" d="M321.6,394.028c-.124.082-.252.161-.381.236a.7.7,0,1,0,.7,1.219c.153-.089.306-.183.454-.28a.7.7,0,0,0-.776-1.174Z" transform="translate(-308.793 -379.153)" fill="#707070"/>
      <path id="Path_1478" data-name="Path 1478" d="M429.041,207.988a.7.7,0,1,0-1.406.055c.006.148.007.3,0,.447a.7.7,0,1,0,1.407.031C429.05,208.344,429.048,208.165,429.041,207.988Z" transform="translate(-411.543 -199.574)" fill="#707070"/>
      <path id="Path_1479" data-name="Path 1479" d="M378.189,344.21a.7.7,0,0,0-.985.141c-.089.119-.183.237-.28.35a.7.7,0,0,0,.08.992c.017.014.034.027.052.04a.7.7,0,0,0,.94-.119c.115-.135.227-.276.334-.418A.7.7,0,0,0,378.189,344.21Z" transform="translate(-362.58 -331.186)" fill="#707070"/>
      <path id="Path_1480" data-name="Path 1480" d="M414.827,279.384a.7.7,0,0,0-.882.461c-.044.142-.094.284-.147.423a.7.7,0,0,0,1.315.5c.063-.166.122-.335.175-.5A.7.7,0,0,0,414.827,279.384Z" transform="translate(-398.183 -268.904)" fill="#707070"/>
      <path id="Path_1481" data-name="Path 1481" d="M7.451,17.669a7.266,7.266,0,0,1-1.8-.574l-.02-.011c-.135-.063-.269-.131-.4-.2h0a7.507,7.507,0,0,1-.7-.438A7.343,7.343,0,0,1,4.554,4.415L4.58,4.4a7.356,7.356,0,0,1,8.244-.066l-.55.794c-.153.221-.059.382.209.358L14.87,5.27a.393.393,0,0,0,.356-.515l-.641-2.311c-.072-.259-.256-.29-.409-.069l-.551.8A8.69,8.69,0,0,0,7.258,1.819q-.338.058-.666.142h0l-.025.007A8.677,8.677,0,0,0,1.75,5.193c-.01.012-.021.024-.03.037-.04.054-.08.109-.118.164-.063.09-.126.183-.186.275-.007.011-.013.022-.02.034A8.675,8.675,0,0,0,.009,10.82c0,.006,0,.012,0,.018.008.177.022.355.041.532,0,.011,0,.022.005.033.02.177.044.355.075.532A8.684,8.684,0,0,0,2.58,16.645l.009.009,0,0a8.866,8.866,0,0,0,1.121.937A8.676,8.676,0,0,0,7.2,19.054a.7.7,0,0,0,.248-1.385Z" transform="translate(0 -1.688)" fill="#707070"/>
      <path id="Path_1482" data-name="Path 1482" d="M206.557,83.2a.57.57,0,0,0-.57.569V89.44l5.188,2.682a.569.569,0,0,0,.523-1.011l-4.572-2.364V83.767A.569.569,0,0,0,206.557,83.2Z" transform="translate(-198.236 -80.131)" fill="#707070"/>
    </g>
  </g>
</svg>
