<svg id="_3" data-name="3" xmlns="http://www.w3.org/2000/svg" width="11.83" height="15.53" viewBox="0 0 11.83 15.53">
  <g id="Group_566" data-name="Group 566">
    <path id="Path_1483" data-name="Path 1483" d="M69.361,6.152A6.661,6.661,0,0,0,71.91.91h.919V0H61V.91h.919a6.661,6.661,0,0,0,2.549,5.242c.691.63,1.082,1.015,1.082,1.614s-.391.984-1.082,1.614a6.661,6.661,0,0,0-2.549,5.242H61v.91H72.83v-.91H71.91a6.661,6.661,0,0,0-2.549-5.242c-.691-.63-1.082-1.015-1.082-1.614S68.671,6.781,69.361,6.152Zm-2.9,5.024a2.3,2.3,0,0,0-.415.127l-2.787,1.153a6.208,6.208,0,0,1,1.823-2.4A3.1,3.1,0,0,0,66.46,7.765Zm2.288-1.124a6.209,6.209,0,0,1,1.823,2.4L67.785,11.3a2.3,2.3,0,0,0-.415-.127V7.765A3.1,3.1,0,0,0,68.748,10.051ZM63.242,3.033A6.742,6.742,0,0,1,62.83.91H71a6.741,6.741,0,0,1-.412,2.123Z" transform="translate(-61)" fill="#707070"/>
  </g>
</svg>
