<svg id="_4" data-name="4" xmlns="http://www.w3.org/2000/svg" width="15" height="10.227" viewBox="0 0 15 10.227">
  <path id="Path_1484" data-name="Path 1484" d="M6.045,9.364H4.682A.682.682,0,1,1,4.682,8H6.045a.682.682,0,0,1,0,1.364Z" transform="translate(-1.955 -5.614)" fill="#707070"/>
  <path id="Path_1485" data-name="Path 1485" d="M15.366,5.433a1.2,1.2,0,0,0-1.232.059L11.909,6.976V6.217A1.72,1.72,0,0,0,10.192,4.5H2.717A1.72,1.72,0,0,0,1,6.217V13.01a1.72,1.72,0,0,0,1.718,1.718h7.474a1.72,1.72,0,0,0,1.717-1.718v-.758l2.225,1.483a1.2,1.2,0,0,0,1.866-1V6.492a1.2,1.2,0,0,0-.634-1.058Zm-4.82,7.576a.354.354,0,0,1-.354.354H2.717a.354.354,0,0,1-.354-.354V6.218a.354.354,0,0,1,.354-.354h7.474a.354.354,0,0,1,.354.354Zm4.091-.579-2.727-1.818v-2L14.636,6.8Z" transform="translate(-1 -4.5)" fill="#707070"/>
</svg>
