<svg xmlns="http://www.w3.org/2000/svg" width="91.189" height="96.448" viewBox="0 0 91.189 96.448">
  <g id="creative-writing" transform="translate(-19.633 -6.001)">
    <path id="Path_1510" data-name="Path 1510" d="M66.037,11h66.447V97.538H66.037Z" transform="translate(-37.453 -4.036)" fill="#fcdb35"/>
    <path id="Path_1511" data-name="Path 1511" d="M66.037,11h2.246V97.538H66.037Z" transform="translate(-37.453 -4.036)" fill="#fdc72e"/>
    <path id="Path_1512" data-name="Path 1512" d="M24.648,52.391H77.7L91.1,65.785v73.142H24.648Z" transform="translate(-4.048 -37.441)" fill="#e9e9ff" fill-rule="evenodd"/>
    <path id="Path_1513" data-name="Path 1513" d="M299.681,52.391l13.394,13.394H299.681Z" transform="translate(-226.027 -37.441)" fill="#bcbcf5" fill-rule="evenodd"/>
    <path id="Path_1514" data-name="Path 1514" d="M317.534,156.542l-2,14.484,11.545-8.973,20.864-36.138A5.512,5.512,0,0,0,338.4,120.4l-20.864,36.138Z" transform="translate(-238.824 -90.114)" fill="#2a92fa" fill-rule="evenodd"/>
    <path id="Path_1515" data-name="Path 1515" d="M315.535,174.1l11.545-8.973,20.864-36.138a5.528,5.528,0,0,0-2.017-7.529L315.535,174.1Z" transform="translate(-238.823 -93.186)" fill="#4eb1fc" fill-rule="evenodd"/>
    <path id="Path_1516" data-name="Path 1516" d="M417.026,126.1l9.546,5.512,3.285-5.69a5.512,5.512,0,0,0-9.547-5.512l-3.285,5.69Z" transform="translate(-320.737 -90.122)" fill="#323e66" fill-rule="evenodd"/>
    <path id="Path_1517" data-name="Path 1517" d="M441.772,131.923l4.773,2.756,3.285-5.69a5.528,5.528,0,0,0-2.017-7.529Z" transform="translate(-340.709 -93.187)" fill="#3d4a75" fill-rule="evenodd"/>
    <path id="Path_1518" data-name="Path 1518" d="M0,0H4.534V11.023H0Z" transform="matrix(0.5, -0.866, 0.866, 0.5, 96.289, 35.982)" fill="#e6b17c"/>
    <path id="Path_1519" data-name="Path 1519" d="M0,0H4.534V5.511H0Z" transform="matrix(0.5, -0.866, 0.866, 0.5, 101.062, 38.738)" fill="#f9c795"/>
    <g id="Group_1573" data-name="Group 1573" transform="translate(38.392 42.088)">
      <path id="Path_1520" data-name="Path 1520" d="M317.533,319.261l-2,14.485,11.545-8.973Z" transform="translate(-277.215 -294.921)" fill="#e6b17c" fill-rule="evenodd"/>
      <path id="Path_1521" data-name="Path 1521" d="M315.535,345.277,327.08,336.3l-4.773-2.756Z" transform="translate(-277.215 -306.452)" fill="#f9c795" fill-rule="evenodd"/>
      <path id="Path_1522" data-name="Path 1522" d="M316.389,362.277l-.854,6.187,4.931-3.833Z" transform="translate(-277.215 -329.639)" fill="#3d4a75" fill-rule="evenodd"/>
      <path id="Path_1523" data-name="Path 1523" d="M140.031,227.963a2.724,2.724,0,0,1-2.716,2.716h-10a2.724,2.724,0,0,1-2.716-2.716v-1.441c0-7.474-7.716-9.574-7.716-19.619,0-9.216,7.716-13.824,15.432-13.824s15.432,4.608,15.432,13.824c0,10.045-7.716,12.144-7.716,19.619Z" transform="translate(-116.883 -193.079)" fill="#f9ac00" fill-rule="evenodd"/>
      <path id="Path_1524" data-name="Path 1524" d="M155.056,228.313a2.724,2.724,0,0,1-2.716,2.716h-6.409a2.724,2.724,0,0,1-2.716-2.716v-1.441c0-7.474-7.716-9.574-7.716-19.619,0-8.5,6.563-13.08,13.636-13.74,7.073.661,13.636,5.241,13.636,13.74,0,10.045-7.716,12.144-7.716,19.619v1.441Z" transform="translate(-131.908 -193.429)" fill="#fdc72e" fill-rule="evenodd"/>
      <path id="Path_1525" data-name="Path 1525" d="M175.487,375.945h8.254v3.835a2.085,2.085,0,0,1-2.078,2.078h-4.1a2.085,2.085,0,0,1-2.078-2.078Z" transform="translate(-164.182 -340.671)" fill="#5d689e" fill-rule="evenodd"/>
      <path id="Path_1526" data-name="Path 1526" d="M188.4,375.945h5.764v3.835a2.085,2.085,0,0,1-2.078,2.078h-1.607a2.085,2.085,0,0,1-2.078-2.078Z" transform="translate(-174.603 -340.671)" fill="#7986bf" fill-rule="evenodd"/>
      <path id="Path_1527" data-name="Path 1527" d="M172.314,367.891a2.724,2.724,0,0,1-2.716,2.716h-10a2.724,2.724,0,0,1-2.716-2.716V366.45h15.432v1.441Z" transform="translate(-149.166 -333.007)" fill="#7986bf" fill-rule="evenodd"/>
      <path id="Path_1528" data-name="Path 1528" d="M187.34,367.891a2.724,2.724,0,0,1-2.712,2.716h-6.412a2.724,2.724,0,0,1-2.716-2.716V366.45H187.34Z" transform="translate(-164.192 -333.007)" fill="#909cd1" fill-rule="evenodd"/>
    </g>
    <path id="Path_1529" data-name="Path 1529" d="M24.648,52.391h2.246v86.536H24.648Z" transform="translate(-4.048 -37.441)" fill="#d1d1f0"/>
    <path id="Path_1530" data-name="Path 1530" d="M106.616,29.108a4.559,4.559,0,0,0-6.206,1.665l-.539.927,7.881,4.547.53-.928A4.544,4.544,0,0,0,106.616,29.108ZM94.071,63.8l-4.986,8.617a.919.919,0,0,1-.236.279l-.842.65V92.537h6.064Zm-7.985,36.717V74.85L77.3,81.674a.962.962,0,0,1-1.542-.893l2-14.484a.937.937,0,0,1,.123-.351l8.212-14.217V29.309H73.654a.961.961,0,0,1-.965-.965V15.914H21.563v84.607ZM29.548,13.985V7.93H94.071V37.9L88.006,48.388V28.344a.961.961,0,0,0-.274-.682l-13.4-13.4a.969.969,0,0,0-.681-.281Zm75.932,26.19-7.871-4.549,1.3-2.255,7.881,4.547Zm-.965,1.671L87.9,70.622l-3.1-1.791,16.613-28.778ZM86.531,72.058,81.564,75.92l-2.961-1.7.861-6.235,7.067,4.078ZM77.988,78.7l.341-2.418,1.589.92Zm2.034-12.621L96.644,37.3l3.1,1.792L83.125,67.867Zm-5.4-38.7v-10.1l10.095,10.1Zm35.336,8.9L95.991,60.463V93.5a.961.961,0,0,1-.965.965h-7.02v7.019a.958.958,0,0,1-.956.964H20.6a.966.966,0,0,1-.965-.964V14.949a.966.966,0,0,1,.965-.964h7.02V6.965A.96.96,0,0,1,28.583,6H95.026a.96.96,0,0,1,.965.964V34.559l2.744-4.751a6.478,6.478,0,0,1,11.22,6.476Zm-53.539,26.4A4.858,4.858,0,0,1,54.9,64.9c.369-3.6,1.476-4.783,1.826-4.94C56.88,60.2,57.041,61.108,56.417,62.682Zm11.835-6.755c0,5.071-2.081,7.974-4.087,10.782-1.618,2.256-3.283,4.582-3.567,7.829H54.789V67.053c1.078-.254,2.413-1.137,3.415-3.659.842-2.113.776-3.928-.161-4.852A1.825,1.825,0,0,0,56,58.179c-1.277.535-2.621,2.57-3.028,6.669a7.086,7.086,0,0,1-2.46-4.8.962.962,0,1,0-1.9.3c.511,3.3,2.2,5.871,4.248,6.593v7.6H47.041c-.284-3.247-1.94-5.573-3.557-7.829-2.015-2.808-4.1-5.712-4.1-10.782,0-8.816,7.483-12.83,14.437-12.83s14.428,4.014,14.428,12.83Zm-7.7,21.014a1.742,1.742,0,0,1-1.741,1.746H48.829a1.748,1.748,0,0,1-1.741-1.746v-.475H60.551v.475Zm-3.576,4.217a1.112,1.112,0,0,1-1.107,1.109H51.781a1.114,1.114,0,0,1-1.116-1.109v-.542h6.31v.542ZM70.182,55.927c0,5.691-2.365,8.993-4.456,11.905-1.741,2.429-3.245,4.525-3.245,7.67v1.439a3.669,3.669,0,0,1-3.576,3.669v.548A3.041,3.041,0,0,1,55.868,84.2H51.781a3.049,3.049,0,0,1-3.046-3.038V80.61a3.675,3.675,0,0,1-3.576-3.669V75.5c0-3.145-1.5-5.241-3.245-7.67-2.091-2.913-4.456-6.215-4.456-11.905a13.7,13.7,0,0,1,5.175-11.1,17.95,17.95,0,0,1,11.192-3.659,17.923,17.923,0,0,1,11.183,3.659,13.671,13.671,0,0,1,5.175,11.1ZM53.825,38.62a.961.961,0,0,1-.965-.965V33.2a.965.965,0,0,1,1.93,0v4.452A.967.967,0,0,1,53.825,38.62ZM34.193,54.527a.965.965,0,0,1-.095,1.924c-.038,0-.066,0-.1,0L29.567,56a.964.964,0,0,1,.189-1.919l4.437.448Zm35.194-15.7a.963.963,0,1,1,1.428,1.292l-2.98,3.3a.967.967,0,0,1-.719.318.945.945,0,0,1-.643-.251.97.97,0,0,1-.076-1.362l2.99-3.3Zm9.555,16.117A.968.968,0,0,1,78.082,56l-4.437.448c-.028,0-.066,0-.095,0a.965.965,0,0,1-.095-1.924l4.428-.448a.967.967,0,0,1,1.06.862ZM39.813,43.422l-2.99-3.3a.963.963,0,1,1,1.429-1.292l2.99,3.3a.964.964,0,1,1-1.428,1.3Z" transform="translate(0)" fill-rule="evenodd"/>
  </g>
</svg>
