<svg xmlns="http://www.w3.org/2000/svg" width="41.777" height="50.717" viewBox="0 0 41.777 50.717">
  <g id="document" transform="translate(-6.602 -2.907)">
    <g id="Group_1609" data-name="Group 1609" transform="translate(6.602 2.907)">
      <path id="Path_1569" data-name="Path 1569" d="M38.427,49.62a4.035,4.035,0,0,1-1.987.518H14.173a4.4,4.4,0,0,1-4.267-4.5V10.9a4.4,4.4,0,0,1,4.267-4.5H36.44A4.344,4.344,0,0,1,40.62,9.987a1.657,1.657,0,0,0,1.949,1.358,1.743,1.743,0,0,0,1.286-2.058A7.706,7.706,0,0,0,36.44,2.907H14.173A7.8,7.8,0,0,0,6.6,10.9V45.633a7.8,7.8,0,0,0,7.57,7.99H36.44a7.261,7.261,0,0,0,3.532-.923,1.792,1.792,0,0,0,.688-2.356A1.608,1.608,0,0,0,38.427,49.62Z" transform="translate(-6.602 -2.907)" fill="#3ca7c3"/>
      <path id="Path_1570" data-name="Path 1570" d="M17.455,19.5h5.467a1.591,1.591,0,1,0,0-3.182H17.455a1.591,1.591,0,0,0,0,3.182Z" transform="translate(-8.127 -4.553)" fill="#3ca7c3"/>
      <path id="Path_1571" data-name="Path 1571" d="M30.325,24.25H17.455a1.591,1.591,0,1,0,0,3.182h12.87a1.591,1.591,0,1,0,0-3.182Z" transform="translate(-7.989 -5.527)" fill="#3ca7c3"/>
      <path id="Path_1572" data-name="Path 1572" d="M30.325,32.18H17.455a1.591,1.591,0,1,0,0,3.182h12.87a1.591,1.591,0,0,0,0-3.182Z" transform="translate(-7.989 -6.501)" fill="#3ca7c3"/>
      <path id="Path_1573" data-name="Path 1573" d="M30.325,40.109H17.455a1.591,1.591,0,0,0,0,3.182h12.87a1.591,1.591,0,0,0,0-3.182Z" transform="translate(-7.989 -7.474)" fill="#3ca7c3"/>
    </g>
    <path id="Path_1574" data-name="Path 1574" d="M48.367,15.944A5.972,5.972,0,0,0,42.4,21.909v18.56a2.281,2.281,0,0,0,.666,1.606l3.694,3.694a2.27,2.27,0,0,0,3.212,0l3.694-3.694a2.285,2.285,0,0,0,.666-1.606V21.909A5.972,5.972,0,0,0,48.367,15.944Zm0,3.182a2.786,2.786,0,0,1,2.783,2.783v.822H45.584v-.822A2.786,2.786,0,0,1,48.367,19.126Zm0,23.748-2.783-2.783V25.913H51.15V40.092Z" transform="translate(-5.952 1.759)" fill="#ffb300"/>
  </g>
</svg>
