<svg xmlns="http://www.w3.org/2000/svg" xmlns:xlink="http://www.w3.org/1999/xlink" width="371.607" height="371.607" viewBox="0 0 371.607 371.607">
  <defs>
    <clipPath id="clip-path">
      <rect id="Rectangle_193" data-name="Rectangle 193" width="262.766" height="262.766" rx="35.888" transform="translate(185.803 0) rotate(45)" fill="none"/>
    </clipPath>
    <linearGradient id="linear-gradient" x1="0.273" y1="0.73" x2="0.834" y2="0.099" gradientUnits="objectBoundingBox">
      <stop offset="0" stop-color="#e9be6d"/>
      <stop offset="0.913" stop-color="#e1a154"/>
    </linearGradient>
  </defs>
  <g id="Group_1652" data-name="Group 1652" transform="translate(-255.83 -135.088)">
    <rect id="Rectangle_192" data-name="Rectangle 192" width="262.766" height="262.766" rx="35.888" transform="translate(441.634 135.088) rotate(45)" fill="#ffebbd"/>
    <g id="Group_1636" data-name="Group 1636" transform="translate(351.036 162.802)">
      <path id="Path_1581" data-name="Path 1581" d="M344.025,186.9H317v-5.685l9.7-9.812q4.31-4.416,5.633-6.121a13.461,13.461,0,0,0,1.9-3.16,8.031,8.031,0,0,0,.583-3.014,4.4,4.4,0,0,0-1.283-3.466,4.976,4.976,0,0,0-3.424-1.135,9.847,9.847,0,0,0-4.364,1.031,22.476,22.476,0,0,0-4.416,2.936l-4.444-5.264a28.9,28.9,0,0,1,4.734-3.436,17.3,17.3,0,0,1,4.1-1.547,20.977,20.977,0,0,1,4.971-.543,14.7,14.7,0,0,1,6.4,1.322,10.217,10.217,0,0,1,4.311,3.7,9.828,9.828,0,0,1,1.533,5.448,13.311,13.311,0,0,1-.939,5.011,19.2,19.2,0,0,1-2.908,4.8,70.989,70.989,0,0,1-6.943,7.008l-4.971,4.681v.371h16.845Z" transform="translate(-316.893 -147.684)" fill="#f6fcf7"/>
    </g>
    <g id="Group_1651" data-name="Group 1651" transform="translate(255.831 135.088)">
      <g id="Group_1650" data-name="Group 1650" clip-path="url(#clip-path)">
        <g id="Group_1649" data-name="Group 1649" transform="translate(91.323 75.842)">
          <g id="Group_1639" data-name="Group 1639" transform="translate(61.407 97.962)">
            <g id="Group_1638" data-name="Group 1638">
              <g id="Group_1637" data-name="Group 1637">
                <path id="Path_1582" data-name="Path 1582" d="M382.84,320.61c20.6-.65,35.737-14.9,38.124-24.3-4.988-2.919-11.276-4.038-18.474-6.372l-1.534-48.552-31.685,1,1.519,48.056s-13.4,3.4-17,4.213C355.665,302.923,360.542,321.314,382.84,320.61Z" transform="translate(-353.788 -241.383)" fill="#e9be6d"/>
              </g>
            </g>
          </g>
          <path id="Path_1583" data-name="Path 1583" d="M321.9,328.807l18.841,85.317s-8.182,53.736-8.717,62.216S368,486.685,402.13,489.054,473.8,482.9,473.8,482.9s1.286-124.105-4.483-144.811-38.566-63.718-38.566-63.718-3.39,21.415-22.9,20.186-33.831-20.087-33.831-20.087Z" transform="translate(-310.213 -124.974)" fill="#075696"/>
          <path id="Path_1584" data-name="Path 1584" d="M444.246,329.9s10.317,35.142,6.212,38.759-55.864,18.724-72.022,16.073-13.044-3.474-20.472-11.9-36.383,4.238-36.383,4.238,2.453,9.54,3.839,13.505-1.444,4.891.572,7.178.614,4.791,1.863,6.207.494,4.96,11.062,5.625,19.235-4.094,29.078-1.639,97.55-2.78,105.324-3.773c10.529-1.342,16.617-20.854,17.185-29.864s-3.059-58.343-3.059-58.343Z" transform="translate(-310.389 -101.718)" fill="#e9be6d"/>
          <path id="Path_1585" data-name="Path 1585" d="M348.619,320.593l-.887,14.092L329.557,378.16l-9.095,5.045s-9.105-23.906-1.961-55.258C323.872,304.372,348.619,320.593,348.619,320.593Z" transform="translate(-313.641 -102.173)" fill="#d19d52"/>
          <path id="Path_1586" data-name="Path 1586" d="M378.208,274.438s-33.43,5.281-46.349,16.669c-10.429,9.193-17.085,60.571-17.456,66.454,0,0,28.933,5.588,39.631-3.842C369.578,340.016,378.208,274.438,378.208,274.438Z" transform="translate(-314.403 -124.938)" fill="#07487c"/>
          <path id="Path_1587" data-name="Path 1587" d="M391.95,274.374s39.8,11.435,45.784,18.222,14.421,49.642,13.781,59.8c0,0-23.641,22.938-44.975,20.78l-15.253-29.962Z" transform="translate(-271.413 -124.974)" fill="#07487c"/>
          <path id="Path_1588" data-name="Path 1588" d="M396.836,286.706,395.4,241.383l-31.684,1,1.456,46.078A104.339,104.339,0,0,0,396.836,286.706Z" transform="translate(-286.828 -143.421)" fill="#e9be6d" opacity="0.4" style="mix-blend-mode: multiply;isolation: isolate"/>
          <g id="Group_1646" data-name="Group 1646" transform="translate(10.425 69.27)">
            <g id="Group_1642" data-name="Group 1642" transform="translate(0 10.509)">
              <g id="Group_1640" data-name="Group 1640">
                <path id="Path_1589" data-name="Path 1589" d="M336.086,229.721s-14.177,1.158-14.974,14.244c-.814,13.387,20.688,12.5,20.688,12.5Z" transform="translate(-321.09 -229.721)" fill="#e9be6d"/>
              </g>
              <g id="Group_1641" data-name="Group 1641" transform="translate(3.914 4.481)" opacity="0.5" style="mix-blend-mode: multiply;isolation: isolate">
                <path id="Path_1590" data-name="Path 1590" d="M337.6,232.6s-12.414.276-14,12.515c0,0,8.968-7.977,16.321-4Z" transform="translate(-323.6 -232.595)" fill="#e9be6d" style="mix-blend-mode: multiply;isolation: isolate"/>
              </g>
            </g>
            <g id="Group_1645" data-name="Group 1645" transform="translate(120.394)">
              <g id="Group_1643" data-name="Group 1643" transform="translate(2.166)">
                <path id="Path_1591" data-name="Path 1591" d="M400.181,223.044s14.135-1.581,17.425,11.111c3.363,12.983-17.91,16.235-17.91,16.235Z" transform="translate(-399.696 -222.981)" fill="#e9be6d"/>
              </g>
              <g id="Group_1644" data-name="Group 1644" transform="translate(0 4.872)" style="mix-blend-mode: multiply;isolation: isolate">
                <path id="Path_1592" data-name="Path 1592" d="M398.948,226.253s12.238-2.106,16.142,9.6c0,0-10.331-6.11-16.783-.8Z" transform="translate(-398.307 -226.105)" fill="#e9be6d"/>
              </g>
            </g>
          </g>
          <path id="Path_1593" data-name="Path 1593" d="M384.654,193.315s-46.369,1.285-53.141,37.13c-7.858,41.6,11.7,90.149,64.323,82.928,48.926-6.714,55.04-44.32,38.182-95.537A33.115,33.115,0,0,0,411.57,196.23C404.894,194.365,396.081,193.057,384.654,193.315Z" transform="translate(-305.771 -170.317)" fill="#e9be6d"/>
          <path id="Path_1594" data-name="Path 1594" d="M411.562,196.23c-6.676-1.865-15.489-3.173-26.916-2.916a67.362,67.362,0,0,0-7.646.809c1.693.761,2.925,1.233,2.925,1.233-2.018-.3-4.026-.521-6.025-.691-14.129,2.743-37.714,11-42.395,35.778a96.378,96.378,0,0,0-1.651,17.1c8.048,2.951,18.365,4.132,31.122,2.1C387.04,245.5,410.663,221.92,420,223.437s16.578,40.037,16.578,40.037,4.629-.619,4.961-1.378c.108-.248.407-2.284.766-5.091-.711-11.761-3.613-24.937-8.3-39.171A33.115,33.115,0,0,0,411.562,196.23Z" transform="translate(-305.763 -170.317)" fill="#e9be6d" opacity="0.58" style="mix-blend-mode: multiply;isolation: isolate"/>
          <g id="Group_1647" data-name="Group 1647" transform="translate(75.827 85.517)">
            <path id="Path_1595" data-name="Path 1595" d="M368,253.386a5.5,5.5,0,0,1-3.475-.253,2.743,2.743,0,0,1-1.41-2c-.514-2.724,1.512-4.019,2.855-4.875.56-.357,1.191-.762,1.264-1.054.246-.976-.92-7.309-1.712-11.073a.6.6,0,0,1,.461-.709.562.562,0,0,1,.709.463c.352,1.67,2.088,10.081,1.7,11.609-.189.755-.928,1.225-1.782,1.773-1.321.843-2.688,1.715-2.323,3.645a1.549,1.549,0,0,0,.8,1.168c1.358.722,4.062-.154,4.986-.557a.6.6,0,0,1,.474,1.1A13.357,13.357,0,0,1,368,253.386Z" transform="translate(-363.036 -233.402)" fill="#2b2e5b"/>
          </g>
          <path id="Path_1596" data-name="Path 1596" d="M355.159,236.438c.264,2.719-1.163,5.083-3.185,5.278s-3.876-1.849-4.138-4.57,1.163-5.081,3.185-5.278S354.9,233.719,355.159,236.438Z" transform="translate(-295.727 -148.748)" fill="#2b2e5b"/>
          <path id="Path_1597" data-name="Path 1597" d="M382.634,232.62c.262,2.719-1.163,5.081-3.187,5.278s-3.874-1.851-4.138-4.57,1.165-5.083,3.187-5.278S382.371,229.9,382.634,232.62Z" transform="translate(-280.365 -150.884)" fill="#2b2e5b"/>
          <path id="Path_1598" data-name="Path 1598" d="M392.385,224.887a23.646,23.646,0,0,0-12.949-2.044c-6.723,1.1-8.6,1.581-5.859-1.48,4.442-4.953,10.529-3.9,14.859-2.554S395.743,225.171,392.385,224.887Z" transform="translate(-281.995 -156.671)" fill="#2b2e5b"/>
          <path id="Path_1599" data-name="Path 1599" d="M341.411,233.572a23.658,23.658,0,0,1,12.709-3.217c6.795.485,8.711.789,5.7-2.008-4.875-4.528-10.842-2.927-15.03-1.188S338.092,234.163,341.411,233.572Z" transform="translate(-300.158 -152.357)" fill="#2b2e5b"/>
          <g id="Group_1648" data-name="Group 1648" transform="translate(156.156 33.853)">
            <path id="Path_1600" data-name="Path 1600" d="M429.852,238.883a8.34,8.34,0,0,0-5.8-1.4,9.73,9.73,0,0,0-3.72.884,7.005,7.005,0,0,0-2.476,1.93,7.206,7.206,0,0,0-1.321,2.623,9.115,9.115,0,0,0-.3,2.942,7.527,7.527,0,0,0,.723,3,5.371,5.371,0,0,0,1.637,1.972,6.284,6.284,0,0,0,2.4,1.06,10.717,10.717,0,0,0,3.053.214,10.275,10.275,0,0,0,3.5-.744,7.827,7.827,0,0,0,2.322-1.508,6.41,6.41,0,0,0,1.363-1.883,9.5,9.5,0,0,0,.661-1.88,7.386,7.386,0,0,0,.2-1.545c0-.443,0-.719,0-.829A6.29,6.29,0,0,0,429.852,238.883Z" transform="translate(-413.631 -179.469)" fill="#14245e"/>
            <path id="Path_1601" data-name="Path 1601" d="M448.994,214.573a13.735,13.735,0,0,0-2.042-6.778,15.088,15.088,0,0,0-4.445-4.529,17.308,17.308,0,0,0-5.738-2.431,19.925,19.925,0,0,0-10.412.253,21.217,21.217,0,0,0-4.37,1.8,19.41,19.41,0,0,0-3.854,2.769,16.883,16.883,0,0,0-3.008,3.655,3.607,3.607,0,0,0-.561,2.028,6.834,6.834,0,0,0,.547,2.378,7.168,7.168,0,0,0,1.154,1.848,4.874,4.874,0,0,0,1.547,1.194,3.484,3.484,0,0,0,1.724.368,4.82,4.82,0,0,0,1.988-.564,4.724,4.724,0,0,0,1.659-1.523,5.788,5.788,0,0,1,.817-1.57,12.726,12.726,0,0,1,1.611-1.943,13.211,13.211,0,0,1,2.036-1.664,4.384,4.384,0,0,1,2.136-.781,9.948,9.948,0,0,1,2.733.229,7.345,7.345,0,0,1,2.541,1.091A6.582,6.582,0,0,1,437,212.471a6.919,6.919,0,0,1,.893,3.21,12.544,12.544,0,0,1-.987,6.009,21.861,21.861,0,0,1-3.047,4.893,53.359,53.359,0,0,1-4.073,4.423,37.832,37.832,0,0,0-4.063,4.676,22.805,22.805,0,0,0-3,5.65,17.665,17.665,0,0,0-.911,7.247,2.4,2.4,0,0,0,1.327,2.175,5.52,5.52,0,0,0,2.825.521,3.981,3.981,0,0,0,2.671-1.3,7.268,7.268,0,0,0,1.729-3.419,17.142,17.142,0,0,1,3.076-4.812q1.92-2.114,4.087-4.083t4.331-4.021a25.4,25.4,0,0,0,3.857-4.707,21.659,21.659,0,0,0,2.629-6.1A25.947,25.947,0,0,0,448.994,214.573Z" transform="translate(-414.558 -200.265)" fill="#14245e"/>
          </g>
          <path id="Path_1602" data-name="Path 1602" d="M444.529,261.648s-7.238-38.519-16.578-40.037-32.964,22.064-59.026,26.211c-38.907,6.193-55.259-17.374-53.091-30.511,2.245-13.591,35.99-29.092,72.039-23.78,0,0-12.035-4.606-12.755-8.348-2.605-13.529,40.278-5.873,64.744,18.593,0,0,3.895-11.779,6.834-10.624,2.87,1.126-2.166,12.143-2.166,12.143s10.128-2.571,11.3,0c1.148,2.513-9.135,4.807-9.135,4.807s5.878,16.823,5.451,26.736c-.226,5.278-2.323,22.673-2.655,23.432S444.529,261.648,444.529,261.648Z" transform="translate(-313.709 -178.553)" fill="#14245e"/>
          <path id="Path_1603" data-name="Path 1603" d="M333.348,257.158s-.889-34.782,7.434-44.261l-10.626-5.186s-4.89,16.95.6,42.342Z" transform="translate(-306.716 -162.249)" fill="#14245e"/>
          <path id="Path_1604" data-name="Path 1604" d="M436.41,232.342s2.05,22.963-5.523,27.51c-16.854,10.119-22.124-2.626-43.291,1.9-15.47,3.305-18.007,9.133-29.378,12.712-11.638,3.662-25.8-25.489-28.055-37.541,0,0,6.564,49.293,28.593,61,9.771,5.2,22.55,6.26,39.022,4.047,14.845-1.993,26.552-5.42,33.2-13.533,17.377-21.2,10.389-57.475,10.389-57.475Z" transform="translate(-305.591 -149.247)" fill="#14245e"/>
          <path id="Path_1605" data-name="Path 1605" d="M382.061,254.735s-19.164,1.327-23.337,8.727,8.918,9.109,21.63,7.4S400.465,253.976,382.061,254.735Z" transform="translate(-290.063 -135.971)" fill="#e9be6d"/>
          <path id="Path_1606" data-name="Path 1606" d="M365.78,265.028s6.171-8.586,11.333-8.6,5.275,3.362,5.275,3.362" transform="translate(-285.676 -135.007)" fill="none" stroke="#2b2e5b" stroke-linecap="round" stroke-linejoin="round" stroke-width="0.75"/>
          <path id="Path_1607" data-name="Path 1607" d="M347.123,266.8S360.706,306.42,391.1,306.42s33.916-34.314,33.916-34.314" transform="translate(-296.108 -129.211)" fill="none"/>
          <path id="Path_1608" data-name="Path 1608" d="M381.291,256.819c8.745-.36,11.656,2.878,10.948,6.559,2.356-4.434.184-9.073-10.194-8.644,0,0-19.164,1.327-23.337,8.727a5.881,5.881,0,0,0-.747,2.074C362.15,258.146,381.291,256.819,381.291,256.819Z" transform="translate(-290.047 -135.971)" fill="#e9be6d" opacity="0.5" style="mix-blend-mode: multiply;isolation: isolate"/>
          <path id="Path_1609" data-name="Path 1609" d="M435.686,296.315c5.342,6.06,12.637,40.861,13.683,55.482l.1-.1c.639-10.161-7.8-53.016-13.781-59.8s-39.311-16.279-39.311-16.279l-1.427,3.977S429.7,289.528,435.686,296.315Z" transform="translate(-269.366 -124.278)" fill="#d3f0d1" opacity="0.37"/>
          <path id="Path_1610" data-name="Path 1610" d="M388.858,302.183c20.571,0,28.824-15.707,32.016-25.866-3.912-1.207-6.474-1.943-6.474-1.943s-3.39,21.415-22.9,20.186-33.831-20.087-33.831-20.087-2.562.405-6.531,1.23C357.869,287.237,370.187,302.183,388.858,302.183Z" transform="translate(-293.863 -124.974)" fill="#69b942" opacity="0.3" style="mix-blend-mode: multiply;isolation: isolate"/>
          <path id="Path_1611" data-name="Path 1611" d="M387.778,308.8s-9.483,27.438-29.5,45.086-37.953,32.165-40.56,45.588c-1.743,8.976,5.295,26.192,19.235,25.166s23.507-10.385,35.765-27.895,27.449-66.476,35.369-73.459,18.817-18,17.317-23.328-.635-9.358-4.119-11.277-.433-6.081-3.642-6.963,1.512-9.971-.859-11.209-6.717.292-16.259,8.7-7.563,2.379-7.45.55-1.236-15.994-9.185-16.154c0,0-4.5.26-2.4,3.522a15.914,15.914,0,0,1,2.892,9.16c-.162,2.574-3.276,14.213-.476,20.511S389.295,306.3,387.778,308.8Z" transform="translate(-312.697 -130.992)" fill="url(#linear-gradient)"/>
          <path id="Path_1612" data-name="Path 1612" d="M333.939,292.067c10.844-8.968,30.885-12.7,39.451-14.032l-1.714-2.808s-26.9,4.715-39.818,15.439c-10.7,8.879-17.085,60.571-17.456,66.454l.09.017C315.549,348.492,323.607,300.615,333.939,292.067Z" transform="translate(-314.403 -124.497)" fill="#d3f0d1" opacity="0.37"/>
          <path id="Path_1613" data-name="Path 1613" d="M358.3,265.347a3.214,3.214,0,0,1,3.338-.875,5.406,5.406,0,0,1,3.078,3.337c0,.616-3.176,1.685-3.759,1.523S358.3,265.347,358.3,265.347Z" transform="translate(-289.861 -130.62)" fill="#fccf86"/>
        </g>
      </g>
    </g>
  </g>
</svg>
