<svg xmlns="http://www.w3.org/2000/svg" xmlns:xlink="http://www.w3.org/1999/xlink" width="1279.93" height="157.164" viewBox="0 0 1279.93 157.164">
  <defs>
    <linearGradient id="linear-gradient" x1="-0.001" y1="0.545" x2="0.996" y2="0.455" gradientUnits="objectBoundingBox">
      <stop offset="0" stop-color="#07487c"/>
      <stop offset="0.193" stop-color="#3ca7c3"/>
      <stop offset="0.402" stop-color="#0071cb"/>
      <stop offset="0.686" stop-color="#ffb300"/>
      <stop offset="0.842" stop-color="#fec100"/>
      <stop offset="1" stop-color="#e95301"/>
    </linearGradient>
    <linearGradient id="linear-gradient-2" x1="0.5" y1="-0.018" x2="0.5" y2="2.176" gradientUnits="objectBoundingBox">
      <stop offset="0" stop-color="#fff"/>
      <stop offset="0.16" stop-color="#fafafb"/>
      <stop offset="0.339" stop-color="#eceef1"/>
      <stop offset="0.528" stop-color="#d6dbe0"/>
      <stop offset="0.723" stop-color="#b7bfc9"/>
      <stop offset="0.921" stop-color="#8f9bab"/>
      <stop offset="1" stop-color="#7d8c9e"/>
    </linearGradient>
  </defs>
  <g id="Group_43261" data-name="Group 43261" transform="translate(-536.406 -422.323)">
    <g id="Group_1592" data-name="Group 1592" transform="translate(536.406 422.323)">
      <g id="Group_1591" data-name="Group 1591">
        <path id="Path_1563" data-name="Path 1563" d="M1252.413,234.772h-.005a76.638,76.638,0,0,1-55.455-23.35l-.564-.579c-10.88-11.208-16.868-17.383-56.016-17.383s-45.335,6.384-55.608,16.959c-.37.427-.771.848-1.177,1.259-.582.584-1.277,1.226-2.185,2.017a76.752,76.752,0,0,1-53.076,21.072h-.479a76.943,76.943,0,0,1-52.934-20.948c-1.024-.895-1.7-1.52-2.332-2.146-.409-.411-.8-.838-1.187-1.272-10.252-10.559-16.447-16.941-55.59-16.941s-45.082,6.115-55.864,17.22l-1.179,1.443-1.019.776a76.369,76.369,0,0,1-53.969,21.864h-.553a76.705,76.705,0,0,1-54.558-22.451l-1.725-1.753c-10.7-11.017-16.6-17.1-55.745-17.1s-45.105,6.141-55.923,17.292l-.8.954-.923.778a76.487,76.487,0,0,1-54.4,22.283h-.528a76.771,76.771,0,0,1-54.46-22.35l-1.562-1.572c-10.883-11.214-16.873-17.385-56.016-17.385s-45.126,6.161-55.975,17.344l-.476.548-1.125,1.052a76.594,76.594,0,0,1-54.46,22.363h-.53a76.765,76.765,0,0,1-54.413-22.321c-.266-.246-1.339-1.306-1.339-1.306l-.274-.305c-10.865-11.2-16.855-17.375-56.009-17.375s-45.134,6.174-56.011,17.38l-.571.582a76.6,76.6,0,0,1-55.45,23.35,78.582,78.582,0,1,1,0-157.164,76.635,76.635,0,0,1,55.455,23.345l.564.579c10.875,11.211,16.863,17.388,56.014,17.388S287.13,112.743,298,101.532l.556-.592c.016-.016.908-.877,1.1-1.045a76.721,76.721,0,0,1,54.369-22.28h.53a76.722,76.722,0,0,1,54.421,22.329c.264.238,1.337,1.3,1.337,1.3l.277.31c10.865,11.2,16.855,17.37,56,17.37s45.126-6.161,55.983-17.349l.109-.132,1.5-1.492a76.492,76.492,0,0,1,54.444-22.332h.53a76.728,76.728,0,0,1,54.53,22.414l1.608,1.629c10.8,11.12,16.755,17.261,55.9,17.261s45.141-6.174,56.017-17.383l1.414-1.432a76.393,76.393,0,0,1,54.6-22.489h.553a76.7,76.7,0,0,1,54.8,22.681l1.215,1.238c10.878,11.211,16.871,17.385,56.016,17.385s45.346-6.394,55.626-16.985c.321-.362.649-.719.993-1.068.76-.758,1.45-1.4,2.322-2.159a76.806,76.806,0,0,1,53.089-21.093h.512A76.9,76.9,0,0,1,1081.523,98.8c.737.626,1.44,1.272,2.074,1.906.411.414.812.838,1.195,1.275,10.244,10.557,16.431,16.938,55.582,16.938s45.142-6.174,56.014-17.385l.566-.582a76.626,76.626,0,0,1,55.455-23.345,78.582,78.582,0,1,1,.005,157.164Zm-112.041-42.091c39.476,0,45.547,6.257,56.57,17.618l.566.582a75.867,75.867,0,0,0,54.9,23.112h.005a77.805,77.805,0,1,0-.005-155.61,75.862,75.862,0,0,0-54.9,23.11l-.564.579c-11.022,11.364-17.091,17.623-56.572,17.623s-45.752-6.469-56.151-17.189c-.385-.437-.776-.851-1.176-1.254-.615-.615-1.3-1.246-2.04-1.875a76.148,76.148,0,0,0-52.658-20.987h-.512a76.036,76.036,0,0,0-52.565,20.891c-.62.535-1.363,1.2-2.3,2.128-.328.339-.652.685-.975,1.052-10.435,10.751-16.729,17.233-56.195,17.233s-45.547-6.26-56.567-17.618l-1.218-1.236a75.926,75.926,0,0,0-54.245-22.45h-.553a75.621,75.621,0,0,0-54.046,22.259l-1.412,1.43c-11.017,11.356-17.091,17.615-56.57,17.615s-45.511-6.223-56.474-17.52l-.168-.2-1.412-1.394a75.951,75.951,0,0,0-53.982-22.189h-.53a75.734,75.734,0,0,0-53.9,22.1l-1.585,1.6c-11.022,11.358-17.083,17.605-56.557,17.605s-45.545-6.26-56.567-17.618l-.271-.3s-1.042-1.024-1.308-1.27a75.97,75.97,0,0,0-53.888-22.114h-.53a75.96,75.96,0,0,0-53.837,22.068c-.2.181-1.076,1.024-1.076,1.024l-.548.584c-11.025,11.369-17.1,17.628-56.575,17.628s-45.55-6.26-56.57-17.621l-.564-.582a75.866,75.866,0,0,0-54.9-23.11,77.805,77.805,0,1,0,0,155.61,75.838,75.838,0,0,0,54.894-23.112l.569-.579c11.025-11.364,17.1-17.621,56.57-17.621s45.553,6.26,56.572,17.626l.269.3s1.05,1.029,1.316,1.28a75.993,75.993,0,0,0,53.878,22.1h.53a75.821,75.821,0,0,0,53.919-22.143l1.109-1.032.46-.535c11.009-11.353,17.067-17.6,56.546-17.6s45.542,6.257,56.565,17.616l1.564,1.572a75.969,75.969,0,0,0,53.909,22.12h.528a75.749,75.749,0,0,0,53.873-22.076l.9-.755.768-.928c10.986-11.322,17.026-17.548,56.5-17.548s45.816,6.536,56.322,17.36l.129.158,1.567,1.562a75.931,75.931,0,0,0,54.01,22.223h.553a75.65,75.65,0,0,0,53.464-21.672l.99-.745,1.133-1.4c10.952-11.281,16.972-17.484,56.443-17.484s45.752,6.472,56.153,17.192c.393.437.776.853,1.171,1.251.618.613,1.282,1.228,2.3,2.118a76.173,76.173,0,0,0,52.415,20.747h.479a75.984,75.984,0,0,0,52.554-20.866c.908-.794,1.588-1.422,2.156-1.994.4-.4.781-.807,1.156-1.236C1094.626,199.156,1100.91,192.681,1140.373,192.681Z" transform="translate(-51.217 -77.608)" fill="#07487c"/>
      </g>
    </g>
    <path id="Path_1564" data-name="Path 1564" d="M1276.946,102.925c-21.411-21.409-56.438-21.721-77.531,0-13.535,13.939-23.7,25.137-73.539,25.137-49.085,0-59.691-10.862-72.929-24.506-.2-.2-.37-.427-.572-.631-.525-.525-1.094-.977-1.634-1.476a54.316,54.316,0,0,0-74.3-.008c-.543.5-1.114.957-1.642,1.484-.2.2-.375.429-.574.636-13.238,13.641-23.847,24.5-72.923,24.5-49.783,0-59.983-11.172-73.495-25.088l-.044-.049c-.039-.039-.083-.072-.124-.111a54.528,54.528,0,0,0-77.275-.01c-.044.044-.091.08-.134.122l-.047.052c-13.51,13.916-23.712,25.085-73.49,25.085-49.757,0-59.972-11.159-73.472-25.067-.023-.023-.041-.047-.065-.07-.059-.059-.124-.106-.181-.163a54.519,54.519,0,0,0-77.164-.01c-.062.062-.129.111-.191.173-.023.023-.041.052-.065.075-13.5,13.9-23.72,25.062-73.469,25.062-49.669,0-59.936-11.121-73.4-24.992-.047-.047-.083-.1-.129-.145-.122-.119-.253-.217-.372-.336a54.482,54.482,0,0,0-76.8,0c-.119.119-.253.217-.372.336-.047.047-.083.1-.129.145-13.466,13.872-23.736,24.992-73.4,24.992-49.839,0-60-11.2-73.539-25.137-21.093-21.721-56.122-21.409-77.531,0a54.82,54.82,0,0,0,0,77.531c21.409,21.409,56.438,21.721,77.531,0,13.535-13.939,23.7-25.137,73.539-25.137,49.666,0,59.936,11.121,73.4,24.992.047.047.083.1.129.145.119.119.253.217.372.336a54.482,54.482,0,0,0,76.8,0c.119-.119.251-.217.372-.336.047-.047.083-.1.129-.145,13.466-13.872,23.733-24.992,73.4-24.992,49.749,0,59.97,11.159,73.469,25.062.023.026.041.052.065.075.062.062.129.111.191.173a54.519,54.519,0,0,0,77.164-.01c.057-.057.121-.1.181-.163.023-.023.042-.047.065-.07,13.5-13.908,23.715-25.067,73.472-25.067,49.777,0,59.98,11.17,73.49,25.085l.047.052c.044.044.091.078.134.122a54.528,54.528,0,0,0,77.275-.01c.041-.039.085-.072.124-.111l.044-.049c13.512-13.915,23.712-25.088,73.495-25.088,49.077,0,59.685,10.859,72.923,24.5.2.207.37.432.574.636.527.527,1.1.983,1.642,1.484a54.316,54.316,0,0,0,74.3-.008c.54-.5,1.109-.952,1.634-1.476.2-.2.372-.427.572-.631,13.238-13.644,23.844-24.506,72.929-24.506,49.837,0,60,11.2,73.539,25.137,21.093,21.721,56.12,21.409,77.531,0A54.825,54.825,0,0,0,1276.946,102.925Z" transform="translate(499.688 359.213)" fill="url(#linear-gradient)"/>
    <g id="Group_1593" data-name="Group 1593" transform="translate(583.824 469.739)">
      <circle id="Ellipse_47" data-name="Ellipse 47" cx="31.165" cy="31.165" r="31.165" fill="url(#linear-gradient-2)"/>
    </g>
    <g id="Group_1594" data-name="Group 1594" transform="translate(808.377 469.739)">
      <circle id="Ellipse_50" data-name="Ellipse 50" cx="31.165" cy="31.165" r="31.165" transform="translate(0)" fill="url(#linear-gradient-2)"/>
    </g>
    <g id="Group_1595" data-name="Group 1595" transform="translate(1032.929 469.739)">
      <circle id="Ellipse_53" data-name="Ellipse 53" cx="31.165" cy="31.165" r="31.165" fill="url(#linear-gradient-2)"/>
    </g>
    <g id="Group_1596" data-name="Group 1596" transform="translate(1256.852 469.739)">
      <circle id="Ellipse_56" data-name="Ellipse 56" cx="31.165" cy="31.165" r="31.165" fill="url(#linear-gradient-2)"/>
    </g>
    <g id="Group_1597" data-name="Group 1597" transform="translate(1482.033 469.739)">
      <circle id="Ellipse_59" data-name="Ellipse 59" cx="31.165" cy="31.165" r="31.165" fill="url(#linear-gradient-2)"/>
    </g>
    <g id="Group_1598" data-name="Group 1598" transform="translate(1706.586 469.739)">
      <circle id="Ellipse_62" data-name="Ellipse 62" cx="31.165" cy="31.165" r="31.165" fill="url(#linear-gradient-2)"/>
    </g>
    <circle id="Ellipse_63" data-name="Ellipse 63" cx="12" cy="12" r="12" transform="translate(1727 489)" fill="#bfbfbf"/>
  </g>
</svg>
