<svg xmlns="http://www.w3.org/2000/svg" width="485.75" height="531.332" viewBox="0 0 485.75 531.332">
  <g id="Group_1708" data-name="Group 1708" transform="matrix(0.985, -0.174, 0.174, 0.985, -31.228, 42.338)">
    <g id="Group_1705" data-name="Group 1705" transform="translate(80.023 94.68)">
      <g id="Group_1704" data-name="Group 1704">
        <path id="Path_1724" data-name="Path 1724" d="M302.889,151.444A151.444,151.444,0,0,0,151.445,0C67.8,0-.287,68.336,0,151.978a150.939,150.939,0,0,0,44.212,106.4,171.885,171.885,0,0,1,44.5,76.4l12.211,45.163H200.2l11.566-42.775a172.275,172.275,0,0,1,45.857-77.733A150.975,150.975,0,0,0,302.889,151.444Z" fill="#ffb300"/>
        <path id="Path_1725" data-name="Path 1725" d="M78.716,73.276h-48.4C16.6,73.276,4.867,63.148,4.085,50.3L0,.7,109.622,0l-4.679,50.3C104.162,63.148,92.429,73.276,78.716,73.276Z" transform="translate(95.66 359.559)" fill="#59595b"/>
      </g>
      <path id="Path_1726" data-name="Path 1726" d="M93.918,0C63.3,1.312,32.565-.257,1.946,1.1c-2.719.12-2.515,4.089.152,4.178,30.644,1.018,61.369-.882,92.016.093C97.553,5.476,97.4-.146,93.918,0Z" transform="translate(101.508 381.185)" fill="#808183"/>
      <path id="Path_1727" data-name="Path 1727" d="M93.918,0C63.3,1.312,32.565-.257,1.946,1.1c-2.719.12-2.515,4.089.152,4.178,30.644,1.018,61.369-.882,92.016.093C97.553,5.477,97.4-.146,93.918,0Z" transform="translate(101.508 394.486)" fill="#808183"/>
    </g>
    <g id="Group_1706" data-name="Group 1706">
      <path id="Path_1728" data-name="Path 1728" d="M23.18,17.671c0,9.759-5.189,44.844-11.59,44.844S0,27.43,0,17.671,5.189,0,11.59,0,23.18,7.911,23.18,17.671Z" transform="translate(220.635 0)" fill="#ffb300"/>
      <path id="Path_1729" data-name="Path 1729" d="M26.957,5.7C19.555,12.058-3.674,38.858.5,43.714S34.662,29.64,42.064,23.28,52.085,7.827,47.914,2.973,34.359-.663,26.957,5.7Z" transform="translate(361.276 65.859)" fill="#ffb300"/>
      <path id="Path_1730" data-name="Path 1730" d="M45.961,23.212c-9.682,1.23-45.14.5-45.947-5.848S33.359,1.446,43.04.216,61.225,3.137,62.03,9.487,55.643,21.982,45.961,23.212Z" transform="translate(398.558 204.915)" fill="#ffb300"/>
      <path id="Path_1731" data-name="Path 1731" d="M22.79,5.087C30.473,11.1,54.9,36.821,50.95,41.861S16.181,29.354,8.5,23.337-2.215,8.356,1.731,3.317,15.106-.93,22.79,5.087Z" transform="translate(66.682 54.817)" fill="#ffb300"/>
      <path id="Path_1732" data-name="Path 1732" d="M16.131,23.211c9.681,1.23,45.141.5,45.947-5.847S28.733,1.446,19.052.216.868,3.138.062,9.487,6.449,21.982,16.131,23.211Z" transform="translate(0 179.832)" fill="#ffb300"/>
    </g>
    <g id="Group_1707" data-name="Group 1707" transform="translate(158.83 246.763)">
      <path id="Path_1733" data-name="Path 1733" d="M126.562,76.471a38.974,38.974,0,0,1-11.406-13.463c5.492-6.781,7.912-15.9,8.918-24.376a152.67,152.67,0,0,0,.872-15.59c.08-5.025-.581-9.294-4.837-12.421-3.794-2.789-8.86-.272-11.773,2.434-3.36,3.122-4.986,8.237-6.283,12.495-2.62,8.6-2.572,17.818-.927,26.584a52.777,52.777,0,0,0,2.532,8.966,23.3,23.3,0,0,1-7.276,3.875C88.108,67.622,81.828,62.855,78,55.8c-.629-1.159-1.226-2.388-1.789-3.666.65-1.743,1.271-3.487,1.851-5.211a108.765,108.765,0,0,0,5.074-25.961c.583-7.293.791-16.009-6.225-20.329-2.256-1.39-4.79-.34-6.208,1.628C60.449,16.486,61.024,35.35,66.593,51.488a107.121,107.121,0,0,1-6.235,12.469c-2.57,4.427-7.477,11.257-13.431,10.39C41.385,73.54,36.954,66.584,34.2,62.28a49.16,49.16,0,0,1-4.854-10.023Q30.4,49.48,31.3,46.635a103.006,103.006,0,0,0,4.3-23c.516-6.5.725-15.621-6.38-18.732-2.068-.905-5.12-.81-6.216,1.629a65.059,65.059,0,0,0-3.5,43.822c.133.5.29.992.438,1.488A96.275,96.275,0,0,1,1.137,81.6c-3.571,3.877,2.082,9.6,5.8,5.8a101.091,101.091,0,0,0,17.6-24.394,63.9,63.9,0,0,0,4.6,7.386c4.641,6.425,10.455,12.442,18.8,12.893,7.8.422,14.131-6.134,18.356-11.833a61.821,61.821,0,0,0,5.377-8.818C75.493,68.72,81,73.546,88.5,74.6c6.9.967,13.592-1.178,19.25-4.966a57.479,57.479,0,0,0,12.59,14.9C126.044,89.3,132.555,80.854,126.562,76.471ZM74.4,13.308c.321,3.629-.519,8.107-.721,10.306a86.665,86.665,0,0,1-2,11.929C70.733,27.81,71.366,19.879,74.4,13.308Zm35.38,22.822A43.138,43.138,0,0,1,112.314,25.1a22.72,22.72,0,0,1,2.2-4.563,9.836,9.836,0,0,1,.715-.884,7.169,7.169,0,0,1,.174,1.1c.484,9.189-.275,19.105-3.135,27.867a27.634,27.634,0,0,1-1.263,3.164A51.772,51.772,0,0,1,109.779,36.13Z" transform="translate(11.439 0)" fill="#fff"/>
      <path id="Path_1734" data-name="Path 1734" d="M51.606,2.633C35.5,51.782,18.551,100.686.34,149.1c-2.179,5.8,6.748,9.346,8.916,3.555C27.4,104.168,44.258,55.244,59.374,5.73,60.933.622,53.292-2.514,51.606,2.633Z" transform="translate(95.009 51.563)" fill="#fff"/>
      <path id="Path_1735" data-name="Path 1735" d="M.15,4.762C13,54.86,25.006,105.206,35.683,155.814c1.279,6.059,10.715,4.252,9.429-1.8C34.342,103.382,22.245,53.07,8.365,3.2,6.933-1.949-1.2-.486.15,4.762Z" transform="translate(0 46.327)" fill="#fff"/>
    </g>
    <g id="Group_1703" data-name="Group 1703" transform="translate(392.941 164.733) rotate(31)">
      <g id="Group_1665" data-name="Group 1665" transform="translate(0 123.09)">
        <g id="Group_1664" data-name="Group 1664">
          <g id="Group_1658" data-name="Group 1658" transform="translate(91.833 0)">
            <g id="Group_1655" data-name="Group 1655">
              <g id="Group_1654" data-name="Group 1654">
                <path id="Path_1614" data-name="Path 1614" d="M5.44,0S43.606,13.463,43.606,105.132h-1.96L9.873,66.7,0,66.059Z" transform="translate(0.671 0.671)" fill="#fff"/>
                <path id="Path_1615" data-name="Path 1615" d="M44.3,106.475a.071.071,0,0,1-.025,0h-1.96a.674.674,0,0,1-.519-.244L10.21,68.025.627,67.4A.67.67,0,0,1,0,66.677L5.443.616A.672.672,0,0,1,6.334.037C6.733.178,16.2,3.652,25.757,18.5,34.5,32.082,44.919,58.22,44.946,105.615a.651.651,0,0,1,.027.188A.671.671,0,0,1,44.3,106.475Zm-1.67-1.343H43.6C43.433,23.032,12.188,4.311,6.7,1.663L1.4,66.105l9.189.6a.676.676,0,0,1,.476.242Z" fill="#b3b5b8"/>
              </g>
            </g>
            <g id="Group_1656" data-name="Group 1656" transform="translate(0.671 0.671)">
              <path id="Path_1616" data-name="Path 1616" d="M24.471,27.938c-2.574-4.867-3.8-10.462-4.5-16.034C12.164,2.376,5.44,0,5.44,0L0,66.059l9.873.643,31.773,38.43h1.4C42.167,100.953,38.819,55.051,24.471,27.938Z" fill="#adafb2" opacity="0.7" style="mix-blend-mode: multiply;isolation: isolate"/>
            </g>
            <g id="Group_1657" data-name="Group 1657" transform="translate(0.671 0.671)">
              <path id="Path_1617" data-name="Path 1617" d="M17.373,8.956C10.734,1.88,5.44,0,5.44,0L0,66.059l9.873.643,7.5,9.076Z" fill="#adafb2" opacity="0.7" style="mix-blend-mode: multiply;isolation: isolate"/>
            </g>
          </g>
          <g id="Group_1663" data-name="Group 1663">
            <g id="Group_1660" data-name="Group 1660">
              <g id="Group_1659" data-name="Group 1659">
                <path id="Path_1618" data-name="Path 1618" d="M38.163,0S0,13.463,0,105.132H1.96L33.733,66.7l9.87-.643Z" transform="translate(0.671 0.671)" fill="#fff"/>
                <path id="Path_1619" data-name="Path 1619" d="M2.632,106.475H.671A.671.671,0,0,1,0,105.8C0,79.577,3.329,43.139,19.187,18.5,28.743,3.652,38.213.178,38.611.037A.671.671,0,0,1,39.5.616l5.44,66.061a.671.671,0,0,1-.625.724l-9.58.625L3.149,106.231A.674.674,0,0,1,2.632,106.475Zm-1.289-1.343h.973L33.887,66.946a.672.672,0,0,1,.474-.242l9.188-.6L38.243,1.666C32.754,4.334,1.513,23.158,1.343,105.132Z" fill="#b3b5b8"/>
              </g>
            </g>
            <g id="Group_1661" data-name="Group 1661" transform="translate(1.237 0.671)">
              <path id="Path_1620" data-name="Path 1620" d="M18.567,27.938c2.577-4.867,3.806-10.462,4.506-16.034C30.875,2.376,37.6,0,37.6,0l5.44,66.059-9.87.643L1.4,105.132H0C.87,100.953,4.218,55.051,18.567,27.938Z" fill="#adafb2" opacity="0.7" style="mix-blend-mode: multiply;isolation: isolate"/>
            </g>
            <g id="Group_1662" data-name="Group 1662" transform="translate(26.901 0.671)">
              <path id="Path_1621" data-name="Path 1621" d="M0,8.956C6.64,1.88,11.933,0,11.933,0l5.44,66.059L7.5,66.7,0,75.778Z" fill="#adafb2" opacity="0.7" style="mix-blend-mode: multiply;isolation: isolate"/>
            </g>
          </g>
        </g>
      </g>
      <g id="Group_1668" data-name="Group 1668" transform="translate(77.641 256.794)">
        <g id="Group_1666" data-name="Group 1666" transform="translate(1.069 31.404)">
          <path id="Path_1622" data-name="Path 1622" d="M1.609,20.275A71.649,71.649,0,0,0,1.395,9.938c-.088-1.7-.161-3.4-.345-5.086A25.745,25.745,0,0,0,.555.464C.565.5.6.475.589.448A.806.806,0,0,0,.444.023a.038.038,0,0,0-.073.01C-.3,2.677.131,5.915.2,8.617c.1,3.849-.1,7.809.612,11.6C.91,20.745,1.549,20.938,1.609,20.275Z" transform="translate(2.394 21.452)" fill="#e8887e"/>
          <path id="Path_1623" data-name="Path 1623" d="M.212,4.565C.15,5.412.083,6.258.019,7.1a42.008,42.008,0,0,0,.157,5.419c.067.6.781.743.855.061a44.419,44.419,0,0,0,.212-5.2c-.166-1.51-.327-3.021-.5-4.531C.636,1.9.484.95.316,0,.306,1.525.324,3.049.212,4.565Z" transform="translate(7.3 37.645)" fill="#aaddf9"/>
          <path id="Path_1624" data-name="Path 1624" d="M1.1,28.979c.283-5.019.6-10.049.482-15.074C1.474,9.415,1.661,4.644.783.239c.008.037.054.034.045,0C.811.113.817.152.747.015A.024.024,0,0,0,.7.021,21.981,21.981,0,0,0,.316,5.08C.189,7.738.2,10.4.209,13.063.231,18.35-.129,23.618.05,28.9.076,29.655,1.052,29.8,1.1,28.979Z" transform="translate(11.01 44.798)" fill="#de3f2c"/>
          <path id="Path_1625" data-name="Path 1625" d="M.617,3.987Q.326,6.468.092,8.954c-.009.094-.018.191-.028.286a41.526,41.526,0,0,0,.055,5.508c.052.564.677.649.773.055.8-4.945.41-9.844.281-14.791l0-.012A24.686,24.686,0,0,0,.617,3.987Z" transform="translate(6.108 53.845)" fill="#f3c241"/>
          <path id="Path_1626" data-name="Path 1626" d="M.7,10.242A28.582,28.582,0,0,0,1.04,5.075c0-.274-.013-.547-.021-.821C.832,2.835.642,1.421.476,0A19.812,19.812,0,0,0,.253,3.74,51.191,51.191,0,0,0,.05,10.2C.084,10.677.612,10.732.7,10.242Z" transform="translate(3.425 45.267)" fill="#de3f2c"/>
          <path id="Path_1627" data-name="Path 1627" d="M1.818,0C1.111,2.206,1.144,4.748.8,6.983.752,7.324.709,7.665.659,8,.4,10.5.172,13,0,15.488c-.03.408.514.873.668.3A43.753,43.753,0,0,0,1.864,7.135c.1-1.6.153-3.2.214-4.8.015-.486,0-.891-.022-1.379C2.06,1.084,1.921.374,1.818,0Z" transform="translate(20.154 53.214)" fill="#aaddf9"/>
          <path id="Path_1628" data-name="Path 1628" d="M1.579,3.749c-.2,1.672-.456,3.335-.662,5.007C.618,11.18.426,13.622,0,16.025c.144.253.447.386.561-.016a46.522,46.522,0,0,0,1.4-7.495c.009-.35.018-.7.019-1.048.037-2.46.194-4.986.028-7.465C1.781,1.234,1.723,2.541,1.579,3.749Z" transform="translate(15.305 68.746)" fill="#e8887e"/>
          <path id="Path_1629" data-name="Path 1629" d="M.717,11.433A24.927,24.927,0,0,0,1.456,5.6,20.457,20.457,0,0,0,1.217.045c-.016-.07-.088-.052-.1.01a68.722,68.722,0,0,0-1.113,11.2C.013,11.679.577,11.935.717,11.433Z" transform="translate(22.686 50.545)" fill="#de3f2c"/>
          <path id="Path_1630" data-name="Path 1630" d="M.882,25.683a98.483,98.483,0,0,0,.727-14.347c.006-2.013-.042-4.032-.076-6.044C1.5,3.522,1.088,1.784,1.047.031A.062.062,0,0,0,1.035,0C.99.269.949.541.918.814c0,.015,0,.015,0-.007C.881,1.818.875,2.826.8,3.839Q.549,7.432.384,11.021a133.774,133.774,0,0,0-.26,14.607C.158,26.186.794,26.265.882,25.683Z" transform="translate(26.799 27.639)" fill="#e8887e"/>
          <path id="Path_1631" data-name="Path 1631" d="M.525,6.705A21.2,21.2,0,0,0,.932,3.583C.929,2.387.889,1.19.771,0A11.819,11.819,0,0,0,.383,2.2,19.613,19.613,0,0,0,.012,6.577C.024,6.868.443,7.081.525,6.705Z" transform="translate(24.392 41.819)" fill="#f3c241"/>
          <path id="Path_1632" data-name="Path 1632" d="M.841,11.217A27.359,27.359,0,0,0,1.267,6.6,45.857,45.857,0,0,0,.443,0,29.866,29.866,0,0,0,.295,4.154c-.058,2.334-.408,4.675-.257,7C.076,11.76.728,11.818.841,11.217Z" transform="translate(31.616 14.736)" fill="#de3f2c"/>
          <path id="Path_1633" data-name="Path 1633" d="M.6,21.286A89.844,89.844,0,0,0,1.112,10.7C1.093,8.843,1.039,7,.885,5.151.8,4.223.753,3.3.644,2.372.587,1.921.526,1.47.463,1.02.424.742.245.065.439.757.442.771.46.765.458.751a3.422,3.422,0,0,0-.133-.7C.31-.016.252-.012.222.032.085,1.01.156,2.054.109,3.018c.028.7.063,1.407.054,2.08C.138,6.944.249,8.786.216,10.633c-.06,3.535-.292,7.076-.191,10.613C.035,21.667.553,21.733.6,21.286Z" transform="translate(29.345 20.685)" fill="#f3c241"/>
          <path id="Path_1634" data-name="Path 1634" d="M1.018,13.943a37.317,37.317,0,0,0,.165-6.131C1.121,6.605.99,5.4.861,4.205A34.131,34.131,0,0,1,.295.1C.295.03.2-.054.182.046a25.225,25.225,0,0,0-.009,5.69C.251,8.45.07,11.2.384,13.9.435,14.345.963,14.447,1.018,13.943Z" transform="translate(34.282 0)" fill="#aaddf9"/>
          <path id="Path_1635" data-name="Path 1635" d="M.387,4.647A14.934,14.934,0,0,0,.539,2.488C.527,1.67.222.934.285.113.291.029.176-.059.153.052A8.558,8.558,0,0,0,.01,2.069c.046.854-.015,1.7.064,2.557C.1,4.849.354,4.891.387,4.647Z" transform="translate(32.222 3.838)" fill="#e8887e"/>
          <path id="Path_1636" data-name="Path 1636" d="M.963,14.26A71.039,71.039,0,0,0,.27.474c0,.025.037.033.039,0,0-.133,0-.268,0-.4C.308.026.241-.043.223.036A28.876,28.876,0,0,0,.1,6.022,80.194,80.194,0,0,0,.4,14.22C.447,14.606.933,14.709.963,14.26Z" transform="translate(0.531 5.938)" fill="#f3c241"/>
          <path id="Path_1637" data-name="Path 1637" d="M.1,7.976C.069,9.089.031,10.2,0,11.316c.09.73.19,1.456.3,2.176.073.467.685.628.7.051C1.06,11.117.966,8.721.791,6.3.709,5.135.522,3.972.41,2.8.345,2.149.308,1.488.254.83.253.794.152.344.066,0,.033,2.659.164,5.316.1,7.976Z" transform="translate(0 20.328)" fill="#de3f2c"/>
        </g>
        <g id="Group_1667" data-name="Group 1667">
          <path id="Path_1638" data-name="Path 1638" d="M14.891,98.414c.884-3.918,1.7-7.785,2.285-11.7-.115,2.693-.268,5.383-.474,8.089-.01.142.2.425.3.191a20.522,20.522,0,0,0,1.05-4.736,75.462,75.462,0,0,0,1.32-7.487c.161-2.482.646-4.908.8-7.347.253,1.464.493,2.928.8,4.387a.146.146,0,0,0,.29-.033c.046-2.994.956-6.091,1.238-9.082a33.034,33.034,0,0,0,.251-6.284,15.873,15.873,0,0,1,.935,4.556c.024.217.324.4.395.1a53.473,53.473,0,0,0,.852-6.149c.182-1.545-.66-3.091-1.346-4.407-1.044-2,.806-3.2,1.43-5.016a9.339,9.339,0,0,1,.185,1.8c0,.1.118.287.2.132,1.549-2.816,2.826-7.887,1.75-11.622a6.1,6.1,0,0,1,.987,1.883c.07.226.308.188.338-.036a9.143,9.143,0,0,0-.637-4.553,21.769,21.769,0,0,0-1.026-2.138c-.815-1.522-.269-2.772.351-4.2.473-1.093,1.512-2.321,2.231-3.616a17.482,17.482,0,0,1,.182,2.621c0,.17.239.543.377.244,1.166-2.565,2.615-5,3.223-7.781a8.188,8.188,0,0,0-.176-3.586,16.22,16.22,0,0,0-.7-2.3,3.159,3.159,0,0,0-.218-.44,7.4,7.4,0,0,0,2.109.858,7.777,7.777,0,0,1-2.227-3.713c-.235-.794-.414-1.6-.574-2.417-.223-.745-.414-1.482-.594-2.156-.722-2.687-1.337-5.044-3.175-7.218C24.011.983,17.96-.391,12.614.092,9.934.334,8.023,2.144,6.125,3.859A22.593,22.593,0,0,0,.933,10.814,12.58,12.58,0,0,0,.116,17.57c.145,1.422.392,2.807.63,4.216a10.342,10.342,0,0,1-.33,4.205c-.037.172.022.535.277.5a3.511,3.511,0,0,0,2.129-1.054c-.045,1.989-.87,3.532-1.693,5.359-.773,1.72-1.422,3.83.395,5.155.734.534,2.12.849,2.6,1.663.184.31-.356.935-.535,1.187a4.49,4.49,0,0,0-.815,2.487,7.2,7.2,0,0,0,.553,2.382c.085.172.173.339.274.505a6.606,6.606,0,0,1,1.092,2.557A7.35,7.35,0,0,1,3.749,50.9,4.062,4.062,0,0,0,5.258,50a19.839,19.839,0,0,0-.767,3.942,9.132,9.132,0,0,0,.615,3.122c.662,1.356,1.343,2.7,1.9,4.1.147-.653.275-1.317.377-1.987a26.392,26.392,0,0,0,1.141,2.877,29.136,29.136,0,0,1,2.085,6.212c.2.963.117,2.463.694,3.308.046.067.153.147.223.055a4.311,4.311,0,0,0,.643-2.249c.082.293.159.568.218.806.389,1.6.579,3.224.924,4.829.383,1.78.591,3.628.933,5.419.28,1.466.127,2.935.39,4.385.019.1.156.326.278.176a4.972,4.972,0,0,0,.674-1.157A101.356,101.356,0,0,1,14.412,98.2C14.365,98.5,14.8,98.808,14.891,98.414Z" transform="translate(2.405 0.683)" fill="#de3f2c"/>
          <path id="Path_1639" data-name="Path 1639" d="M4.773,48.256a5.145,5.145,0,0,0,.259-4.207c-.639-1.95-.917-3.659.38-5.406.07-.093.162-.048.2.042a74.233,74.233,0,0,0,5.44,9.837c-.247-2.02-.843-3.973-1.207-5.973-.021-.121.1-.354.22-.184a25.538,25.538,0,0,1,3.063,5.355,24.628,24.628,0,0,1,.944,2.98c.181.825.232,1.711.461,2.529a25.787,25.787,0,0,0,.393-6.687c-.015-.2.209-.356.251-.1.362,2.279.924,4.515,1.2,6.81a30.594,30.594,0,0,0,1.014,5.787c.461-2.155.094-4.391.5-6.557.024-.13.19-.2.236-.042.825,2.989,1.044,6.1,1.717,9.117a44.914,44.914,0,0,1,1.624-6.78c.722-2.3,1.691-4.7,1.328-7.155-.016-.111.114-.366.218-.184A9.4,9.4,0,0,1,24,50.568a18.811,18.811,0,0,0,.151-5.881,18.637,18.637,0,0,1-.592-4.824c.012-.109.12-.281.223-.13.408.592.734,1.229,1.117,1.836.016-1.129-.081-2.257.039-3.386.021-.179.22-.275.254-.048.278,1.916,1.983,3.088,2.641,4.848a14.209,14.209,0,0,1,.645,2.684l0-.009a9.143,9.143,0,0,0-.637-4.553,21.769,21.769,0,0,0-1.026-2.138c-.815-1.522-.269-2.772.351-4.2.473-1.093,1.512-2.321,2.231-3.616a17.482,17.482,0,0,1,.182,2.621c0,.17.239.543.377.244,1.166-2.565,2.615-5,3.223-7.781a8.188,8.188,0,0,0-.176-3.586,16.22,16.22,0,0,0-.7-2.3,3.159,3.159,0,0,0-.218-.44,7.4,7.4,0,0,0,2.109.858,7.777,7.777,0,0,1-2.227-3.713c-.235-.794-.414-1.6-.574-2.417-.223-.745-.414-1.482-.594-2.156-.722-2.687-1.337-5.044-3.175-7.218C24.011.983,17.96-.391,12.614.092,9.934.334,8.023,2.144,6.125,3.859A22.593,22.593,0,0,0,.933,10.814,12.58,12.58,0,0,0,.116,17.57c.145,1.422.392,2.807.63,4.216a10.342,10.342,0,0,1-.33,4.205c-.037.172.022.535.277.5a3.511,3.511,0,0,0,2.129-1.054c-.045,1.989-.87,3.532-1.693,5.359-.773,1.72-1.422,3.83.395,5.155.734.534,2.12.849,2.6,1.663.184.31-.356.935-.535,1.187a4.49,4.49,0,0,0-.815,2.487,7.2,7.2,0,0,0,.553,2.382c.085.172.173.339.274.505a6.606,6.606,0,0,1,1.092,2.557,5.86,5.86,0,0,1-.111,1.914C4.644,48.517,4.71,48.387,4.773,48.256Z" transform="translate(2.405 0.683)" fill="#e36831"/>
          <path id="Path_1640" data-name="Path 1640" d="M22.195,55.254c.058.248.317.178.353-.04a95.567,95.567,0,0,0,1.089-9.742,31.216,31.216,0,0,0-.058-5.439,3.67,3.67,0,0,0,.458.8c.117.135.214-.045.211-.156-.015-.561.034-1.13.04-1.7a5.638,5.638,0,0,0,.48.944c.114.178.316.109.329-.1a51.548,51.548,0,0,1,1.346-6.538c.082-.414.236-.9.36-1.394a5.466,5.466,0,0,0,.45,2.15c.064.118.23.159.3.021a30.582,30.582,0,0,0,2.429-6.174,6.857,6.857,0,0,0,.142-1.645,6.836,6.836,0,0,0,2.452,1.125,3.35,3.35,0,0,1-.945-1.723,2.989,2.989,0,0,1,.015-.87,1,1,0,0,1,.085-.44c.009-.021.018-.042.028-.064a5.4,5.4,0,0,1,.479-1.128c.2-.482.392-.963.6-1.442a13.253,13.253,0,0,0,1.326-4.271,10.485,10.485,0,0,0-.794-5.25,5.308,5.308,0,0,1,1.358,1.048c-.492-.54-.588-2.267-.854-2.994a12.9,12.9,0,0,0-1.343-2.7,15.927,15.927,0,0,0-4.281-4.162A18.111,18.111,0,0,0,13.6.5a18,18,0,0,0-11.582,9.72,16.831,16.831,0,0,0-1.1,3.012,39.761,39.761,0,0,0-.078,4.32,8.732,8.732,0,0,1-.308,2.633A9.821,9.821,0,0,1,0,21.446a18.79,18.79,0,0,1,1.6-1.46c.135-.109.209.124.187.218-.179.749-.476,1.457-.673,2.2a3.787,3.787,0,0,0,.179,2.641c.028.069.055.135.082.2.139.182.274.362.39.531A3.334,3.334,0,0,1,2.3,27.592q.258.713.474,1.439A5.193,5.193,0,0,0,4.5,27.518c.057-.079.106-.161.155-.241a2.763,2.763,0,0,1-.073,1.808c-.085.226-.194.447-.3.674a4.854,4.854,0,0,0,1.006,3.42c.109.151,1.427,1.953,2.135,3.009a7.461,7.461,0,0,0,.565-2.666c.576,1.077,1.24,2.1,1.917,3.127,1.041,1.572,1.787,3.238,2.758,4.818a.207.207,0,0,0,.393-.115,30.112,30.112,0,0,0-.6-6.188c.289.577.564,1.157.815,1.757a37.029,37.029,0,0,0,2.2,5.31.155.155,0,0,0,.3-.033,5.9,5.9,0,0,0-.106-1.978c-.024-.36-.036-.719-.048-1.084.477,1.654.935,3.315,1.249,5.01.049.268.369.36.4.031.185-2.043.224-4.121.381-6.177.163,1,.347,1.993.514,2.992.224,1.346.281,2.769.6,4.09a.184.184,0,0,0,.362.025,10.632,10.632,0,0,0,.567-3.137,50.161,50.161,0,0,1,1.657,7.037C21.679,51.064,21.725,53.232,22.195,55.254Z" fill="#eea840"/>
          <path id="Path_1641" data-name="Path 1641" d="M3.145,21.324a24.388,24.388,0,0,1,1-7l.7,3.143s-.012-.185-.006-.517a11.709,11.709,0,0,1-.19-3.743,10.916,10.916,0,0,1,4.057-7.17c3.822-2.793,8.567-1.347,12.135,1.28A10.039,10.039,0,0,0,15.713,3.8a13.238,13.238,0,0,1,9.952,5.348S24.009,3.9,15.616,1.431c0,0,10.212-.645,15.887,8.607a15.4,15.4,0,0,0-9.8-9.032C13.984-1.512,7.832.888,3.439,6.086c0,0-4.023,4.63-3.366,10.155,0,0,1.119-5.379,2.933-7.612C3,8.629.508,13.7,3.145,21.324Z" transform="translate(1.819 0.682)" fill="#fffad0" opacity="0.5" style="mix-blend-mode: overlay;isolation: isolate"/>
          <path id="Path_1642" data-name="Path 1642" d="M14.328,30.63c.036.166.218.124.238-.025.23-1.874.673-3.724,1.009-5.581.226-1.252.492-2.484.819-3.713.168-.622.254-1.748.485-.615.034.159.232.392.36.157,1.365-2.467,1.672-5.366,2.131-8.1a15.158,15.158,0,0,1,.429,1.829c.063.308.5.645.615.16.257-1.139.366-2.294.67-3.439.067-.251.136-.5.2-.757.2.842.348,1.567.414,1.787.039.124.226.244.3.075A14.4,14.4,0,0,0,22.139.126c-.126-.28-.405-.037-.372.188a21.8,21.8,0,0,1,.221,3.332,5.607,5.607,0,0,0-.843-1.6.176.176,0,0,0-.31.091,8.06,8.06,0,0,0-.1,1.787,6.083,6.083,0,0,0-1.579-1.91A6.956,6.956,0,0,0,17.2.461c-.17-.058-.211.209-.176.311A24.551,24.551,0,0,1,18.4,8.685c0-.01-.066,1.827-.233.831-.136-.8-.145-1.618-.305-2.426a10.342,10.342,0,0,0-.713-2.986c-.093-.182-.284-.082-.3.087a40.9,40.9,0,0,1-.362,5.336c-.034.167-.1,1.077-.172.692-.139-.794-.16-1.631-.3-2.437A38.218,38.218,0,0,0,15,3.5c-.3-1.011-.57-2.568-1.343-3.345C13.534.042,13.4.147,13.388.29c-.266,3.67.058,7.441-.01,11.126-.024,1.095-.1,2.188-.194,3.278-.027.354-.347,3.025-.754,1.563-.357-1.288-.456-3.113-1.256-4.2-.126-.17-.3.01-.31.154a24.751,24.751,0,0,0-.112,2.705q.251.588-.233-.444c-.308-.625-.628-1.244-.933-1.871C8.732,10.879,8.29,8.69,7.176,7.1c-.109-.157-.311-.115-.314.093a39.639,39.639,0,0,0,.552,4.1c.063.816.293,1.652.437,2.458A15.632,15.632,0,0,0,8.312,15.3c-.631-.613-1.184-1.425-1.759-2.023Q4.88,11.536,3.241,9.764c-.254-.277-.473.154-.389.392.272.769.872,1.7,1.2,2.578A32.014,32.014,0,0,0,.532,8.177C.3,7.954.005,8.137,0,8.44a11.737,11.737,0,0,0,.87,4.734c.912,2.026,2.527,3.629,3.7,5.5.187.3.473.064.441-.223a14.334,14.334,0,0,0-1.119-3.077c.613.67,1.128,1.8,1.585,2.4,1.171,1.54,2.2,3.113,3.288,4.7.118.173.293.1.32-.1a6.758,6.758,0,0,0-.049-1.762c-.087-.734-.96-3.176-.173-1.264a24.1,24.1,0,0,1,1.948,5.7c.042.322.393.284.374-.04-.061-.855.09-1.726.063-2.589-.016-.574-.167-1.139-.184-1.72A4.258,4.258,0,0,0,11.511,22c.839,2.035.864,4.2,1.443,6.278.031.112.166.133.2.015a8.356,8.356,0,0,1,.6-1.546C14.035,28.037,14.041,29.35,14.328,30.63Z" transform="translate(7.92 12.909)" fill="#fffad0" opacity="0.5" style="mix-blend-mode: overlay;isolation: isolate"/>
          <path id="Path_1643" data-name="Path 1643" d="M9.8,30.146c.03-2.155.064-4.3.028-6.457-.018-1.051-.191-2.086-.3-3.131.082.778.408,1.974.589,2.913a56.867,56.867,0,0,0,1.014,5.919c.078-.338.163-.676.248-1.017a24.95,24.95,0,0,0,.555-3.2c-.021-.618-.049-1.21-.057-1.733-.028-2.129.058-4.263-.081-6.384a12.858,12.858,0,0,0-.493-1.809,17.03,17.03,0,0,0-.15,1.8c-.013.114.156,2.33-.008,1.134a16.724,16.724,0,0,0-.8-4.2c-.081-.188-.265-.058-.286.085-.181,1.249-.556,2.681-.609,3.915a10.793,10.793,0,0,0-.35-3.11c-.229-.9-.426-1.808-.652-2.708-.65-1.367-1.338-2.716-2.031-4.063.015.344.052.686.087,1.029,0,.3.142,3.347-.031,2.249-.072-.444-.088-.81-.182-1.25A27.879,27.879,0,0,0,5.239,5.914c0,1.065-.1,2.131-.193,3.191-.007.072-.1.283-.2.163C3.785,8,2.534,6.414,2.31,4.731A6.787,6.787,0,0,0,1.23,1.506C.859.979.445.486.026,0a8.026,8.026,0,0,1,.89,2.708c.01.085.006.166.009.25a.3.3,0,0,0,.033.066c0,.045-.018.088-.025.133,0,1.394-.65,2.58-.876,3.966a2.6,2.6,0,0,0,1.461,2.961,2.344,2.344,0,0,1,1.2,1.353c.214.926.021,1.874.236,2.8.129.559.278,1.114.432,1.666.251-.649.519-1.291.821-1.923.052-.114.172-.118.22,0,1.166,2.885.936,5.988,1.286,9.016a11.4,11.4,0,0,0,1.15-2.435,20.993,20.993,0,0,1,1.391,4.914c.01.159.03.32.043.479.227.791.458,1.584.639,2.388.328,1.457.606,2.94.854,4.42A18.191,18.191,0,0,0,9.8,30.146Z" transform="translate(8.59 45.73)" fill="#fffad0" opacity="0.8" style="mix-blend-mode: overlay;isolation: isolate"/>
        </g>
      </g>
      <g id="Group_1671" data-name="Group 1671" transform="translate(23.739 256.794)">
        <g id="Group_1669" data-name="Group 1669" transform="translate(1.069 31.404)">
          <path id="Path_1644" data-name="Path 1644" d="M1.609,20.275A71.655,71.655,0,0,0,1.4,9.938c-.09-1.7-.163-3.4-.345-5.086A25.742,25.742,0,0,0,.556.464C.566.5.6.475.59.448A.806.806,0,0,0,.445.023a.038.038,0,0,0-.073.01C-.3,2.677.131,5.915.2,8.617c.1,3.849-.1,7.809.613,11.6C.912,20.745,1.549,20.938,1.609,20.275Z" transform="translate(2.393 21.452)" fill="#e8887e"/>
          <path id="Path_1645" data-name="Path 1645" d="M.212,4.565Q.118,5.835.019,7.1a42.005,42.005,0,0,0,.157,5.419c.066.6.779.743.854.061a44.407,44.407,0,0,0,.212-5.2c-.164-1.51-.327-3.021-.5-4.531C.635,1.9.484.95.315,0,.306,1.525.324,3.049.212,4.565Z" transform="translate(7.3 37.645)" fill="#aaddf9"/>
          <path id="Path_1646" data-name="Path 1646" d="M1.1,28.979c.281-5.019.6-10.049.48-15.074-.1-4.491.082-9.261-.8-13.666.007.037.054.034.045,0C.811.113.817.152.748.015A.025.025,0,0,0,.7.021,21.98,21.98,0,0,0,.316,5.08C.191,7.738.2,10.4.21,13.063.233,18.35-.129,23.618.05,28.9.076,29.655,1.052,29.8,1.1,28.979Z" transform="translate(11.008 44.798)" fill="#de3f2c"/>
          <path id="Path_1647" data-name="Path 1647" d="M.617,3.987Q.326,6.468.091,8.954c-.007.094-.016.191-.027.286a41.531,41.531,0,0,0,.055,5.508c.052.564.677.649.772.055.8-4.945.411-9.844.283-14.791l0-.012A24.517,24.517,0,0,0,.617,3.987Z" transform="translate(6.108 53.845)" fill="#f3c241"/>
          <path id="Path_1648" data-name="Path 1648" d="M.7,10.242a28.577,28.577,0,0,0,.342-5.167c0-.274-.012-.547-.019-.821C.832,2.835.641,1.421.476,0A19.7,19.7,0,0,0,.253,3.74,51.191,51.191,0,0,0,.05,10.2C.083,10.677.612,10.732.7,10.242Z" transform="translate(3.425 45.267)" fill="#de3f2c"/>
          <path id="Path_1649" data-name="Path 1649" d="M1.82,0C1.112,2.206,1.144,4.748.806,6.983.753,7.324.71,7.665.661,8,.4,10.5.173,13,0,15.488c-.03.408.514.873.67.3A43.759,43.759,0,0,0,1.866,7.135c.1-1.6.151-3.2.214-4.8.015-.486,0-.891-.022-1.379C2.062,1.084,1.923.374,1.82,0Z" transform="translate(20.152 53.214)" fill="#aaddf9"/>
          <path id="Path_1650" data-name="Path 1650" d="M1.581,3.749c-.2,1.672-.458,3.335-.662,5.007C.619,11.18.428,13.622,0,16.025c.144.253.449.386.561-.016A46.521,46.521,0,0,0,1.966,8.513c.009-.35.016-.7.021-1.048.036-2.46.191-4.986.025-7.465C1.781,1.234,1.724,2.541,1.581,3.749Z" transform="translate(15.304 68.746)" fill="#e8887e"/>
          <path id="Path_1651" data-name="Path 1651" d="M.717,11.433A24.925,24.925,0,0,0,1.456,5.6,20.457,20.457,0,0,0,1.217.045c-.016-.07-.09-.052-.1.01a68.564,68.564,0,0,0-1.113,11.2C.013,11.679.578,11.935.717,11.433Z" transform="translate(22.686 50.545)" fill="#de3f2c"/>
          <path id="Path_1652" data-name="Path 1652" d="M.881,25.683a98.257,98.257,0,0,0,.727-14.347c.007-2.013-.04-4.032-.075-6.044C1.5,3.522,1.089,1.784,1.047.031A.08.08,0,0,0,1.035,0C.99.269.95.541.917.814c0,.015,0,.015,0-.007C.881,1.818.875,2.826.8,3.839Q.55,7.432.383,11.021A134.157,134.157,0,0,0,.124,25.628C.159,26.186.793,26.265.881,25.683Z" transform="translate(26.799 27.639)" fill="#e8887e"/>
          <path id="Path_1653" data-name="Path 1653" d="M.526,6.705A21.194,21.194,0,0,0,.933,3.583C.93,2.387.889,1.19.77,0A12.072,12.072,0,0,0,.382,2.2,19.61,19.61,0,0,0,.013,6.577C.025,6.868.444,7.081.526,6.705Z" transform="translate(24.392 41.819)" fill="#f3c241"/>
          <path id="Path_1654" data-name="Path 1654" d="M.84,11.217A27.217,27.217,0,0,0,1.268,6.6,46.3,46.3,0,0,0,.444,0,29.871,29.871,0,0,0,.3,4.154c-.06,2.334-.408,4.675-.259,7C.076,11.76.729,11.818.84,11.217Z" transform="translate(31.615 14.736)" fill="#de3f2c"/>
          <path id="Path_1655" data-name="Path 1655" d="M.6,21.286A89.524,89.524,0,0,0,1.112,10.7C1.092,8.843,1.039,7,.883,5.151.8,4.223.752,3.3.642,2.372Q.559,1.695.46,1.02C.423.742.243.065.438.757c0,.013.021.007.019-.006a3.416,3.416,0,0,0-.132-.7C.309-.016.252-.012.222.032.083,1.01.156,2.054.109,3.018c.027.7.063,1.407.054,2.08C.138,6.944.248,8.786.216,10.633c-.06,3.535-.292,7.076-.191,10.613C.034,21.667.553,21.733.6,21.286Z" transform="translate(29.345 20.685)" fill="#f3c241"/>
          <path id="Path_1656" data-name="Path 1656" d="M1.019,13.943a37.316,37.316,0,0,0,.163-6.131C1.121,6.605.991,5.4.861,4.205A34.429,34.429,0,0,1,.3.1C.3.03.2-.054.182.046a25.227,25.227,0,0,0-.008,5.69C.251,8.45.07,11.2.385,13.9.436,14.345.964,14.447,1.019,13.943Z" transform="translate(34.281 0)" fill="#aaddf9"/>
          <path id="Path_1657" data-name="Path 1657" d="M.387,4.647A14.934,14.934,0,0,0,.539,2.488C.529,1.67.224.934.286.113.292.029.177-.059.153.052A8.641,8.641,0,0,0,.01,2.069c.046.854-.013,1.7.066,2.557C.1,4.849.355,4.891.387,4.647Z" transform="translate(32.221 3.838)" fill="#e8887e"/>
          <path id="Path_1658" data-name="Path 1658" d="M.962,14.26A71.037,71.037,0,0,0,.271.474c0,.025.037.033.037,0v-.4C.309.026.24-.043.222.036A28.874,28.874,0,0,0,.1,6.022,79.752,79.752,0,0,0,.4,14.22C.446,14.606.931,14.709.962,14.26Z" transform="translate(0.53 5.938)" fill="#f3c241"/>
          <path id="Path_1659" data-name="Path 1659" d="M.1,7.976C.069,9.089.031,10.2,0,11.316c.09.73.188,1.456.3,2.176.072.467.683.628.7.051C1.059,11.117.966,8.721.79,6.3.707,5.135.52,3.972.408,2.8.344,2.149.307,1.488.254.83.253.794.151.344.066,0,.031,2.659.163,5.316.1,7.976Z" transform="translate(0 20.328)" fill="#de3f2c"/>
        </g>
        <g id="Group_1670" data-name="Group 1670">
          <path id="Path_1660" data-name="Path 1660" d="M14.892,98.414c.882-3.918,1.7-7.785,2.285-11.7-.117,2.693-.269,5.383-.474,8.089-.01.142.2.425.3.191a20.442,20.442,0,0,0,1.05-4.736c.413-2.487,1.159-4.971,1.32-7.487.16-2.482.645-4.908.8-7.347.251,1.464.494,2.928.8,4.387a.147.147,0,0,0,.292-.033c.046-2.994.954-6.091,1.238-9.082a33.279,33.279,0,0,0,.251-6.284,15.923,15.923,0,0,1,.935,4.556c.024.217.325.4.395.1a53.486,53.486,0,0,0,.852-6.149c.182-1.545-.659-3.091-1.346-4.407-1.044-2,.8-3.2,1.428-5.016a9.225,9.225,0,0,1,.187,1.8c0,.1.12.287.2.132,1.549-2.816,2.826-7.887,1.75-11.622a6.166,6.166,0,0,1,.987,1.883c.07.226.308.188.338-.036a9.143,9.143,0,0,0-.637-4.553,21.76,21.76,0,0,0-1.027-2.138c-.813-1.522-.268-2.772.353-4.2.473-1.093,1.512-2.321,2.231-3.616a17.486,17.486,0,0,1,.182,2.621c0,.17.239.543.375.244,1.167-2.565,2.617-5,3.223-7.781a8.166,8.166,0,0,0-.176-3.586,16.026,16.026,0,0,0-.7-2.3,3.341,3.341,0,0,0-.218-.44,7.4,7.4,0,0,0,2.108.858,7.765,7.765,0,0,1-2.227-3.713c-.235-.794-.414-1.6-.574-2.417-.223-.745-.414-1.482-.6-2.156-.721-2.687-1.337-5.044-3.175-7.218C24.011.983,17.96-.391,12.614.092,9.934.334,8.024,2.144,6.125,3.859A22.641,22.641,0,0,0,.933,10.814,12.58,12.58,0,0,0,.116,17.57c.147,1.422.393,2.807.631,4.216a10.421,10.421,0,0,1-.33,4.205c-.039.172.022.535.277.5a3.5,3.5,0,0,0,2.128-1.054c-.043,1.989-.869,3.532-1.691,5.359-.773,1.72-1.422,3.83.395,5.155.734.534,2.12.849,2.6,1.663.182.31-.356.935-.535,1.187a4.478,4.478,0,0,0-.815,2.487,7.129,7.129,0,0,0,.553,2.382c.085.172.172.339.274.505a6.606,6.606,0,0,1,1.092,2.557A7.339,7.339,0,0,1,3.749,50.9a4.067,4.067,0,0,0,1.51-.9,19.838,19.838,0,0,0-.769,3.942,9.2,9.2,0,0,0,.616,3.122c.662,1.356,1.343,2.7,1.9,4.1.148-.653.277-1.317.377-1.987a27,27,0,0,0,1.141,2.877,28.805,28.805,0,0,1,2.085,6.212c.2.963.118,2.463.692,3.308.048.067.156.147.226.055a4.311,4.311,0,0,0,.642-2.249c.084.293.16.568.218.806.39,1.6.579,3.224.926,4.829.383,1.78.589,3.628.932,5.419.28,1.466.129,2.935.392,4.385.018.1.156.326.278.176a4.971,4.971,0,0,0,.674-1.157A101.135,101.135,0,0,1,14.412,98.2C14.366,98.5,14.8,98.808,14.892,98.414Z" transform="translate(2.403 0.683)" fill="#de3f2c"/>
          <path id="Path_1661" data-name="Path 1661" d="M4.775,48.256a5.138,5.138,0,0,0,.257-4.207c-.637-1.95-.915-3.659.381-5.406.069-.093.16-.048.2.042a73.893,73.893,0,0,0,5.44,9.837c-.248-2.02-.843-3.973-1.207-5.973-.021-.121.1-.354.218-.184a25.61,25.61,0,0,1,3.064,5.355,24.623,24.623,0,0,1,.944,2.98c.181.825.232,1.711.459,2.529a25.659,25.659,0,0,0,.395-6.687c-.016-.2.209-.356.251-.1.36,2.279.923,4.515,1.2,6.81a30.355,30.355,0,0,0,1.014,5.787c.459-2.155.094-4.391.5-6.557.024-.13.191-.2.238-.042.825,2.989,1.045,6.1,1.717,9.117a44.925,44.925,0,0,1,1.624-6.78c.721-2.3,1.691-4.7,1.328-7.155-.016-.111.112-.366.217-.184a9.4,9.4,0,0,1,1,3.128,18.9,18.9,0,0,0,.15-5.881,18.577,18.577,0,0,1-.592-4.824c.01-.109.12-.281.221-.13.408.592.736,1.229,1.117,1.836.018-1.129-.081-2.257.04-3.386.019-.179.218-.275.254-.048.277,1.916,1.983,3.088,2.641,4.848a14.206,14.206,0,0,1,.643,2.684l0-.009a9.143,9.143,0,0,0-.637-4.553,21.76,21.76,0,0,0-1.027-2.138c-.813-1.522-.268-2.772.353-4.2.473-1.093,1.512-2.321,2.231-3.616a17.486,17.486,0,0,1,.182,2.621c0,.17.239.543.375.244,1.167-2.565,2.617-5,3.223-7.781a8.166,8.166,0,0,0-.176-3.586,16.026,16.026,0,0,0-.7-2.3,3.341,3.341,0,0,0-.218-.44,7.4,7.4,0,0,0,2.108.858,7.765,7.765,0,0,1-2.227-3.713c-.235-.794-.414-1.6-.574-2.417-.223-.745-.414-1.482-.6-2.156-.721-2.687-1.337-5.044-3.175-7.218C24.011.983,17.96-.391,12.614.092,9.934.334,8.024,2.144,6.125,3.859A22.641,22.641,0,0,0,.933,10.814,12.58,12.58,0,0,0,.116,17.57c.147,1.422.393,2.807.631,4.216a10.421,10.421,0,0,1-.33,4.205c-.039.172.022.535.277.5a3.5,3.5,0,0,0,2.128-1.054c-.043,1.989-.869,3.532-1.691,5.359-.773,1.72-1.422,3.83.395,5.155.734.534,2.12.849,2.6,1.663.182.31-.356.935-.535,1.187a4.478,4.478,0,0,0-.815,2.487,7.129,7.129,0,0,0,.553,2.382c.085.172.172.339.274.505a6.606,6.606,0,0,1,1.092,2.557,5.9,5.9,0,0,1-.111,1.914C4.646,48.517,4.712,48.387,4.775,48.256Z" transform="translate(2.403 0.683)" fill="#e36831"/>
          <path id="Path_1662" data-name="Path 1662" d="M22.195,55.254c.058.248.316.178.351-.04a95.587,95.587,0,0,0,1.09-9.742,31.221,31.221,0,0,0-.06-5.439,3.678,3.678,0,0,0,.459.8c.117.135.214-.045.212-.156-.016-.561.033-1.13.039-1.7a5.521,5.521,0,0,0,.48.944c.112.178.314.109.329-.1a51.542,51.542,0,0,1,1.346-6.538c.082-.414.236-.9.36-1.394a5.44,5.44,0,0,0,.45,2.15.164.164,0,0,0,.3.021,30.312,30.312,0,0,0,2.427-6.174,6.615,6.615,0,0,0,.144-1.645,6.855,6.855,0,0,0,2.454,1.125,3.35,3.35,0,0,1-.945-1.723,2.987,2.987,0,0,1,.015-.87,1.018,1.018,0,0,1,.084-.44c.01-.021.019-.042.03-.064a5.23,5.23,0,0,1,.477-1.128c.2-.482.393-.963.6-1.442a13.253,13.253,0,0,0,1.326-4.271,10.469,10.469,0,0,0-.8-5.25,5.308,5.308,0,0,1,1.358,1.048c-.489-.54-.586-2.267-.854-2.994a12.824,12.824,0,0,0-1.341-2.7,15.931,15.931,0,0,0-4.283-4.162A18.107,18.107,0,0,0,13.6.5a18,18,0,0,0-11.583,9.72,17.188,17.188,0,0,0-1.1,3.012,40.919,40.919,0,0,0-.078,4.32,8.687,8.687,0,0,1-.308,2.633A9.611,9.611,0,0,1,0,21.446a18.79,18.79,0,0,1,1.6-1.46c.135-.109.209.124.185.218-.178.749-.474,1.457-.671,2.2a3.786,3.786,0,0,0,.179,2.641c.028.069.054.135.081.2.139.182.277.362.392.531A3.346,3.346,0,0,1,2.3,27.592q.256.713.475,1.439A5.167,5.167,0,0,0,4.5,27.518a2.727,2.727,0,0,0,.156-.241,2.744,2.744,0,0,1-.073,1.808c-.085.226-.193.447-.3.674a4.856,4.856,0,0,0,1.008,3.42c.109.151,1.427,1.953,2.135,3.009a7.493,7.493,0,0,0,.565-2.666c.576,1.077,1.238,2.1,1.917,3.127,1.039,1.572,1.786,3.238,2.756,4.818a.207.207,0,0,0,.393-.115,30.007,30.007,0,0,0-.6-6.188c.289.577.564,1.157.813,1.757a37.386,37.386,0,0,0,2.2,5.31.155.155,0,0,0,.3-.033,5.861,5.861,0,0,0-.1-1.978c-.024-.36-.037-.719-.048-1.084.477,1.654.933,3.315,1.249,5.01.049.268.369.36.4.031.185-2.043.224-4.121.38-6.177.164,1,.348,1.993.516,2.992.224,1.346.28,2.769.6,4.09a.184.184,0,0,0,.362.025,10.681,10.681,0,0,0,.568-3.137,50.376,50.376,0,0,1,1.657,7.037C21.677,51.064,21.725,53.232,22.195,55.254Z" fill="#eea840"/>
          <path id="Path_1663" data-name="Path 1663" d="M3.145,21.324a24.413,24.413,0,0,1,1.006-7l.694,3.143s-.012-.185,0-.517a11.708,11.708,0,0,1-.19-3.743,10.916,10.916,0,0,1,4.057-7.17c3.822-2.793,8.567-1.347,12.135,1.28A10.053,10.053,0,0,0,15.714,3.8a13.238,13.238,0,0,1,9.952,5.348S24.01,3.9,15.617,1.431c0,0,10.212-.645,15.887,8.607a15.4,15.4,0,0,0-9.8-9.032C13.985-1.512,7.833.888,3.441,6.086c0,0-4.024,4.63-3.369,10.155,0,0,1.12-5.379,2.934-7.612C3.006,8.629.507,13.7,3.145,21.324Z" transform="translate(1.818 0.682)" fill="#fffad0" opacity="0.5" style="mix-blend-mode: overlay;isolation: isolate"/>
          <path id="Path_1664" data-name="Path 1664" d="M14.326,30.63c.039.166.22.124.239-.025.23-1.874.673-3.724,1.009-5.581.226-1.252.491-2.484.82-3.713.166-.622.253-1.748.484-.615.034.159.232.392.36.157,1.365-2.467,1.67-5.366,2.131-8.1a15.152,15.152,0,0,1,.429,1.829c.063.308.5.645.613.16.259-1.139.368-2.294.67-3.439.069-.251.136-.5.2-.757.2.842.347,1.567.414,1.787.039.124.224.244.3.075A14.4,14.4,0,0,0,22.136.126c-.124-.28-.4-.037-.372.188a21.79,21.79,0,0,1,.223,3.332,5.646,5.646,0,0,0-.843-1.6.176.176,0,0,0-.309.091,8.152,8.152,0,0,0-.106,1.787,6.042,6.042,0,0,0-1.579-1.91A6.935,6.935,0,0,0,17.2.461c-.17-.058-.209.209-.176.311A24.551,24.551,0,0,1,18.4,8.685c0-.01-.066,1.827-.235.831-.136-.8-.144-1.618-.3-2.426A10.343,10.343,0,0,0,17.147,4.1c-.091-.182-.283-.082-.3.087a40.906,40.906,0,0,1-.362,5.336c-.036.167-.1,1.077-.172.692-.141-.794-.159-1.631-.3-2.437A38.2,38.2,0,0,0,14.993,3.5C14.7,2.493,14.423.936,13.653.159c-.12-.117-.257-.012-.268.132-.265,3.67.06,7.441-.01,11.126-.024,1.095-.1,2.188-.193,3.278-.03.354-.35,3.025-.754,1.563-.359-1.288-.456-3.113-1.256-4.2-.126-.17-.3.01-.31.154a24.383,24.383,0,0,0-.112,2.705q.251.588-.235-.444c-.308-.625-.628-1.244-.935-1.871-.849-1.721-1.292-3.91-2.406-5.5-.109-.157-.311-.115-.314.093a39.648,39.648,0,0,0,.552,4.1c.063.816.292,1.652.437,2.458A15.251,15.251,0,0,0,8.311,15.3c-.631-.613-1.184-1.425-1.759-2.023Q4.879,11.536,3.24,9.764c-.254-.277-.473.154-.39.392.274.769.875,1.7,1.2,2.578A32.01,32.01,0,0,0,.531,8.177C.3,7.954,0,8.137,0,8.44A11.685,11.685,0,0,0,.87,13.175c.912,2.026,2.526,3.629,3.7,5.5.187.3.473.064.44-.223a14.174,14.174,0,0,0-1.119-3.077c.615.67,1.127,1.8,1.585,2.4,1.171,1.54,2.2,3.113,3.288,4.7.118.173.3.1.322-.1a6.824,6.824,0,0,0-.049-1.762c-.088-.734-.962-3.176-.176-1.264a23.97,23.97,0,0,1,1.951,5.7c.042.322.392.284.371-.04-.06-.855.093-1.726.066-2.589-.018-.574-.169-1.139-.185-1.72A4.386,4.386,0,0,0,11.508,22c.84,2.035.866,4.2,1.445,6.278.033.112.164.133.2.015a8.352,8.352,0,0,1,.6-1.546C14.035,28.037,14.038,29.35,14.326,30.63Z" transform="translate(7.921 12.909)" fill="#fffad0" opacity="0.5" style="mix-blend-mode: overlay;isolation: isolate"/>
          <path id="Path_1665" data-name="Path 1665" d="M9.8,30.146c.031-2.155.066-4.3.03-6.457-.018-1.051-.193-2.086-.3-3.131.082.778.411,1.974.591,2.913a56.867,56.867,0,0,0,1.014,5.919c.078-.338.163-.676.248-1.017a25.2,25.2,0,0,0,.553-3.2c-.019-.618-.048-1.21-.055-1.733-.03-2.129.058-4.263-.081-6.384a12.854,12.854,0,0,0-.493-1.809,17.877,17.877,0,0,0-.152,1.8c-.012.114.157,2.33,0,1.134a16.731,16.731,0,0,0-.8-4.2c-.081-.188-.265-.058-.286.085-.181,1.249-.558,2.681-.609,3.915a10.847,10.847,0,0,0-.351-3.11c-.227-.9-.425-1.808-.65-2.708-.651-1.367-1.338-2.716-2.032-4.063.016.344.052.686.088,1.029-.006.3.141,3.347-.031,2.249-.072-.444-.088-.81-.182-1.25A27.883,27.883,0,0,0,5.24,5.914c0,1.065-.1,2.131-.194,3.191,0,.072-.094.283-.2.163C3.787,8,2.537,6.414,2.311,4.731a6.82,6.82,0,0,0-1.08-3.226C.859.979.445.486.027,0a7.994,7.994,0,0,1,.89,2.708c.009.085.006.166.009.25a.3.3,0,0,0,.033.066c0,.045-.019.088-.025.133,0,1.394-.652,2.58-.878,3.966a2.6,2.6,0,0,0,1.463,2.961,2.349,2.349,0,0,1,1.2,1.353c.212.926.019,1.874.236,2.8.129.559.278,1.114.431,1.666.254-.649.52-1.291.819-1.923.055-.114.175-.118.223,0,1.165,2.885.935,5.988,1.286,9.016a11.392,11.392,0,0,0,1.15-2.435,20.912,20.912,0,0,1,1.389,4.914c.012.159.03.32.043.479.227.791.459,1.584.64,2.388.327,1.457.606,2.94.854,4.42A18.178,18.178,0,0,0,9.8,30.146Z" transform="translate(8.589 45.73)" fill="#fffad0" opacity="0.8" style="mix-blend-mode: overlay;isolation: isolate"/>
        </g>
      </g>
      <g id="Group_1684" data-name="Group 1684" transform="translate(22.393 229.921)">
        <g id="Group_1677" data-name="Group 1677">
          <g id="Group_1672" data-name="Group 1672">
            <path id="Path_1666" data-name="Path 1666" d="M37.67,31.683A150.139,150.139,0,0,0,33.033,0H4.639A150.307,150.307,0,0,0,0,31.683s7.1,3.087,18.836,2.774C30.569,34.769,37.67,31.683,37.67,31.683Z" transform="translate(0.671 0.671)" fill="#fff"/>
            <path id="Path_1667" data-name="Path 1667" d="M21.168,35.822h0c-.549,0-1.108-.009-1.679-.022-.534.013-1.093.022-1.642.022C7.092,35.822.671,33.086.4,32.969a.668.668,0,0,1-.4-.646A152.417,152.417,0,0,1,4.665.484.673.673,0,0,1,5.309,0H33.7a.673.673,0,0,1,.645.484,152.365,152.365,0,0,1,4.663,31.838.668.668,0,0,1-.4.646C38.341,33.086,31.922,35.822,21.168,35.822Zm-1.679-1.365c.6.016,1.142.022,1.679.022a48.562,48.562,0,0,0,16.479-2.574A154.022,154.022,0,0,0,33.193,1.343H5.821A154.4,154.4,0,0,0,1.365,31.906,49.554,49.554,0,0,0,19.489,34.457Z" fill="#b3b5b8"/>
          </g>
          <g id="Group_1676" data-name="Group 1676">
            <g id="Group_1673" data-name="Group 1673" transform="translate(1.957 0)">
              <path id="Path_1668" data-name="Path 1668" d="M33.789,12.982A119.857,119.857,0,0,0,31.076,0H2.681A119.809,119.809,0,0,0,0,12.786,59.246,59.246,0,0,0,33.789,12.982Z" transform="translate(0.671 0.671)" fill="#adafb2"/>
              <path id="Path_1669" data-name="Path 1669" d="M17.791,16.68h0A58.619,58.619,0,0,1,.469,14.1a.668.668,0,0,1-.461-.748A121.26,121.26,0,0,1,2.708.486.671.671,0,0,1,3.353,0H31.747a.671.671,0,0,1,.645.486,122.1,122.1,0,0,1,2.732,13.061.673.673,0,0,1-.479.752A61.288,61.288,0,0,1,17.791,16.68ZM1.428,12.986a57.436,57.436,0,0,0,16.361,2.352h0A59.936,59.936,0,0,0,33.7,13.17c-1.017-6.2-2.1-10.447-2.466-11.827H3.864C3.5,2.71,2.437,6.894,1.428,12.986Z" fill="#545456"/>
            </g>
            <g id="Group_1674" data-name="Group 1674" transform="translate(0 25.95)">
              <path id="Path_1670" data-name="Path 1670" d="M.372,0C.221,1.848.093,3.75,0,5.733c0,0,7.1,3.086,18.836,2.774,11.733.313,18.835-2.774,18.835-2.774-.084-1.893-.208-3.706-.348-5.475A59.006,59.006,0,0,1,.372,0Z" transform="translate(0.671 0.671)" fill="#adafb2"/>
              <path id="Path_1671" data-name="Path 1671" d="M21.168,9.872c-.549,0-1.108-.009-1.679-.022-.534.013-1.093.022-1.642.022C7.092,9.872.671,7.135.4,7.018A.67.67,0,0,1,0,6.372C.088,4.509.21,2.626.375.615A.67.67,0,0,1,1.266.038,56.23,56.23,0,0,0,19.771,3.086,60,60,0,0,0,37.791.291a.66.66,0,0,1,.576.084.668.668,0,0,1,.295.5c.164,2.076.277,3.821.35,5.5a.668.668,0,0,1-.4.646C38.341,7.135,31.923,9.872,21.168,9.872ZM19.489,8.506c.6.016,1.142.022,1.679.022A48.747,48.747,0,0,0,37.649,5.955c-.063-1.285-.147-2.626-.26-4.138A61.266,61.266,0,0,1,19.771,4.428,57.906,57.906,0,0,1,1.643,1.584c-.115,1.507-.206,2.949-.278,4.371A49.429,49.429,0,0,0,19.489,8.506Z" fill="#545456"/>
            </g>
            <g id="Group_1675" data-name="Group 1675" transform="translate(0.73 16.649)">
              <path id="Path_1672" data-name="Path 1672" d="M.652,0C.419,1.7.2,3.484,0,5.379a59.122,59.122,0,0,0,36.236.238c-.2-1.9-.417-3.7-.645-5.4A59.191,59.191,0,0,1,.652,0Z" transform="translate(0.671 0.672)" fill="#adafb2"/>
              <path id="Path_1673" data-name="Path 1673" d="M19.027,9.677A57.882,57.882,0,0,1,.454,6.686a.67.67,0,0,1-.45-.7C.188,4.21.4,2.444.657.579A.67.67,0,0,1,1.531.033a56.828,56.828,0,0,0,17.483,2.7A60.009,60.009,0,0,0,36.073.24a.67.67,0,0,1,.855.555c.227,1.711.45,3.517.646,5.425a.671.671,0,0,1-.468.71A61.348,61.348,0,0,1,19.027,9.677ZM1.394,5.586A56.757,56.757,0,0,0,19.027,8.334,60,60,0,0,0,36.183,5.808q-.229-2.118-.484-4.063A61.318,61.318,0,0,1,19.013,4.08,58.49,58.49,0,0,1,1.88,1.553C1.7,2.93,1.538,4.259,1.394,5.586Z" fill="#545456"/>
            </g>
          </g>
          <path id="Path_1674" data-name="Path 1674" d="M8.4,0H6.336C5.195,5.795,2.926,11.452,1.974,17.273,1.133,22.419.511,27.59,0,32.775c.881.236,1.941.482,3.133.713A224,224,0,0,1,8.4,0Z" transform="translate(4.028 0.671)" fill="#fff" opacity="0.5" style="mix-blend-mode: screen;isolation: isolate"/>
          <path id="Path_1675" data-name="Path 1675" d="M.624,34.445c9.609-.3,15.311-2.762,15.311-2.762A150.139,150.139,0,0,0,11.3,0H0C.7,7.312,1.407,30.38.624,34.445Z" transform="translate(22.406 0.671)" fill="#b3b5b8" style="mix-blend-mode: multiply;isolation: isolate"/>
        </g>
        <g id="Group_1683" data-name="Group 1683" transform="translate(52.867 0)">
          <g id="Group_1678" data-name="Group 1678">
            <path id="Path_1676" data-name="Path 1676" d="M37.672,31.683A150.141,150.141,0,0,0,33.035,0H4.639A150.432,150.432,0,0,0,0,31.683s7.1,3.086,18.836,2.774C30.57,34.769,37.672,31.683,37.672,31.683Z" transform="translate(0.669 0.671)" fill="#fff"/>
            <path id="Path_1677" data-name="Path 1677" d="M21.165,35.822h0c-.547,0-1.107-.009-1.678-.022-.535.013-1.093.022-1.642.022C7.09,35.822.669,33.086.4,32.969a.668.668,0,0,1-.4-.646A152.726,152.726,0,0,1,4.663.484.673.673,0,0,1,5.308,0H33.7a.674.674,0,0,1,.645.484,152.485,152.485,0,0,1,4.663,31.838.668.668,0,0,1-.4.646C38.341,33.086,31.922,35.822,21.165,35.822Zm-1.678-1.365c.6.016,1.142.022,1.678.022a48.6,48.6,0,0,0,16.484-2.574A154.152,154.152,0,0,0,33.193,1.343H5.819A154.52,154.52,0,0,0,1.363,31.906,49.45,49.45,0,0,0,19.487,34.457Z" fill="#b3b5b8"/>
          </g>
          <g id="Group_1682" data-name="Group 1682">
            <g id="Group_1679" data-name="Group 1679" transform="translate(1.955 0)">
              <path id="Path_1678" data-name="Path 1678" d="M33.79,12.982A120.766,120.766,0,0,0,31.077,0H2.681A120.28,120.28,0,0,0,0,12.786,59.25,59.25,0,0,0,33.79,12.982Z" transform="translate(0.671 0.671)" fill="#adafb2"/>
              <path id="Path_1679" data-name="Path 1679" d="M17.789,16.68h0A58.6,58.6,0,0,1,.471,14.1a.669.669,0,0,1-.462-.748A121.727,121.727,0,0,1,2.708.486.671.671,0,0,1,3.353,0h28.4a.672.672,0,0,1,.644.486,122.816,122.816,0,0,1,2.731,13.061.671.671,0,0,1-.479.752A61.3,61.3,0,0,1,17.789,16.68ZM1.429,12.986a57.425,57.425,0,0,0,16.36,2.352h0A59.93,59.93,0,0,0,33.7,13.17c-1.018-6.2-2.1-10.447-2.464-11.827H3.864C3.5,2.71,2.439,6.894,1.429,12.986Z" fill="#545456"/>
            </g>
            <g id="Group_1680" data-name="Group 1680" transform="translate(0 25.95)">
              <path id="Path_1680" data-name="Path 1680" d="M.372,0C.224,1.848.093,3.75,0,5.733c0,0,7.1,3.086,18.836,2.774C30.57,8.82,37.672,5.733,37.672,5.733c-.087-1.893-.209-3.706-.35-5.475A59.006,59.006,0,0,1,.372,0Z" transform="translate(0.669 0.671)" fill="#adafb2"/>
              <path id="Path_1681" data-name="Path 1681" d="M21.165,9.872c-.547,0-1.107-.009-1.678-.022-.535.013-1.093.022-1.642.022C7.09,9.872.669,7.135.4,7.018A.668.668,0,0,1,0,6.372C.083,4.579.2,2.752.373.617a.663.663,0,0,1,.3-.508.672.672,0,0,1,.589-.07,56.25,56.25,0,0,0,18.5,3.048A60.017,60.017,0,0,0,37.789.291a.668.668,0,0,1,.869.586c.159,1.953.274,3.75.353,5.5a.668.668,0,0,1-.4.646C38.341,7.135,31.923,9.872,21.165,9.872ZM19.487,8.506c.6.016,1.142.022,1.678.022A48.78,48.78,0,0,0,37.649,5.955c-.066-1.328-.153-2.692-.263-4.138A61.251,61.251,0,0,1,19.768,4.428,57.975,57.975,0,0,1,1.643,1.586c-.121,1.575-.211,2.991-.28,4.37A49.45,49.45,0,0,0,19.487,8.506Z" fill="#545456"/>
            </g>
            <g id="Group_1681" data-name="Group 1681" transform="translate(0.73 16.649)">
              <path id="Path_1682" data-name="Path 1682" d="M.649,0C.417,1.7.2,3.484,0,5.379a59.123,59.123,0,0,0,36.236.238c-.2-1.9-.417-3.7-.646-5.4A59.2,59.2,0,0,1,.649,0Z" transform="translate(0.671 0.672)" fill="#adafb2"/>
              <path id="Path_1683" data-name="Path 1683" d="M19.027,9.677A57.924,57.924,0,0,1,.452,6.686.671.671,0,0,1,0,5.982c.2-1.9.419-3.7.652-5.4A.67.67,0,0,1,1.529.033a56.845,56.845,0,0,0,17.483,2.7A60.009,60.009,0,0,0,36.071.24a.671.671,0,0,1,.854.555c.23,1.711.453,3.517.649,5.425a.672.672,0,0,1-.47.71A61.324,61.324,0,0,1,19.027,9.677ZM1.395,5.586A56.773,56.773,0,0,0,19.027,8.334,59.973,59.973,0,0,0,36.182,5.808q-.227-2.118-.483-4.063A61.337,61.337,0,0,1,19.012,4.08,58.508,58.508,0,0,1,1.879,1.553C1.708,2.842,1.544,4.184,1.395,5.586Z" fill="#545456"/>
            </g>
          </g>
          <path id="Path_1684" data-name="Path 1684" d="M8.4,0H6.336C5.192,5.795,2.926,11.452,1.974,17.273,1.132,22.419.511,27.59,0,32.775c.879.236,1.937.482,3.133.713A223.811,223.811,0,0,1,8.4,0Z" transform="translate(4.028 0.671)" fill="#fff" opacity="0.5" style="mix-blend-mode: screen;isolation: isolate"/>
          <path id="Path_1685" data-name="Path 1685" d="M.624,34.445c9.608-.3,15.311-2.762,15.311-2.762A150.139,150.139,0,0,0,11.3,0H0C.7,7.312,1.4,30.38.624,34.445Z" transform="translate(22.406 0.671)" fill="#b3b5b8" style="mix-blend-mode: multiply;isolation: isolate"/>
        </g>
      </g>
      <g id="Group_1686" data-name="Group 1686" transform="translate(21.009 190.796)">
        <g id="Group_1685" data-name="Group 1685">
          <path id="Path_1686" data-name="Path 1686" d="M95.623,45.626C93.434,18.751,83.847,0,83.847,0H11.776S2.192,18.751,0,45.626c0,0,18.028,4.444,47.811,3.994C77.6,50.07,95.623,45.626,95.623,45.626Z" transform="translate(0.715 0.67)" fill="#079bd7"/>
          <path id="Path_1687" data-name="Path 1687" d="M52.762,50.994h0q-2.077,0-4.242-.033c-1.421.022-2.834.033-4.22.033C17.276,50.994.719,46.988.553,46.948L0,46.812l.046-.57C2.224,19.542,11.8.553,11.894.365L12.081,0H84.973l.187.365c.1.188,9.671,19.177,11.846,45.877l.048.57-.555.136C96.335,46.988,79.785,50.994,52.762,50.994Zm-4.247-1.376c1.453.022,2.864.031,4.241.033,24.11,0,39.785-3.194,42.866-3.879A135.559,135.559,0,0,0,84.144,1.341H12.91A135.517,135.517,0,0,0,1.433,45.773C4.691,46.5,22.033,50.019,48.515,49.619Z" fill="#004b6d"/>
        </g>
        <path id="Path_1688" data-name="Path 1688" d="M83.847,0H11.776S2.192,18.751,0,45.626c0,0,18.028,4.444,47.811,3.994,29.787.45,47.812-3.994,47.812-3.994C93.434,18.751,83.847,0,83.847,0ZM57.227,34.762c-.555,11.477-43.238,5.192-43.238,5.192-6.93,0-5.543-6.363-5.543-6.363S11.5,12.083,13.158,8.956s6.93-2.612,6.93-2.612l34.919-.031S57.779,23.285,57.227,34.762Z" transform="translate(0.715 0.67)" fill="#3ca7c3" opacity="0.4" style="mix-blend-mode: multiply;isolation: isolate"/>
        <path id="Path_1689" data-name="Path 1689" d="M8.039,48.5A148.049,148.049,0,0,0,27.1,45.626C24.909,18.751,15.322,0,15.322,0H0C2.334,16.215,6.665,32.212,8.039,48.5Z" transform="translate(69.24 0.67)" fill="#07487c" opacity="0.4" style="mix-blend-mode: multiply;isolation: isolate"/>
      </g>
      <g id="Group_1697" data-name="Group 1697" transform="translate(31.048 0)">
        <g id="Group_1691" data-name="Group 1691">
          <g id="Group_1690" data-name="Group 1690">
            <g id="Group_1687" data-name="Group 1687">
              <path id="Path_1690" data-name="Path 1690" d="M39.151.588C38.753.342,38.4.15,38.113,0c-.286.15-.641.342-1.039.588C17.741,12.521,11.256,38.339,7.513,59.289Q3.758,126.73,0,194.174a641.4,641.4,0,0,0,76.225,0q-3.766-67.441-7.513-134.883C64.964,38.333,58.494,12.552,39.151.588Z" transform="translate(0.671 0.673)" fill="#fff"/>
              <path id="Path_1691" data-name="Path 1691" d="M38.769,196.651h0c-12.626,0-25.455-.383-38.134-1.135A.672.672,0,0,1,0,194.809L7.514,59.925C11.566,37.214,18.276,12.489,37.394.689c.413-.254.784-.456,1.081-.612a.661.661,0,0,1,.621,0c.3.156.665.356,1.08.613C59.288,12.513,66,37.229,70.044,59.847l2.077,37.235q2.719,48.864,5.445,97.726a.673.673,0,0,1-.631.709C64.233,196.269,51.392,196.651,38.769,196.651ZM1.378,194.216c12.436.725,25.012,1.093,37.388,1.093h0c12.376,0,24.961-.368,37.418-1.093q-2.707-48.529-5.406-97.059L68.713,60C64.731,37.757,58.133,13.376,39.469,1.831c-.248-.154-.479-.286-.685-.4-.206.112-.438.245-.686.4C19.432,13.352,12.835,37.742,8.845,60.08Z" fill="#b3b5b8"/>
            </g>
            <g id="Group_1688" data-name="Group 1688" transform="translate(14.551 0.673)">
              <path id="Path_1692" data-name="Path 1692" d="M48.463,33.308C44.013,20.877,36.7,7.629,25.271.588,24.873.342,24.517.15,24.233,0c-.286.15-.641.342-1.039.588C11.754,7.658,4.447,20.88,0,33.305,16.209,34.035,32.256,34.035,48.463,33.308Z" fill="#0b67b2"/>
            </g>
            <path id="Path_1693" data-name="Path 1693" d="M39.151.588C38.753.342,38.4.15,38.113,0c-.286.15-.641.342-1.039.588C17.741,12.521,11.256,38.339,7.513,59.289Q3.758,126.73,0,194.174a641.4,641.4,0,0,0,76.225,0q-3.766-67.441-7.513-134.883C64.964,38.333,58.494,12.552,39.151.588Zm-1.038,13.7q0,87.254,0,174.513-15.8,0-31.583-.909,2.764-59.586,5.548-119.167c.42-7.778,1.469-18.262,1.469-18.262,3.421-14.879,8.219-34.763,20.6-43.334C38.994,3.774,38.113,14.29,38.113,14.29Z" transform="translate(0.671 0.673)" fill="#d1d3d4" opacity="0.9" style="mix-blend-mode: multiply;isolation: isolate"/>
            <g id="Group_1689" data-name="Group 1689" transform="translate(7.201 0.673)">
              <path id="Path_1694" data-name="Path 1694" d="M0,0C.022.01.069.036.069.036Z" transform="translate(31.583 0)" fill="none"/>
              <path id="Path_1695" data-name="Path 1695" d="M27.614.661c-12.38,8.57-17.176,28.454-20.6,43.334,0,0-1.048,10.484-1.468,18.262Q2.764,121.838,0,181.423q15.773.908,31.583.909,0-87.256,0-174.513S32.462-2.7,27.614.661Z" transform="translate(0 6.47)" fill="none"/>
              <path id="Path_1696" data-name="Path 1696" d="M30.53,59.255C26.783,38.3,20.316,12.537.969.552.6.324,0,0,0,0-.019.031,15.347,28.308,17.7,42.3q2.539,76.337,5.09,152.675c6.1-.253,9.158-.422,15.258-.84Q34.277,126.7,30.53,59.255Z" transform="translate(31.652 0.036)" fill="#d1d3d4" opacity="0.9" style="mix-blend-mode: multiply;isolation: isolate"/>
            </g>
            <path id="Path_1697" data-name="Path 1697" d="M17.717,0S12.43,7.632,9.186,20.246C5.715,33.754,4.533,48.158,3.967,62.164Q1.98,115.424,0,168.682c3.037.4,4.556.586,7.6.944-.308-24.018,0-48.055.749-72.06C9.315,66.6,7.154,29.624,17.717,0Z" transform="translate(13.668 15.716)" fill="#adafb2" style="mix-blend-mode: screen;isolation: isolate"/>
          </g>
        </g>
        <g id="Group_1692" data-name="Group 1692" transform="translate(5.663 59.902)" opacity="0.4">
          <path id="Path_1698" data-name="Path 1698" d="M4.094.111C3.312.069,2.919.046,2.135,0Q1.07,22.669,0,45.337c.849.051,1.271.072,2.119.118Q3.1,22.78,4.094.111Z" transform="translate(5.057 0.299)" fill="#3b3d3f"/>
          <path id="Path_1699" data-name="Path 1699" d="M4.978.145C3.715.09,3.082.063,1.82,0Q.909,22.678,0,45.354c1.365.069,2.047.1,3.414.159Q4.192,22.828,4.978.145Z" transform="translate(9.195 0.505)" fill="#3b3d3f"/>
          <path id="Path_1700" data-name="Path 1700" d="M3.368.069C2.582.042,2.2.031,1.41,0Q.7,22.689,0,45.373c.848.033,1.273.046,2.123.076Q2.747,22.761,3.368.069Z" transform="translate(14.625 0.727)" fill="#3b3d3f"/>
          <path id="Path_1701" data-name="Path 1701" d="M4.253.084C2.991.054,2.358.037,1.095,0L0,45.384c1.367.042,2.052.06,3.418.091Q3.833,22.779,4.253.084Z" transform="translate(18.764 0.857)" fill="#3b3d3f"/>
          <path id="Path_1702" data-name="Path 1702" d="M2.641.031C1.856.021,1.465.015.68,0Q.344,22.7,0,45.394c.848.016,1.276.025,2.125.036Q2.383,22.73,2.641.031Z" transform="translate(24.199 0.978)" fill="#3b3d3f"/>
          <path id="Path_1703" data-name="Path 1703" d="M3.282.019C2.114.016,1.533.013.366,0Q.182,22.7,0,45.4c1.264.012,1.893.018,3.157.022Q3.22,22.721,3.282.019Z" transform="translate(28.341 1.033)" fill="#3b3d3f"/>
          <path id="Path_1704" data-name="Path 1704" d="M2.437,0C1.461,0,.975.007,0,.009q.013,22.7.03,45.4c1.056,0,1.584,0,2.639-.007Q2.553,22.7,2.437,0Z" transform="translate(33.488 1.047)" fill="#3b3d3f"/>
          <path id="Path_1705" data-name="Path 1705" d="M2.917,0C1.75.019,1.166.027,0,.04q.2,22.7.384,45.4c1.265-.013,1.9-.021,3.158-.043Q3.229,22.7,2.917,0Z" transform="translate(37.79 0.99)" fill="#3b3d3f"/>
          <path id="Path_1706" data-name="Path 1706" d="M2.2,0C1.32.024.881.031,0,.052q.388,22.7.781,45.393c.953-.021,1.427-.031,2.382-.055Q2.685,22.694,2.2,0Z" transform="translate(42.571 0.902)" fill="#3b3d3f"/>
          <path id="Path_1707" data-name="Path 1707" d="M2.68,0C1.609.039,1.071.055,0,.088Q.558,22.782,1.117,45.473c1.157-.036,1.739-.057,2.9-.1Q3.347,22.687,2.68,0Z" transform="translate(46.635 0.761)" fill="#3b3d3f"/>
          <path id="Path_1708" data-name="Path 1708" d="M3.395,0C2.035.066,1.358.1,0,.153Q.745,22.837,1.488,45.52c1.469-.058,2.2-.09,3.673-.16Q4.281,22.678,3.395,0Z" transform="translate(51.178 0.537)" fill="#3b3d3f"/>
          <path id="Path_1709" data-name="Path 1709" d="M3.395,0C2.037.082,1.359.117,0,.19Q.958,22.865,1.923,45.541c1.47-.076,2.2-.12,3.67-.209Q4.5,22.665,3.395,0Z" transform="translate(56.435 0.253)" fill="#3b3d3f"/>
          <path id="Path_1710" data-name="Path 1710" d="M2.023,0C1.213.055.81.084,0,.136Q1.175,22.8,2.355,45.46c.879-.057,1.317-.087,2.2-.147Q3.292,22.687,2.031.061Z" transform="translate(61.69 0)" fill="#3b3d3f"/>
          <path id="Path_1711" data-name="Path 1711" d="M5.331.187C4.21.115,3.65.079,2.53,0L2.521.06Q1.258,22.686,0,45.313c1.217.085,1.824.124,3.04.2Q4.186,22.85,5.331.187Z" fill="#3b3d3f"/>
        </g>
        <g id="Group_1696" data-name="Group 1696" transform="translate(10.582 71.29)">
          <g id="Group_1695" data-name="Group 1695">
            <path id="Path_1712" data-name="Path 1712" d="M57.135,28.568A28.567,28.567,0,1,1,28.568,0,28.567,28.567,0,0,1,57.135,28.568Z" transform="translate(0 0.671)" fill="#898b8e" opacity="0.7" style="mix-blend-mode: multiply;isolation: isolate"/>
            <g id="Group_1693" data-name="Group 1693" transform="translate(1.19 0)">
              <path id="Path_1713" data-name="Path 1713" d="M53.413,26.706A26.706,26.706,0,1,1,26.706,0,26.7,26.7,0,0,1,53.413,26.706Z" transform="translate(0.671 0.671)" fill="red"/>
              <path id="Path_1714" data-name="Path 1714" d="M27.378,54.754A27.377,27.377,0,1,1,54.755,27.378,27.408,27.408,0,0,1,27.378,54.754Zm0-53.411A26.034,26.034,0,1,0,53.414,27.378,26.063,26.063,0,0,0,27.378,1.343Z" fill="#670f05"/>
            </g>
            <g id="Group_1694" data-name="Group 1694" transform="translate(6.221 5.564)">
              <path id="Path_1715" data-name="Path 1715" d="M43.352,21.676A21.676,21.676,0,1,1,21.676,0,21.675,21.675,0,0,1,43.352,21.676Z" transform="translate(0.671 0.671)" fill="#94d9f5"/>
              <path id="Path_1716" data-name="Path 1716" d="M22.347,44.693A22.346,22.346,0,1,1,44.694,22.347,22.372,22.372,0,0,1,22.347,44.693Zm0-43.35a21,21,0,1,0,21.006,21A21.028,21.028,0,0,0,22.347,1.343Z" fill="#7d7e81"/>
            </g>
            <path id="Path_1717" data-name="Path 1717" d="M21.676,0A21.675,21.675,0,1,0,43.352,21.676,21.675,21.675,0,0,0,21.676,0Zm0,38.6a18.6,18.6,0,1,1,18.6-18.6A18.6,18.6,0,0,1,21.676,38.6Z" transform="translate(6.892 6.236)" fill="#c9cacc" style="mix-blend-mode: multiply;isolation: isolate"/>
          </g>
          <path id="Path_1718" data-name="Path 1718" d="M4.1,10.865a20.887,20.887,0,0,0-4.1,9.6c.6.339,1.214.646,1.823.966a19.082,19.082,0,0,1,5-10.565C18.3-1.448,34.43,3.155,34.43,3.155,33.2,2.065,17.332-6.723,4.1,10.865Z" transform="translate(3.813 2.294)" fill="#fff" opacity="0.6" style="mix-blend-mode: screen;isolation: isolate"/>
          <path id="Path_1719" data-name="Path 1719" d="M0,0C.244,9.874,7.034,17.865,7.034,17.865A33.593,33.593,0,0,1,1.811.923C1.2.622.6.317,0,0Z" transform="translate(3.601 26.377)" fill="#fff" opacity="0.6" style="mix-blend-mode: screen;isolation: isolate"/>
        </g>
      </g>
      <g id="Group_1702" data-name="Group 1702" transform="translate(58.445 132.56)">
        <g id="Group_1699" data-name="Group 1699" transform="translate(0 5.306)">
          <g id="Group_1698" data-name="Group 1698" opacity="0.9" style="mix-blend-mode: multiply;isolation: isolate">
            <path id="Path_1720" data-name="Path 1720" d="M13.523.61A6.279,6.279,0,0,0,11.754,0,6.271,6.271,0,0,0,9.983.61C7.163,2.059,3.17,6.418,0,18.92L8.838,89.777s.686,5.656,2.916,9.376c2.23-3.721,2.918-9.376,2.918-9.376L23.508,18.92C20.339,6.418,16.346,2.059,13.523.61Z" fill="#d1d3d4"/>
          </g>
        </g>
        <g id="Group_1701" data-name="Group 1701" transform="translate(1.988 0)">
          <g id="Group_1700" data-name="Group 1700">
            <path id="Path_1721" data-name="Path 1721" d="M10.465.589A4.263,4.263,0,0,0,9.1,0a4.251,4.251,0,0,0-1.37.589C5.543,1.99,2.454,6.192,0,18.254L6.838,86.625a32.621,32.621,0,0,0,2.257,9.047,32.62,32.62,0,0,0,2.257-9.047l6.837-68.371C15.738,6.192,12.648,1.99,10.465.589Z" transform="translate(0.671 0.671)" fill="#fff"/>
            <path id="Path_1722" data-name="Path 1722" d="M9.766,97.014h0a.673.673,0,0,1-.606-.38,32.946,32.946,0,0,1-2.319-9.273L0,18.992a.645.645,0,0,1,.009-.2C2.024,8.909,4.722,2.82,8.034.7A4.921,4.921,0,0,1,9.621.016a.671.671,0,0,1,.289,0A4.949,4.949,0,0,1,11.5.695c3.314,2.125,6.013,8.213,8.021,18.1a.643.643,0,0,1,.01.2L12.689,87.363a32.841,32.841,0,0,1-2.319,9.271A.672.672,0,0,1,9.766,97.014ZM1.348,18.959,8.176,87.23a36.214,36.214,0,0,0,1.59,7.359,36.061,36.061,0,0,0,1.588-7.359l6.828-68.271C15.776,7.185,12.827,3.141,10.774,1.825a3.772,3.772,0,0,0-1.008-.464,3.809,3.809,0,0,0-1.009.465C6.7,3.143,3.756,7.186,1.348,18.959Z" fill="#b3b5b8"/>
          </g>
        </g>
        <path id="Path_1723" data-name="Path 1723" d="M1.494.589A4.264,4.264,0,0,0,.124,0C.085.006.04.028,0,.039V95.394c.042.093.081.188.124.278a32.621,32.621,0,0,0,2.257-9.047L9.218,18.254C6.767,6.192,3.677,1.99,1.494.589Z" transform="translate(11.63 0.671)" fill="#b3b5b8" style="mix-blend-mode: multiply;isolation: isolate"/>
      </g>
    </g>
  </g>
</svg>
