<svg xmlns="http://www.w3.org/2000/svg" width="650.722" height="642.796" viewBox="0 0 650.722 642.796">
  <g id="Group_1772" data-name="Group 1772" transform="translate(-17.512 -26.131)">
    <g id="Floor" transform="translate(17.512 308.634)">
      <ellipse id="Floor-2" data-name="Floor" cx="325.361" cy="180.146" rx="325.361" ry="180.146" fill="rgba(255,179,0,0.19)"/>
    </g>
    <g id="Shadows" transform="translate(37.605 452.937)">
      <ellipse id="Shadow" cx="108.839" cy="60.262" rx="108.839" ry="60.262" transform="translate(225.334 22.783)" fill="#e0e0e0"/>
      <ellipse id="Shadow-2" data-name="Shadow" cx="54.756" cy="30.318" rx="54.756" ry="30.318" transform="translate(475.166 16.418)" fill="#e0e0e0"/>
      <ellipse id="Shadow-3" data-name="Shadow" cx="103.663" cy="57.397" rx="103.663" ry="57.397" fill="#e0e0e0"/>
    </g>
    <g id="Plants" transform="translate(518.706 322.878)">
      <g id="Pot">
        <g id="Group_1715" data-name="Group 1715" transform="translate(4.941 83.954)">
          <g id="Group_1714" data-name="Group 1714">
            <g id="Group_1713" data-name="Group 1713">
              <g id="Group_1709" data-name="Group 1709" transform="translate(0 11.97)">
                <path id="Path_1736" data-name="Path 1736" d="M388.935,389.367c-14.664-14.964-23.278-75.855-8.976-87.723h72.774c14.3,11.864,5.694,72.737-8.96,87.709-.125.138-.269.274-.4.41-.168.167-.335.335-.5.495-.415.4-.854.794-1.325,1.179-.115.1-.234.182-.351.275-.359.282-.714.564-1.107.837a20.333,20.333,0,0,1-1.9,1.21c-12.062,6.965-31.617,6.965-43.679,0h0a20.248,20.248,0,0,1-1.908-1.22c-.365-.252-.694-.516-1.03-.778-.144-.115-.289-.221-.433-.341-.455-.372-.878-.75-1.277-1.137-.2-.184-.39-.378-.583-.569C389.162,389.6,389.039,389.484,388.935,389.367Z" transform="translate(-372.636 -301.644)" fill="#37474f"/>
              </g>
              <g id="Group_1710" data-name="Group 1710" transform="translate(1.194)">
                <path id="Path_1737" data-name="Path 1737" d="M446.057,300.436c16.6,9.586,16.6,25.128,0,34.716s-43.525,9.586-60.129,0-16.6-25.13,0-34.716S429.452,290.849,446.057,300.436Z" transform="translate(-373.474 -293.246)" fill="#455a64"/>
              </g>
              <g id="Group_1711" data-name="Group 1711" transform="translate(12.488 6.521)">
                <path id="Path_1738" data-name="Path 1738" d="M434.7,303.1c12.194,7.041,12.194,18.454,0,25.495s-31.964,7.039-44.158,0-12.193-18.454,0-25.495S422.508,296.061,434.7,303.1Z" transform="translate(-381.398 -297.821)" fill="#263238"/>
              </g>
              <g id="Group_1712" data-name="Group 1712" transform="translate(14.33 18.62)">
                <path id="Path_1739" data-name="Path 1739" d="M389.994,311.591c12.193-7.041,31.964-7.041,44.157,0a20.256,20.256,0,0,1,7.3,6.7,20.259,20.259,0,0,1-7.3,6.7c-12.193,7.039-31.964,7.039-44.157,0a20.246,20.246,0,0,1-7.3-6.7A20.243,20.243,0,0,1,389.994,311.591Z" transform="translate(-382.69 -306.31)" fill="#f5f5f5"/>
              </g>
            </g>
          </g>
        </g>
        <g id="Plants-2" data-name="Plants">
          <g id="Group_1719" data-name="Group 1719" transform="translate(41.132)">
            <g id="Group_1716" data-name="Group 1716">
              <path id="Path_1740" data-name="Path 1740" d="M412.645,322.958,402.2,315.53s-8.544-44.844-1.164-64.184S422.017,232.125,428.5,237.3s2.933,21.36.276,30.729c-3.2,11.281-13.386,61.791-6.205,79.7Z" transform="translate(-398.029 -234.34)" fill="#27debf"/>
            </g>
            <g id="Group_1717" data-name="Group 1717" opacity="0.63">
              <path id="Path_1741" data-name="Path 1741" d="M412.645,322.958,402.2,315.53s-8.544-44.844-1.164-64.184S422.017,232.125,428.5,237.3s2.933,21.36.276,30.729c-3.2,11.281-13.386,61.791-6.205,79.7Z" transform="translate(-398.029 -234.34)" fill="#07487c"/>
            </g>
            <g id="Group_1718" data-name="Group 1718" transform="translate(8.999 6.784)">
              <path id="Path_1742" data-name="Path 1742" d="M407.872,315.722a.872.872,0,0,0,.526-1c-8.469-38.352,9.01-74.008,9.187-74.363a.872.872,0,1,0-1.559-.78c-.18.362-17.937,36.549-9.33,75.517a.871.871,0,0,0,1.039.664A.853.853,0,0,0,407.872,315.722Z" transform="translate(-404.343 -239.1)" fill="#fff"/>
            </g>
          </g>
          <g id="Group_1726" data-name="Group 1726" transform="translate(50.545 37.062)">
            <g id="Group_1720" data-name="Group 1720" transform="translate(0.609)">
              <path id="Path_1743" data-name="Path 1743" d="M405.172,300.235s-1.162-3.532,4.025-4.425,7.18-5.211,7.668-12.449,2.671-12.434,9.179-13.5,11.747,2.208,15.975-1.049,15.154-11.134,24.258-7.548,6.119,11.356,1.384,16.4-6.106,6.738-2.483,14.935.985,15.853-7.39,17.768-13.054.935-13.185,10.125c-.117,8.2-1.786,15.891-10.359,19a43.364,43.364,0,0,1-21.193,2.089c-2.259-.345-4.843-1.033-6.5-2.707-1.74-1.752-1.374-3.7-1.374-5.987V300.235Z" transform="translate(-405.061 -260.344)" fill="#27debf"/>
            </g>
            <g id="Group_1721" data-name="Group 1721" transform="translate(0.609)" opacity="0.43">
              <path id="Path_1744" data-name="Path 1744" d="M405.172,300.235s-1.162-3.532,4.025-4.425,7.18-5.211,7.668-12.449,2.671-12.434,9.179-13.5,11.747,2.208,15.975-1.049,15.154-11.134,24.258-7.548,6.119,11.356,1.384,16.4-6.106,6.738-2.483,14.935.985,15.853-7.39,17.768-13.054.935-13.185,10.125c-.117,8.2-1.786,15.891-10.359,19a43.364,43.364,0,0,1-21.193,2.089c-2.259-.345-4.843-1.033-6.5-2.707-1.74-1.752-1.374-3.7-1.374-5.987V300.235Z" transform="translate(-405.061 -260.344)" fill="#07487c"/>
            </g>
            <g id="Group_1722" data-name="Group 1722" transform="translate(0 12.169)">
              <path id="Path_1745" data-name="Path 1745" d="M405.353,334.452a.719.719,0,0,0,.681-.49c15.244-45.26,49.741-63.541,50.088-63.719a.72.72,0,0,0-.661-1.278c-.352.181-35.353,18.7-50.79,64.539a.721.721,0,0,0,.681.949Z" transform="translate(-404.633 -268.883)" fill="#fff"/>
            </g>
            <g id="Group_1723" data-name="Group 1723" transform="translate(21.867 35.44)">
              <path id="Path_1746" data-name="Path 1746" d="M420.694,288.056a.694.694,0,0,0,.161-.018c9.952-2.273,25.881-1.043,26.041-1.035a.718.718,0,1,0,.114-1.432c-.661-.056-16.309-1.258-26.474,1.065a.719.719,0,0,0,.158,1.421Z" transform="translate(-419.976 -285.21)" fill="#fff"/>
            </g>
            <g id="Group_1724" data-name="Group 1724" transform="translate(7.661 58.282)">
              <path id="Path_1747" data-name="Path 1747" d="M416.82,302.994c4.548,0,9.372-.3,9.677-.316a.72.72,0,0,0,.673-.764.7.7,0,0,0-.762-.673c-.111.006-11.231.69-15.568.007a.72.72,0,0,0-.225,1.422A44.738,44.738,0,0,0,416.82,302.994Z" transform="translate(-410.009 -301.237)" fill="#fff"/>
            </g>
            <g id="Group_1725" data-name="Group 1725" transform="translate(23.384 16.593)">
              <path id="Path_1748" data-name="Path 1748" d="M424.915,288.362h.041a.716.716,0,0,0,.677-.757,54.877,54.877,0,0,0-3.2-15.157.72.72,0,0,0-1.341.523,54.473,54.473,0,0,1,3.108,14.713A.718.718,0,0,0,424.915,288.362Z" transform="translate(-421.041 -271.987)" fill="#fff"/>
            </g>
          </g>
          <g id="Group_1728" data-name="Group 1728" transform="translate(0 46.365)">
            <path id="Path_1749" data-name="Path 1749" d="M420.161,340.212s-9.424,3.527-22.11.81-15.757-10.47-15.757-10.47,9.033-9.4,17.034-9.925c0,0-12.415-2.092-24.032.51,0,0-7.343-2.705-5.952-14.968,0,0,6.911-5.037,22.821-3.063,0,0-7.973-5.628-21.947-7.289-1.1.011.388-15.964,1.72-23.085s3.976-6.022,9.692-5.406,23.695,6.549,25.839,10.649.036,14.48.036,14.48,5.229-4.317,6.384-9.526a19.853,19.853,0,0,1,10.923,4.515c5.038,4.274,3.573,6.968,1.94,11.2a47.96,47.96,0,0,1-6.607,11.939s5.362-1.927,10.448-14.694c0,0,5.271,9.766,6.2,16.772S431.08,334.5,420.161,340.212Z" transform="translate(-369.169 -266.872)" fill="#6acbe4"/>
            <g id="Group_1727" data-name="Group 1727" transform="translate(9.246 3.727)">
              <path id="Path_1750" data-name="Path 1750" d="M417.143,339.772a.72.72,0,0,1-.458-.614c-1.918-23.764-28.807-60.887-40.692-68.341a.721.721,0,1,1,.767-1.221c12.08,7.577,39.412,45.3,41.36,69.446a.72.72,0,0,1-.66.777A.738.738,0,0,1,417.143,339.772Z" transform="translate(-375.656 -269.487)" fill="#fff"/>
            </g>
          </g>
        </g>
      </g>
    </g>
    <g id="Chair" transform="translate(50.901 254.736)">
      <g id="Group_1741" data-name="Group 1741">
        <g id="Group_1736" data-name="Group 1736" transform="translate(1.814 142.295)">
          <g id="Group_1729" data-name="Group 1729" transform="translate(87.281 19.636)">
            <path id="Path_1751" data-name="Path 1751" d="M105.63,444.609a2.177,2.177,0,0,1-2.179-2.179v-140.1a2.179,2.179,0,0,1,4.358,0v140.1A2.177,2.177,0,0,1,105.63,444.609Z" transform="translate(-103.451 -300.146)" fill="#455a64"/>
          </g>
          <g id="Group_1730" data-name="Group 1730" transform="translate(131.003)">
            <path id="Path_1752" data-name="Path 1752" d="M179.269,399.471a2.175,2.175,0,0,1-2.025-1.38L134.282,289.351a2.178,2.178,0,1,1,4.052-1.6L181.3,396.493a2.179,2.179,0,0,1-2.027,2.979Z" transform="translate(-134.128 -286.369)" fill="#455a64"/>
          </g>
          <g id="Group_1731" data-name="Group 1731" transform="translate(5.899 9.414)">
            <path id="Path_1753" data-name="Path 1753" d="M211.435,383.6a2.171,2.171,0,0,1-1.583-.683l-79.941-84.6-79.8,84.239a2.179,2.179,0,1,1-3.163-3l81.382-85.909a2.174,2.174,0,0,1,1.581-.681h0a2.173,2.173,0,0,1,1.582.683l81.523,86.269a2.179,2.179,0,0,1-1.583,3.676Z" transform="translate(-46.351 -292.974)" fill="#455a64"/>
          </g>
          <g id="Group_1732" data-name="Group 1732" transform="translate(0.598)">
            <path id="Path_1754" data-name="Path 1754" d="M44.81,399.471a2.179,2.179,0,0,1-2.027-2.979L85.747,287.75a2.178,2.178,0,1,1,4.052,1.6L46.837,398.092A2.179,2.179,0,0,1,44.81,399.471Z" transform="translate(-42.631 -286.369)" fill="#455a64"/>
          </g>
          <g id="Group_1733" data-name="Group 1733" transform="translate(168.612 96.682)">
            <path id="Path_1755" data-name="Path 1755" d="M165.088,354.2l5.68,14.989a1.477,1.477,0,0,1,.051.383,1.443,1.443,0,0,1,0,.272,1.783,1.783,0,0,1-.857.946,3.808,3.808,0,0,1-3.456,0,1.508,1.508,0,0,1-.673-.707.031.031,0,0,0-.009-.026l-.043-.205-5.266-14.053Z" transform="translate(-160.516 -354.205)" fill="#3ca7c3"/>
          </g>
          <g id="Group_1734" data-name="Group 1734" transform="translate(0 96.682)">
            <path id="Path_1756" data-name="Path 1756" d="M47.95,354.2l-5.681,14.989a1.478,1.478,0,0,0-.051.383,1.446,1.446,0,0,0,0,.272,1.783,1.783,0,0,0,.857.946,3.811,3.811,0,0,0,3.458,0,1.516,1.516,0,0,0,.673-.707.031.031,0,0,1,.009-.026l.041-.205,5.266-14.053Z" transform="translate(-42.211 -354.205)" fill="#3ca7c3"/>
          </g>
          <g id="Group_1735" data-name="Group 1735" transform="translate(86.949 150.443)">
            <path id="Path_1757" data-name="Path 1757" d="M108.242,392.555v12.4a1.252,1.252,0,0,1-.737,1.026,3.931,3.931,0,0,1-3.553,0,1.25,1.25,0,0,1-.735-1.026v-12.4A5.326,5.326,0,0,1,108.242,392.555Z" transform="translate(-103.218 -391.925)" fill="#3ca7c3"/>
          </g>
        </g>
        <g id="Group_1740" data-name="Group 1740">
          <path id="Path_1758" data-name="Path 1758" d="M221.552,330.207c-.007-3.577-3.138-7.39-9.767-11.69-12.247-7.946-39.61-23.894-56.746-33.39a.181.181,0,0,0-.144-.14c-13.186-8-25.486-46.115-34.613-75.077-3.11-9.87-6.921-15.458-11.436-18.081-1.073-.623-5.023-2.8-5.906-3.329-8.955-5.366-20.709,1.08-35.35,9.093-13.487,7.383-24.024,16.832-26.143,41.9-1.291,15.267-.063,44.443,3.039,66.553l-.009-.02c4.489,36.939,10,37,18,43.183,13.768,10.637,44.781,25.592,57.846,30.732,23.706,9.324,43.078-5.054,57.515-12.184A335.844,335.844,0,0,0,216.1,345.095c3.613-2.624,5.483-5.276,5.444-8.074C221.531,335.911,221.555,331.364,221.552,330.207Z" transform="translate(-40.939 -186.529)" fill="#263238"/>
          <g id="Group_1737" data-name="Group 1737" transform="translate(15.618 89.444)">
            <path id="Path_1759" data-name="Path 1759" d="M173.179,334.2a336.264,336.264,0,0,0,38.262-22.667c8.214-5.966,7.458-12.069-4.316-19.707-8.774-5.692-8.319-6.194-74.447-42.543,0,0-84.293,49.745-80.667,58.931s47.217,31.7,63.652,38.169C139.369,355.711,158.741,341.334,173.179,334.2Z" transform="translate(-51.897 -249.287)" fill="#37474f"/>
          </g>
          <path id="Path_1760" data-name="Path 1760" d="M106.816,191.527c-8.872-4.656-20.4,1.675-34.666,9.489-9.137,5.008-16.923,10.943-21.652,22.048l-6.023-3.482c4.73-11.06,12.5-16.994,21.608-21.99,14.646-8.02,26.4-14.453,35.357-9.092C102.218,188.955,105.333,190.69,106.816,191.527Z" transform="translate(-39.435 -186.529)" fill="#455a64"/>
          <g id="Group_1738" data-name="Group 1738" transform="translate(6.058 3.412)">
            <path id="Path_1761" data-name="Path 1761" d="M71.841,200c21.914-11.993,37.367-20.515,46.634,8.889,9.127,28.962,21.427,67.073,34.613,75.077,0,0-4.27-3.616-37.067,21.166-10.436,7.886-23.1,14.346-31.418,19.3-16.3,9.716-26.18,13.605-27.742,12.31-8.617-7.143-13.282-69.768-11.162-94.842S58.354,207.385,71.841,200Z" transform="translate(-45.19 -188.923)" fill="#37474f"/>
          </g>
          <g id="Group_1739" data-name="Group 1739" transform="translate(6.058 3.412)" opacity="0.5">
            <path id="Path_1762" data-name="Path 1762" d="M71.841,200c21.914-11.993,37.367-20.515,46.634,8.889,9.127,28.962,21.427,67.073,34.613,75.077,0,0-22.613-.017-55.386,17.68-34.074,18.4-39.279,36.4-40.842,35.1-8.617-7.143-13.282-69.768-11.162-94.842S58.354,207.385,71.841,200Z" transform="translate(-45.19 -188.923)" fill="#455a64"/>
          </g>
        </g>
      </g>
    </g>
    <g id="Character" transform="translate(182.182 27.463)">
      <g id="Group_1754" data-name="Group 1754">
        <g id="Character-2" data-name="Character">
          <g id="Group_1743" data-name="Group 1743" transform="translate(197.152 99.397)">
            <g id="Group_1742" data-name="Group 1742" transform="translate(0 4.586)">
              <path id="Path_1763" data-name="Path 1763" d="M395.2,167.549c5.8-1.3,10.929-2.514,14.859-3.517,20.925-5.346,27.213-12.273,27.863-21.525,1.038-14.767-4.491-14.881-14.03-8.282A52,52,0,0,1,411,140.881c2.192-2.9,3.211-4.206,3.939-6.054,1.447-3.676-.509-6.037-1.783-6.662-.992-.486-2,2.069-5.461,4.887-4.435,3.613-8.031,4.3-11.717,9.307a9.71,9.71,0,0,1-5.71,3.639c-2.077.463-36.249,9.823-52.245,12.563-9.4-11.952-18.123-24.712-28.047-37.412-15.3-19.576-22.566-22.319-31.15-20.754l-7.45,24.565s50.371,59.315,50.964,60.057a13.661,13.661,0,0,0,15.269,4.86C359.324,183.512,382.277,173.514,395.2,167.549Z" transform="translate(-271.38 -100.024)" fill="#ffa8a7"/>
            </g>
            <path id="Path_1764" data-name="Path 1764" d="M275.215,96.806c17.881.784,23.186,10.812,32.354,21.93s29.169,39.649,29.169,39.649l48.789-10.213s-2.021,14.017,4.3,22.456c0,0-25.882,13.048-41.556,19.058-19.816,7.6-21.113,5.866-24.7,2.581-3.412-3.128-47.058-52.461-47.058-52.461Z" transform="translate(-269.749 -96.806)" fill="#37474f"/>
          </g>
          <path id="Path_1765" data-name="Path 1765" d="M134,126.3c4.641-14.057,9.747-14.64,16.07-4.917a51.987,51.987,0,0,0,9.4,11.047c-.928-3.513-1.375-5.108-1.348-7.095.056-3.949,2.761-5.395,4.177-5.487,1.1-.074,1.065,2.672,3.2,6.593,2.735,5.024,5.8,7.026,7.313,13.055.566,2.259,2.049,6.768,3.955,8.108,9.682,6.8,27.3,15.206,44.814,21.967,6.218-13.114,14.411-29.492,20.662-40.964,11.887-21.815,19.747-24.3,28.4-23.214l8.809,24.112s-46.977,62.036-47.527,62.81c-3.606,5.062-10.979,8.557-16.729,6.2-16.4-6.727-28.59-18.581-42.508-28.029-8.273-5.617-16.077-9.988-21.071-13.7C134.284,143.907,131.093,135.112,134,126.3Z" transform="translate(-133.051 6.155)" fill="#ffa8a7"/>
          <path id="Path_1766" data-name="Path 1766" d="M221.616,360.819c.385-18.532,5.965-32.276,6.4-37.421,0,0-1.365-110.222-1.365-128.1l93.988-3.832s-1.313,110.5-1.313,125.815-2.3,80.442-4.722,110.414h0l-.272,9.86-20.974,6.523s.391-2.883,0-16.875-9.824-62.448-10.7-74.752c-1.132-15.91,1.394-22.341,1.1-32.98s-6.595-80.214-6.595-80.214-11.772,68.36-14.7,91.574c-3.355,26.6-14.124,96.3-14.151,112.511,0,2.9.007,6.265.027,9.91.047,8.768-.245,11.087,1.16,14.475,2.461,5.935-18.551,9.659-19.527,5.444l-2.258-17.421v-.5h0V444.2C227.709,427.685,221.057,387.693,221.616,360.819Z" transform="translate(-95.404 42.843)" fill="#ffa8a7"/>
          <path id="Path_1767" data-name="Path 1767" d="M336.125,387.3a7.064,7.064,0,0,1-.291,5.189c-.725,1.518-8.657,5.99-19.355,5.269a44.547,44.547,0,0,1-22.123-7.732c-4.079-2.7-8.325-3.205-13.622-3.509s-12.254-2.945-13.416-5.422.175-6.746.175-6.746Z" transform="translate(-76.157 120.611)" fill="#37474f"/>
          <path id="Path_1768" data-name="Path 1768" d="M292.921,360.384q.417-.09.845-.175a3.334,3.334,0,0,1,1.411-.076,2.74,2.74,0,0,1,1.321.891,26.444,26.444,0,0,1,2.732,4.29c2.243,3.659,6.951,6.687,12.092,9.452,3.495,1.878,6.918,3.335,10.527,4.958,3.681,1.656,8.567,2.667,11.446,4.608,4.2,2.829,4.74,9.94-.041,12.746-4.126,2.421-14.983,5.047-26.37,1.821-6.2-1.757-13.088-8.385-21.229-9.022-5.178-.4-14.968-1.86-18.3-5.791-1.231-1.743.413-7.272,1.764-12.043,1.474-5.208,3.234-13.369,4.96-12.91.071,1.023-.128,1.283.544,1.977.637.66,1.5,1.082,2.193,1.675a13.677,13.677,0,0,1,2.863,4.12,3.075,3.075,0,0,0,1.471,1.593c.872.328,1.525-.222,2.289-.574a4.46,4.46,0,0,1,3.093-.221,19.333,19.333,0,0,0-.544-3.056,1.79,1.79,0,0,1-.077-.986,1.586,1.586,0,0,1,.663-.744A16.58,16.58,0,0,1,292.921,360.384Z" transform="translate(-76.125 114.134)" fill="#455a64"/>
          <path id="Path_1769" data-name="Path 1769" d="M269.335,413.764c.634.594.443,4.668-.255,5.764-.75,1.176-5.051,4.846-12.831,5.4-7.433.533-14.071-.469-18.435-3.241s-6.476-5.828-6.888-10.061.061-8.32-1.958-11.58c-1.863-3.01-4.833-6.4-5.48-8.034-1.407-3.549-.051-8.624-.051-8.624Z" transform="translate(-94.866 124.456)" fill="#37474f"/>
          <path id="Path_1770" data-name="Path 1770" d="M248.933,381.2a16.406,16.406,0,0,0,.857,4.715,43.15,43.15,0,0,0,4.554,9.314,38.02,38.02,0,0,0,3.1,4.373c2.248,2.677,5.041,4.873,7.421,7.438s4.4,5.68,4.589,9.126c.316,5.831-6.01,7.812-10.883,8.68a35.776,35.776,0,0,1-15.831-.8,14.537,14.537,0,0,1-10.664-11.619c-.269-1.618-.17-3.274-.362-4.9-.436-3.716-2.36-7.11-4.534-10.2a30.805,30.805,0,0,1-3.479-5.551c-1.521-3.61-.3-7.671.67-11.265.839-3.1,1.79-6.617,2.883-6.325.013,1.609-.006,1.776,1.149,2.868,1.461,1.381,1.525,3.456,3.068,4.676a21.378,21.378,0,0,1-1.085-4.146,2.366,2.366,0,0,1,.329-1.649,4.342,4.342,0,0,1,1.79-.958,35.755,35.755,0,0,1,7.081-1.611,21.057,21.057,0,0,1,6.91-.05,2.992,2.992,0,0,1,1.736,1,3.465,3.465,0,0,1,.62,1.993C248.956,377.24,248.883,379.647,248.933,381.2Z" transform="translate(-94.809 120.055)" fill="#455a64"/>
          <path id="Path_1771" data-name="Path 1771" d="M251.5,390.843c-2.171-1.625-7.036-1.648-9.7-1.363a16.122,16.122,0,0,0-7.561,2.654,1.726,1.726,0,0,1-2.226-.177h0a1.623,1.623,0,0,1,.165-2.477,16.4,16.4,0,0,1,8.507-3.153c6.546-.46,8.467.661,8.467.661S252.14,388.911,251.5,390.843Z" transform="translate(-91.179 125.658)" fill="#f5f5f5"/>
          <path id="Path_1772" data-name="Path 1772" d="M255.251,394.984c-2.731-1.613-8.08-1.382-10.741-1.1a15.144,15.144,0,0,0-7.353,2.8,1.725,1.725,0,0,1-2.226-.177h0a1.623,1.623,0,0,1,.164-2.477,17.042,17.042,0,0,1,8.693-3.4c6.545-.46,8.251.877,8.251.877S254.8,392.572,255.251,394.984Z" transform="translate(-89.939 127.492)" fill="#f5f5f5"/>
          <path id="Path_1773" data-name="Path 1773" d="M238.831,381.953c4.522-.466,6.441.04,8.228.691,1.154.646,1.913,2.469,1.172,2.93-1.458-.81-4.08-1.146-7.3-1a21.642,21.642,0,0,0-7.078,1.944c-.56.248-1.223.6-1.8.919a1.554,1.554,0,0,1-2.155-.67h0a1.455,1.455,0,0,1,.567-1.871A21.017,21.017,0,0,1,238.831,381.953Z" transform="translate(-91.927 123.768)" fill="#f5f5f5"/>
          <path id="Path_1774" data-name="Path 1774" d="M298.751,368.9s-.744-1.985-3.822-2.558c-2.356-.439-6.518,1.3-9.1,3.428a1.932,1.932,0,0,0,.279,3.191h0a1.928,1.928,0,0,0,2.2-.244A14.774,14.774,0,0,1,298.751,368.9Z" transform="translate(-68.39 117.18)" fill="#f5f5f5"/>
          <path id="Path_1775" data-name="Path 1775" d="M304.329,371.687a5.53,5.53,0,0,0-4.531-2.335s-6.151.177-9.958,3.727a1.889,1.889,0,0,0,.259,3.086h0a1.845,1.845,0,0,0,2.125-.247A14.8,14.8,0,0,1,304.329,371.687Z" transform="translate(-66.666 118.486)" fill="#f5f5f5"/>
          <path id="Path_1776" data-name="Path 1776" d="M309.911,374.205a6.193,6.193,0,0,0-4.7-2.108s-5.731.214-9.539,3.763a1.889,1.889,0,0,0,.261,3.086h0a1.843,1.843,0,0,0,2.124-.245C299.768,377.168,302.96,373.686,309.911,374.205Z" transform="translate(-64.187 119.654)" fill="#f5f5f5"/>
          <path id="Path_1777" data-name="Path 1777" d="M320.64,191.464s1.254,77.852,1.388,91.531,0,39.905,0,53.288c0,0-3.463,5.843-23.213,5.825s-22.6-5.473-22.6-5.473l-2.922-62.941-5.444,65.374a35.41,35.41,0,0,1-27.608,5.295c-16.266-3.506-18.655-8.352-18.655-8.352l3.2-144.251Z" transform="translate(-95.404 42.843)" fill="#37474f"/>
          <path id="Path_1778" data-name="Path 1778" d="M257.863,260.066l2.9-26.43s13.555-3.3,22.623-10.123c0,0-4.8,5.942-10.3,9.023s-8.144,4.357-8.144,4.357l-3.961,25.573-.7,49.843Z" transform="translate(-79.976 56.471)" fill="#263238"/>
          <g id="Group_1744" data-name="Group 1744" transform="translate(128.173 99.337)">
            <path id="Path_1779" data-name="Path 1779" d="M222.982,245.226c12.9,9.4,71.367,19.806,98.5,0,0,0-.627-75.8-2.754-115.919-.1-1.823-.224-3.584-.406-5.306-.06-.567-.141-1.134-.2-1.7a53.882,53.882,0,0,0-1.377-7.108c-.1-.385-.222-.77-.343-1.154-.264-.871-.547-1.722-.891-2.551-.184-.446-.366-.892-.567-1.317a12.9,12.9,0,0,0-.589-1.194,1,1,0,0,0-.1-.222c-.2-.386-.425-.77-.647-1.135-.244-.4-.486-.811-.77-1.216-.264-.365-.527-.75-.79-1.093-.305-.385-.629-.77-.973-1.134a11.908,11.908,0,0,0-.992-1.033c-.222-.222-.466-.445-.708-.667-.222-.2-.466-.406-.708-.587-.3-.264-.648-.507-.972-.75a24.5,24.5,0,0,0-3.423-2.025c-.324-.162-.668-.324-1.012-.466-.081-.04-.182-.061-.244-.1-.4-.162-.81-.324-1.214-.466a21.694,21.694,0,0,0-2.106-.688c-.73-.2-1.478-.385-2.269-.567-.871-.04-1.841-.06-2.9-.06-.667,0-1.4.02-2.146.04s-1.518.04-2.307.081c-10.146.445-24.708,2.085-36.392,3.584-.77.1-1.539.2-2.289.3q-1.033.122-2.005.244c-8.02,1.052-13.973,1.923-14.884,2.065a.58.58,0,0,1-.123.02c-2.632.668-5.062,1.3-7.026,1.884-5.367,1.579-1.378.222-2.553,5.406-3.462,15.23.567,70.6.567,70.6Z" transform="translate(-222.982 -96.764)" fill="#455a64"/>
          </g>
          <g id="Group_1747" data-name="Group 1747" transform="translate(141.954)">
            <g id="Group_1745" data-name="Group 1745">
              <path id="Path_1780" data-name="Path 1780" d="M239.371,67.592s4.169,19.591,5.842,22.809a8.861,8.861,0,0,0,5.127,4.133l-.291-13.781Z" transform="translate(-229.794 -9.832)" fill="#707070"/>
              <path id="Path_1781" data-name="Path 1781" d="M245.953,47.922a9.652,9.652,0,0,0-7.991,2.811c-3.432,3.509-1.515,14.495,2.759,25.254l7.853.9Z" transform="translate(-231.144 -18.226)" fill="#707070"/>
              <path id="Path_1782" data-name="Path 1782" d="M251.939,80.48c-1.575.941-3.821-2.085-5.764-4.117s-8.282-4.809-11.446,1.856c-3.222,6.791,2.792,15.766,7.785,17.332,8.6,2.7,9.894-2.818,9.894-2.818l.576,31.634c9.015,16.308,39.5,7.957,28.068-2.849l-.024-8.035s9.173.587,12.975,0c6.327-.978,8.928-5.359,10.847-12.206,3.083-11,4.253-19.881,1.638-41.513-2.866-23.71-30.444-23.957-45.337-14.583S251.939,80.48,251.939,80.48Z" transform="translate(-232.154 -21.811)" fill="#ffa8a7"/>
              <path id="Path_1783" data-name="Path 1783" d="M246.5,43.8c5.1-2.394,10.725-3.69,16.265-4.893,12.028-2.611,24.279-5.017,35.263-10.568,1.355-.686,2.8-1.438,4.306-1.24,2.9.381,4.166,3.889,4.281,6.808a24.063,24.063,0,0,1-1.046,8.007c1.558-1.856,4.74-1.6,6.469.1a7.993,7.993,0,0,1,1.873,6.754c-.708,5.385-4.834,9.868-9.71,12.261s-10.427,2.992-15.856,3.148a109.421,109.421,0,0,1-22.653-1.709,15.964,15.964,0,0,0-5.483-.4,4.958,4.958,0,0,0-4.095,3.252c-.8,2.992-1.629,23.36-5.815,23.444-.781.016-3.748-5.112-5.68-6.942-2.427-2.3-4.869-19.745-5.3-22.969a1.552,1.552,0,0,0-.335-.686c-2.736-3.832.476-10.293,3.854-12.392A34.793,34.793,0,0,1,246.5,43.8Z" transform="translate(-230.397 -27.065)" fill="#707070"/>
              <path id="Path_1784" data-name="Path 1784" d="M242.753,51.3a5.736,5.736,0,0,1-8.731-7.441Z" transform="translate(-232.651 -19.922)" fill="#707070"/>
              <path id="Path_1785" data-name="Path 1785" d="M274.667,94.589s-14.123-1.357-19.06-3.982c-3.3-1.756-6.026-4.8-6.824-6.753a22.257,22.257,0,0,0,3.877,7.966c3.612,4.615,22.007,8.014,22.007,8.014Z" transform="translate(-225.792 -2.917)" fill="#f28f8f"/>
            </g>
            <g id="Group_1746" data-name="Group 1746" transform="translate(36.021 41.117)">
              <path id="Path_1786" data-name="Path 1786" d="M266.252,66.631a2.832,2.832,0,1,1-2.831-2.947A2.877,2.877,0,0,1,266.252,66.631Z" transform="translate(-256.791 -52.611)" fill="#263238"/>
              <path id="Path_1787" data-name="Path 1787" d="M264.384,58.822l-6.054,3.341a3.63,3.63,0,0,1,1.411-4.82A3.373,3.373,0,0,1,264.384,58.822Z" transform="translate(-257.925 -55.485)" fill="#263238"/>
              <path id="Path_1788" data-name="Path 1788" d="M266.107,79.469l6.461,2.424a3.39,3.39,0,0,1-4.388,2.141A3.613,3.613,0,0,1,266.107,79.469Z" transform="translate(-254.532 -45.899)" fill="#f28f8f"/>
              <path id="Path_1789" data-name="Path 1789" d="M283.917,61.607,278.4,57.354a3.346,3.346,0,0,1,4.8-.737A3.662,3.662,0,0,1,283.917,61.607Z" transform="translate(-249.22 -55.915)" fill="#263238"/>
              <path id="Path_1790" data-name="Path 1790" d="M282.766,66.067a2.832,2.832,0,1,1-2.83-2.949A2.876,2.876,0,0,1,282.766,66.067Z" transform="translate(-249.768 -52.852)" fill="#263238"/>
              <path id="Path_1791" data-name="Path 1791" d="M272.6,63.769l.929,17.019,8.886-3.029Z" transform="translate(-251.683 -52.575)" fill="#f28f8f"/>
            </g>
          </g>
          <path id="Path_1792" data-name="Path 1792" d="M263.594,101.2c-20.88.329-26.3,12.632-32.441,25.667-6.062,12.857-21.78,42.482-21.78,42.482L170.06,151.568a30.948,30.948,0,0,1-13.2,16.865s18.564,15.579,34.514,26.984c13.53,9.676,21.391,14.684,26.575,11.224,3.85-2.571,42.225-52.714,42.225-52.714C269.933,138.636,272.022,112.75,263.594,101.2Z" transform="translate(-122.928 4.458)" fill="#37474f"/>
        </g>
        <g id="Group_1753" data-name="Group 1753" transform="translate(159.304 30.851)">
          <path id="Path_1793" data-name="Path 1793" d="M279.716,71.919c-.057,0-2.239-1.14-2.239-1.14l-2.185-3.131a2.43,2.43,0,0,1,2.212.162C278.5,68.515,279.716,71.919,279.716,71.919Z" transform="translate(-231.868 -40.744)" fill="#27debf"/>
          <path id="Path_1794" data-name="Path 1794" d="M279.716,71.919c-.057,0-2.239-1.14-2.239-1.14l-2.185-3.131a2.43,2.43,0,0,1,2.212.162C278.5,68.515,279.716,71.919,279.716,71.919Z" transform="translate(-231.868 -40.744)" opacity="0.65"/>
          <g id="Group_1749" data-name="Group 1749">
            <path id="Path_1795" data-name="Path 1795" d="M313.513,70.106a10.674,10.674,0,0,1-8.39,9.8l-3.525.61a23.246,23.246,0,0,1-4.669.366c-.152,0-.3,0-.473-.016-.259,0-.519-.03-.762-.046a10.006,10.006,0,0,1-1.3-.214,4.211,4.211,0,0,1-.657-.182,2.793,2.793,0,0,1-.564-.229,1,1,0,0,1-.228-.123,2.044,2.044,0,0,1-.275-.182,1.472,1.472,0,0,1-.351-.426l-1.206-2.473a2.794,2.794,0,0,0-2.868-1.372l-2.518.442a4.368,4.368,0,0,0-2.868,2.38s-.534,1.313-1.206,2.915-4.822,3.539-9.277,4.317l-3.525.626a7.915,7.915,0,0,1-2.151.077,5.976,5.976,0,0,1-1.174-.214c-.184-.046-.366-.107-.55-.168-.107-.046-.228-.091-.335-.137a6.037,6.037,0,0,1-.885-.443c-.961-.381-16.31-6.622-18.415-11.656-3.356-8.1,10.451-16.433,15.425-18.019v.016a8.869,8.869,0,0,1,1.77-.519l36.267-6.394a7.23,7.23,0,0,1,5.232.976c.931.6,4.348,2.61,5.768,3.463a2.97,2.97,0,0,1,.366.214c.2.123.4.259.594.4a.96.96,0,0,1,.184.152,5.835,5.835,0,0,1,.564.5,5.381,5.381,0,0,1,.61.717,3.451,3.451,0,0,1,.382.58,6.037,6.037,0,0,1,.457.885,7.267,7.267,0,0,1,.275.808v.03a4.177,4.177,0,0,1,.167.778.753.753,0,0,1,.031.184,5.82,5.82,0,0,1,.076.9Q313.65,64.759,313.513,70.106Z" transform="translate(-244.824 -48.711)" fill="#27debf"/>
            <g id="Group_1748" data-name="Group 1748" opacity="0.2">
              <path id="Path_1796" data-name="Path 1796" d="M313.513,70.106a10.674,10.674,0,0,1-8.39,9.8l-3.525.61a23.246,23.246,0,0,1-4.669.366c-.152,0-.3,0-.473-.016-.259,0-.519-.03-.762-.046a10.006,10.006,0,0,1-1.3-.214,4.211,4.211,0,0,1-.657-.182,2.793,2.793,0,0,1-.564-.229,1,1,0,0,1-.228-.123,2.044,2.044,0,0,1-.275-.182,1.472,1.472,0,0,1-.351-.426l-1.206-2.473a2.794,2.794,0,0,0-2.868-1.372l-2.518.442a4.368,4.368,0,0,0-2.868,2.38s-.534,1.313-1.206,2.915-4.822,3.539-9.277,4.317l-3.525.626a7.915,7.915,0,0,1-2.151.077,5.976,5.976,0,0,1-1.174-.214c-.184-.046-.366-.107-.55-.168-.107-.046-.228-.091-.335-.137a6.037,6.037,0,0,1-.885-.443c-.961-.381-16.31-6.622-18.415-11.656-3.356-8.1,10.451-16.433,15.425-18.019v.016a8.869,8.869,0,0,1,1.77-.519l36.267-6.394a7.23,7.23,0,0,1,5.232.976c.931.6,4.348,2.61,5.768,3.463a2.97,2.97,0,0,1,.366.214c.2.123.4.259.594.4a.96.96,0,0,1,.184.152,5.835,5.835,0,0,1,.564.5,5.381,5.381,0,0,1,.61.717,3.451,3.451,0,0,1,.382.58,6.037,6.037,0,0,1,.457.885,7.267,7.267,0,0,1,.275.808v.03a4.177,4.177,0,0,1,.167.778.753.753,0,0,1,.031.184,5.82,5.82,0,0,1,.076.9Q313.65,64.759,313.513,70.106Z" transform="translate(-244.824 -48.711)" fill="#07487c"/>
            </g>
            <path id="Path_1797" data-name="Path 1797" d="M308.235,53.277a7.325,7.325,0,0,0-4.683-.671L267.284,59a10.733,10.733,0,0,0-8.36,9.184l-10.406-6.012A34.87,34.87,0,0,1,259.2,55.734v.016a8.87,8.87,0,0,1,1.77-.519l36.267-6.394a7.23,7.23,0,0,1,5.232.976C303.4,50.41,306.816,52.424,308.235,53.277Z" transform="translate(-243.254 -48.711)" fill="#27debf"/>
            <path id="Path_1798" data-name="Path 1798" d="M308.235,53.277a7.325,7.325,0,0,0-4.683-.671L267.284,59a10.733,10.733,0,0,0-8.36,9.184l-10.406-6.012A34.87,34.87,0,0,1,259.2,55.734v.016a8.87,8.87,0,0,1,1.77-.519l36.267-6.394a7.23,7.23,0,0,1,5.232.976C303.4,50.41,306.816,52.424,308.235,53.277Z" transform="translate(-243.254 -48.711)" fill="#6acbe4"/>
          </g>
          <g id="Group_1750" data-name="Group 1750" transform="translate(15.567 3.771)">
            <path id="Path_1799" data-name="Path 1799" d="M308.874,58.306q.124,5.317,0,10.679a10.664,10.664,0,0,1-8.4,9.784l-3.525.621c-4.451.784-8.6.309-9.273-1.058l-1.206-2.473a2.808,2.808,0,0,0-2.87-1.378l-2.517.445a4.331,4.331,0,0,0-2.865,2.389l-1.213,2.9c-.668,1.6-4.82,3.539-9.271,4.324l-3.525.621a6.953,6.953,0,0,1-8.4-6.82q-.122-5.319,0-10.682a10.664,10.664,0,0,1,8.4-9.783l36.264-6.4A6.953,6.953,0,0,1,308.874,58.306Z" transform="translate(-255.746 -51.356)" fill="#27debf"/>
            <path id="Path_1800" data-name="Path 1800" d="M308.869,68.981a10.674,10.674,0,0,1-8.39,9.8l-3.525.61a23.245,23.245,0,0,1-4.669.366c-.152,0-.3,0-.473-.016-.259,0-.519-.03-.763-.046a10.008,10.008,0,0,1-1.3-.214,4.212,4.212,0,0,1-.657-.182,2.8,2.8,0,0,1-.564-.229,1,1,0,0,1-.228-.123,2.046,2.046,0,0,1-.275-.182,1.472,1.472,0,0,1-.351-.426l-1.206-2.473A2.794,2.794,0,0,0,283.6,74.49l-2.518.442a4.368,4.368,0,0,0-2.868,2.38s-.534,1.313-1.206,2.915-4.822,3.539-9.277,4.317l-3.525.626a7.915,7.915,0,0,1-2.151.077,5.977,5.977,0,0,1-1.174-.214c-.184-.046-.366-.107-.55-.168-.107-.046-.228-.091-.335-.137a6.039,6.039,0,0,1-.885-.443,6.983,6.983,0,0,1-3.311-5.935q-.115-5.332,0-10.681a10.684,10.684,0,0,1,8.406-9.794l36.268-6.394a7.325,7.325,0,0,1,4.683.671,2.97,2.97,0,0,1,.366.214c.2.123.4.259.594.4a.961.961,0,0,1,.184.153,5.834,5.834,0,0,1,.564.5,5.378,5.378,0,0,1,.61.717,3.449,3.449,0,0,1,.382.58,6.034,6.034,0,0,1,.458.885,7.274,7.274,0,0,1,.275.808v.03a4.18,4.18,0,0,1,.167.778.756.756,0,0,1,.031.184,5.82,5.82,0,0,1,.076.9Q309.005,63.634,308.869,68.981Z" transform="translate(-255.747 -51.358)" fill="#fff" opacity="0.43"/>
          </g>
          <g id="Group_1751" data-name="Group 1751" transform="translate(15.577 4.041)" opacity="0.7">
            <path id="Path_1801" data-name="Path 1801" d="M300.311,57.88a5.82,5.82,0,0,0-.076-.9.756.756,0,0,0-.031-.184,4.179,4.179,0,0,0-.167-.778v-.03a7.274,7.274,0,0,0-.275-.808,6.035,6.035,0,0,0-.458-.885,3.449,3.449,0,0,0-.382-.58,5.378,5.378,0,0,0-.61-.717,5.834,5.834,0,0,0-.564-.5.834.834,0,0,0-.172-.143L275.87,74.056a2.728,2.728,0,0,1,2.044,1.384l1.206,2.473a1.472,1.472,0,0,0,.351.426,2.046,2.046,0,0,0,.275.182,1,1,0,0,0,.228.123,2.8,2.8,0,0,0,.564.229,4.212,4.212,0,0,0,.657.182,10.01,10.01,0,0,0,1.3.214c.244.016.5.046.763.046.168.016.321.016.473.016a21.517,21.517,0,0,0,2.811-.13l13.815-13.815C300.378,62.881,300.375,60.38,300.311,57.88Z" transform="translate(-247.2 -51.206)" fill="#6acbe4"/>
            <path id="Path_1802" data-name="Path 1802" d="M290.393,52.955,258.714,84.634l.024.013c.107.046.228.091.335.137.184.061.366.123.55.168a5.976,5.976,0,0,0,1.174.214,7.916,7.916,0,0,0,2.151-.077l2.307-.409,33.132-33.132Z" transform="translate(-254.495 -51.547)" fill="#6acbe4"/>
            <path id="Path_1803" data-name="Path 1803" d="M269.1,56.122,255.773,69.45c-.029,2.672-.029,5.343.029,8.01a7.337,7.337,0,0,0,.945,3.5l27.51-27.511Z" transform="translate(-255.754 -50.738)" fill="#6acbe4"/>
          </g>
          <path id="Path_1804" data-name="Path 1804" d="M250.761,65.7a1.285,1.285,0,0,1-1.451,1.394,1.874,1.874,0,0,1-1.451-1.85,1.286,1.286,0,0,1,1.451-1.394A1.873,1.873,0,0,1,250.761,65.7Z" transform="translate(-243.534 -42.282)" fill="#263238"/>
          <g id="Group_1752" data-name="Group 1752" transform="translate(15.568 3.772)" opacity="0.5">
            <path id="Path_1805" data-name="Path 1805" d="M301.853,52.121h0a6.375,6.375,0,0,1,2.966.714,2.575,2.575,0,0,1,.309.181c.187.115.373.245.537.358l.067.05.027.034.08.061a5.543,5.543,0,0,1,1.055,1.106,2.67,2.67,0,0,1,.3.452l.017.033.021.03a5.312,5.312,0,0,1,.386.751,6.525,6.525,0,0,1,.218.626v.04l.034.11A3.478,3.478,0,0,1,308,57.3l.013.048.013.05v.06l.009.06a5.12,5.12,0,0,1,.067.8c.091,3.523.091,7.1,0,10.644a9.96,9.96,0,0,1-7.759,9.06l-3.526.611A23.263,23.263,0,0,1,292.87,79c-.191,0-.378,0-.586-.009h-.04c-.117,0-.242,0-.433-.016-.157,0-.314-.013-.466-.026l-.222-.017a9.28,9.28,0,0,1-1.221-.2,3.818,3.818,0,0,1-.6-.168,1.916,1.916,0,0,1-.41-.165l-.09-.043-.043-.017-.04-.03-.043-.026c-.068-.038-.127-.076-.143-.087a.813.813,0,0,1-.175-.194l-1.206-2.474a3.549,3.549,0,0,0-3.123-1.837,3.322,3.322,0,0,0-.563.048l-2.518.443a5.149,5.149,0,0,0-3.442,2.843s-.533,1.31-1.2,2.907c-.5,1.194-4.2,3.074-8.705,3.861l-3.515.624a7.894,7.894,0,0,1-1.26.108,6.523,6.523,0,0,1-.711-.04,5.138,5.138,0,0,1-1.046-.194c-.165-.04-.329-.1-.435-.128l-.182-.074-.17-.07a5.264,5.264,0,0,1-.771-.386,6.216,6.216,0,0,1-2.946-5.3c-.076-3.525-.076-7.106,0-10.645a9.968,9.968,0,0,1,7.776-9.062l36.269-6.394a7.051,7.051,0,0,1,1.241-.111m0-.763a7.894,7.894,0,0,0-1.377.123L264.21,57.874a10.684,10.684,0,0,0-8.406,9.794q-.113,5.355,0,10.681a6.983,6.983,0,0,0,3.311,5.935,6.04,6.04,0,0,0,.885.443c.107.046.228.091.335.137.184.061.366.123.55.168a5.976,5.976,0,0,0,1.174.214,7.18,7.18,0,0,0,.768.041,8.612,8.612,0,0,0,1.382-.118l3.525-.626c4.455-.778,8.606-2.715,9.277-4.317s1.206-2.915,1.206-2.915a4.368,4.368,0,0,1,2.868-2.38l2.518-.442a2.406,2.406,0,0,1,.43-.038,2.783,2.783,0,0,1,2.437,1.411l1.206,2.473a1.472,1.472,0,0,0,.351.426,2.049,2.049,0,0,0,.275.182,1,1,0,0,0,.228.123,2.8,2.8,0,0,0,.564.229,4.212,4.212,0,0,0,.657.182,10.008,10.008,0,0,0,1.3.214c.244.016.5.046.763.046.168.016.321.016.473.016q.286.009.586.009a23.886,23.886,0,0,0,4.083-.375l3.523-.61a10.673,10.673,0,0,0,8.392-9.8q.137-5.355,0-10.679a5.82,5.82,0,0,0-.076-.9.756.756,0,0,0-.031-.184,4.18,4.18,0,0,0-.167-.778v-.03a7.274,7.274,0,0,0-.275-.808,6.035,6.035,0,0,0-.458-.885,3.449,3.449,0,0,0-.382-.58,5.272,5.272,0,0,0-.61-.717,5.635,5.635,0,0,0-.564-.5.917.917,0,0,0-.184-.154c-.2-.137-.4-.274-.594-.4a2.97,2.97,0,0,0-.366-.214,7.182,7.182,0,0,0-3.308-.794Z" transform="translate(-255.747 -51.358)"/>
          </g>
          <path id="Path_1806" data-name="Path 1806" d="M255.854,78.313l-.185-7.675c.006-1.288-.1-2.541.007-3.861a10.192,10.192,0,0,1,1.187-3.73,11.084,11.084,0,0,1,5.795-5.127,24.683,24.683,0,0,1,3.8-.839l3.775-.684,15.129-2.577q7.57-1.257,15.164-2.376-7.521,1.541-15.063,2.953l-15.1,2.751-3.781.648a24.378,24.378,0,0,0-3.689.775,10.777,10.777,0,0,0-5.524,4.759,9.62,9.62,0,0,0-1.22,3.5c-.137,1.229-.066,2.541-.114,3.807Z" transform="translate(-240.23 -47.549)" fill="#fff"/>
        </g>
      </g>
    </g>
    <g id="Windows" transform="translate(103.769 26.131)">
      <g id="Group_1762" data-name="Group 1762" transform="translate(325.789)">
        <g id="Group_1755" data-name="Group 1755" transform="translate(0.763 0.763)" opacity="0.3">
          <path id="Path_1807" data-name="Path 1807" d="M490.928,27.255V211.761c-3.158,19.316-13.091,38.28-29.981,55.705a166.943,166.943,0,0,1-19.59,17.24,225.818,225.818,0,0,1-21.207,13.9c-27.906,16.156-60.953,27.538-96.075,34.221q-8.376,1.6-16.92,2.838V150.321c39.47-6.378,76.668-18.142,107.823-35.29,38.677-21.3,62.264-47.755,70.809-75.341,0-.016,0-.03.016-.03a91.581,91.581,0,0,0,3.951-12.542A.6.6,0,0,1,490.928,27.255Z" transform="translate(-307.154 -26.666)" fill="#6acbe4"/>
        </g>
        <g id="Group_1756" data-name="Group 1756">
          <path id="Path_1808" data-name="Path 1808" d="M306.619,336.774V149.9l.641-.1c40.39-6.528,77.588-18.7,107.577-35.206,37.221-20.5,61.566-46.356,70.412-74.788v-.647l.249-.01a90.86,90.86,0,0,0,3.737-11.975,1.36,1.36,0,0,1,2.682.312V211.989c-3.271,20.059-13.427,38.937-30.2,56.234a168.48,168.48,0,0,1-19.681,17.321A224.651,224.651,0,0,1,420.757,299.5c-27.283,15.8-59.687,27.34-96.314,34.31-5.571,1.066-11.276,2.022-16.953,2.842ZM308.144,151.2V335.011c5.365-.788,10.749-1.7,16.014-2.7,36.456-6.938,68.7-18.423,95.836-34.133a222.941,222.941,0,0,0,21.138-13.855,166.977,166.977,0,0,0,19.494-17.157c16.55-17.071,26.568-35.675,29.777-55.3l-.01-183a93.65,93.65,0,0,1-3.656,11.3l-.016.043c-8.955,28.832-33.557,55.015-71.149,75.717C385.593,132.428,348.458,144.619,308.144,151.2Z" transform="translate(-306.619 -26.131)" fill="#27debf"/>
        </g>
        <g id="Group_1760" data-name="Group 1760" transform="translate(42.074 77.247)">
          <g id="Group_1757" data-name="Group 1757" transform="translate(0 66.54)">
            <path id="Path_1809" data-name="Path 1809" d="M337.665,246.989a1.525,1.525,0,0,1-1.525-1.526V136.489a1.526,1.526,0,0,1,1.13-1.474c9.022-2.417,17.341-5.005,25.432-7.909a1.524,1.524,0,0,1,2.04,1.437V237.518a1.525,1.525,0,0,1-1.01,1.437c-8.191,2.936-16.587,5.547-25.67,7.981A1.506,1.506,0,0,1,337.665,246.989Zm1.526-109.33V243.468c7.9-2.162,15.289-4.47,22.5-7.026V130.7C354.5,133.223,347.11,135.51,339.191,137.659Z" transform="translate(-336.14 -127.018)" fill="#fff"/>
          </g>
          <g id="Group_1758" data-name="Group 1758" transform="translate(49.027 43.518)">
            <path id="Path_1810" data-name="Path 1810" d="M372.064,236.341a1.523,1.523,0,0,1-1.525-1.525V125.841a1.526,1.526,0,0,1,.9-1.394,229.389,229.389,0,0,0,20.988-10.763c1.555-.824,2.987-1.72,4.371-2.587a1.525,1.525,0,0,1,2.336,1.293V221.364a1.525,1.525,0,0,1-.715,1.293c-1.44.9-2.927,1.831-4.519,2.675a232.339,232.339,0,0,1-21.222,10.88A1.534,1.534,0,0,1,372.064,236.341Zm1.525-109.511V232.453c5.962-2.741,12.149-5.957,18.843-9.794,1.277-.678,2.486-1.412,3.656-2.142V115.122c-.706.42-1.431.835-2.183,1.234C386.7,120.488,380.028,123.927,373.589,126.831Z" transform="translate(-370.539 -110.865)" fill="#fff"/>
          </g>
          <g id="Group_1759" data-name="Group 1759" transform="translate(97.961)">
            <path id="Path_1811" data-name="Path 1811" d="M406.4,219.351a1.523,1.523,0,0,1-1.526-1.525V108.852a1.529,1.529,0,0,1,.553-1.176,165.594,165.594,0,0,0,12.881-11.808A118.59,118.59,0,0,0,430.7,80.98a1.526,1.526,0,0,1,2.774.877V190.83a1.529,1.529,0,0,1-.278.878,121.336,121.336,0,0,1-12.71,15.27A168.706,168.706,0,0,1,407.371,219,1.532,1.532,0,0,1,406.4,219.351Zm1.525-109.783V214.546c3.7-3.177,7.185-6.431,10.383-9.7a118.579,118.579,0,0,0,12.116-14.5V86.527A121.468,121.468,0,0,1,420.486,98,167.8,167.8,0,0,1,407.924,109.568Z" transform="translate(-404.873 -80.331)" fill="#fff"/>
          </g>
        </g>
        <g id="Group_1761" data-name="Group 1761" transform="translate(19.229 168.145)" opacity="0.3">
          <path id="Path_1812" data-name="Path 1812" d="M320.111,258.611l61.978-114.5,49.581,64.406S410.776,238.42,320.111,258.611Z" transform="translate(-320.111 -144.108)" fill="#6acbe4"/>
        </g>
      </g>
      <g id="Group_1771" data-name="Group 1771" transform="translate(0 28.265)">
        <g id="Group_1763" data-name="Group 1763" transform="translate(0 0)" opacity="0.3">
          <path id="Path_1813" data-name="Path 1813" d="M307.913,307.228c-56.589-3.02-111.683-16.461-155.028-40.324-48.777-26.869-73.586-61.929-74.41-97.128v-3.493L78.033,47.7C78,39.23,92.938,63.234,124.171,87.845c.731.594,1.479,1.159,2.228,1.739,1.739,1.343,3.525,2.655,5.37,3.966a217.751,217.751,0,0,0,21.269,13.275c43.177,23.786,98.028,37.213,154.4,40.279Z" transform="translate(-78.033 -45.963)" fill="#6acbe4"/>
        </g>
        <g id="Group_1764" data-name="Group 1764" transform="translate(0)">
          <path id="Path_1814" data-name="Path 1814" d="M79.616,47.058h0m-.058.81c1.7,1.186,5.2,4.866,8.881,8.727,7.645,8.03,19.2,20.166,34.77,32.435.547.445,1.1.874,1.662,1.3l.6.46c1.663,1.284,3.436,2.592,5.419,4A220.415,220.415,0,0,0,152.3,108.162c41.262,22.73,95.769,37.052,153.619,40.385l.463,157.069c-57.575-3.281-111.768-17.48-152.762-40.049C106.991,239.882,80.845,205.85,80,169.776v-3.5l-.443-118.41m-.654-1.9c-.586,0-.875.55-.871,1.735l.442,118.585v3.493c.824,35.2,25.633,70.26,74.41,97.128,43.346,23.863,98.44,37.3,155.028,40.324L307.44,147.1c-56.375-3.066-111.225-16.493-154.4-40.279A217.923,217.923,0,0,1,131.769,93.55c-1.846-1.311-3.631-2.624-5.37-3.966-.748-.58-1.5-1.144-2.228-1.739C97.309,66.679,82.5,45.962,78.9,45.963Z" transform="translate(-78.033 -45.963)" fill="#27debf"/>
        </g>
        <g id="Group_1765" data-name="Group 1765" transform="translate(12.495 62.367)">
          <path id="Path_1815" data-name="Path 1815" d="M249.466,265.878a1.468,1.468,0,0,1-.21-.013c-.459-.064-46.316-6.647-90.92-29.283-51.107-25.939-71.186-66.155-71.381-66.558a1.519,1.519,0,0,1-.155-.67V138.61a1.528,1.528,0,0,1,.281-.882L120.6,90.366a1.528,1.528,0,0,1,2.65.279l41.567,96.963L161.2,169.655a1.527,1.527,0,0,1,.619-1.548l33.513-23.589a1.526,1.526,0,0,1,2.189.466l53.252,89.456a1.522,1.522,0,0,1,.214.781l0,29.132a1.522,1.522,0,0,1-1.525,1.525ZM89.851,168.988c1.937,3.723,22.053,40.6,69.865,64.874,39.268,19.928,79.485,27.282,88.225,28.71l0-26.93-52.2-87.682L164.39,170.03l6.315,31.409a1.526,1.526,0,0,1-2.9.9L121.513,94.353,89.851,139.095Z" transform="translate(-86.8 -89.722)" fill="#fff"/>
        </g>
        <g id="Group_1766" data-name="Group 1766" transform="translate(155.047 108.916)">
          <path id="Path_1816" data-name="Path 1816" d="M206.35,161.728a15,15,0,0,1-2.876-.285c-9.183-1.8-16.654-11.852-16.654-22.41,0-5.6,2.115-10.561,5.8-13.6a13.561,13.561,0,0,1,11.438-2.772c9.184,1.8,16.655,11.854,16.655,22.412,0,5.6-2.115,10.56-5.8,13.6A13.33,13.33,0,0,1,206.35,161.728ZM201.2,125.438a10.324,10.324,0,0,0-6.642,2.356c-2.982,2.454-4.693,6.552-4.693,11.239,0,9.173,6.367,17.884,14.191,19.416a10.561,10.561,0,0,0,8.911-2.132c2.983-2.454,4.693-6.552,4.693-11.239,0-9.174-6.365-17.884-14.191-19.416A11.714,11.714,0,0,0,201.2,125.438Z" transform="translate(-186.82 -122.382)" fill="#fff"/>
        </g>
        <g id="Group_1770" data-name="Group 1770" transform="translate(11.097 21.799)">
          <g id="Group_1767" data-name="Group 1767" opacity="0.3">
            <path id="Path_1817" data-name="Path 1817" d="M85.819,77.434s13.9,24.417,42.636,35.031V98.673C100.9,85.642,85.819,61.258,85.819,61.258Z" transform="translate(-85.819 -61.258)" fill="#3ca7c3"/>
          </g>
          <g id="Group_1768" data-name="Group 1768" transform="translate(0 25)" opacity="0.3">
            <path id="Path_1818" data-name="Path 1818" d="M85.819,94.975s13.9,24.417,42.636,35.031V116.214C100.9,103.183,85.819,78.8,85.819,78.8Z" transform="translate(-85.819 -78.799)" fill="#3ca7c3"/>
          </g>
          <g id="Group_1769" data-name="Group 1769" transform="translate(0 50)" opacity="0.3">
            <path id="Path_1819" data-name="Path 1819" d="M85.819,112.516s13.9,24.417,42.636,35.031V133.755C100.9,120.724,85.819,96.34,85.819,96.34Z" transform="translate(-85.819 -96.34)" fill="#3ca7c3"/>
          </g>
        </g>
      </g>
    </g>
  </g>
</svg>
