<svg xmlns="http://www.w3.org/2000/svg" width="43.46" height="44.454" viewBox="0 0 43.46 44.454">
  <g id="Group_500" data-name="Group 500" transform="translate(0.5 0.524)">
    <g id="Group_499" data-name="Group 499" transform="translate(0)">
      <path id="Path_1446" data-name="Path 1446" d="M47.956,39.991v0L37.38.522a.7.7,0,0,0-.861-.5L26.991,2.577a.688.688,0,0,0-.334.221V1.284a.7.7,0,0,0-.7-.7H6.226a.7.7,0,0,0-.7.7v40.86a.7.7,0,0,0,.7.7H25.952a.7.7,0,0,0,.7-.7V4.052L37.068,42.908a.7.7,0,0,0,.681.522.73.73,0,0,0,.18-.024l9.527-2.553A.7.7,0,0,0,47.956,39.991ZM15.385,41.44H6.931V1.989h8.454Zm9.863,0H16.794V1.989h8.454Zm13,.423L28.036,3.755,36.2,1.566l10.21,38.108Z" transform="translate(-5.522 0)" fill="#3ca7c3" stroke="#3ca7c3" stroke-width="1"/>
    </g>
  </g>
</svg>
