<svg xmlns="http://www.w3.org/2000/svg" width="119.552" height="85.927" viewBox="0 0 119.552 85.927">
  <g id="Layer_x0020_1" transform="translate(-5.84 -25.418)">
    <g id="_539385136" transform="translate(5.84 25.418)">
      <g id="Group_1576" data-name="Group 1576">
        <path id="Path_1531" data-name="Path 1531" d="M2073.708,4284h101.065a3.718,3.718,0,0,1,3.707,3.708v65.482a3.715,3.715,0,0,1-3.707,3.708H2073.708a3.715,3.715,0,0,1-3.708-3.708v-65.482A3.718,3.718,0,0,1,2073.708,4284Z" transform="translate(-2064.464 -4284)" fill="#07487c" fill-rule="evenodd"/>
        <path id="Path_1532" data-name="Path 1532" d="M985.913,19093.561h113.726a2.921,2.921,0,0,0,2.913-2.912v-4.736a2.921,2.921,0,0,0-2.913-2.912H985.913a2.921,2.921,0,0,0-2.913,2.912v4.736A2.921,2.921,0,0,0,985.913,19093.561Z" transform="translate(-983 -19007.633)" fill="#fff" fill-rule="evenodd"/>
        <path id="Path_1533" data-name="Path 1533" d="M3103,5286h97.959v62.691H3103Z" transform="translate(-3092.203 -5280.897)" fill="#fff" fill-rule="evenodd"/>
        <g id="Group_1574" data-name="Group 1574" transform="translate(22.418 70.56)">
          <path id="Path_1534" data-name="Path 1534" d="M5385,18139h8.52v4.809H5385Z" transform="translate(-5385 -18139)" fill="#205081" fill-rule="evenodd"/>
          <path id="Path_1535" data-name="Path 1535" d="M18383,18139h8.52v4.809H18383Z" transform="translate(-18316.805 -18139)" fill="#205081" fill-rule="evenodd"/>
        </g>
        <g id="Group_1575" data-name="Group 1575" transform="translate(0 75.367)">
          <path id="Path_1536" data-name="Path 1536" d="M9946,19083h28.259v3.344H9946Z" transform="translate(-9900.354 -19083)" fill="#c5c7cb" fill-rule="evenodd"/>
          <path id="Path_1537" data-name="Path 1537" d="M1101.106,20538.381H984.446A2.908,2.908,0,0,1,983,20538v.238a2.923,2.923,0,0,0,2.913,2.914h113.726a2.923,2.923,0,0,0,2.913-2.914V20538A2.908,2.908,0,0,1,1101.106,20538.381Z" transform="translate(-983 -20530.592)" fill="#c5c7cb" fill-rule="evenodd"/>
        </g>
      </g>
      <g id="Group_1577" data-name="Group 1577" transform="translate(83.083 10.114)">
        <path id="Path_1538" data-name="Path 1538" d="M17297,6270h12.4v7.97H17297Z" transform="translate(-17297 -6270)" fill="#afb0b5" fill-rule="evenodd"/>
        <path id="Path_1539" data-name="Path 1539" d="M17335,8258h15.309v1.706H17335Z" transform="translate(-17334.807 -8247.875)" fill="#8e8e93" fill-rule="evenodd"/>
        <path id="Path_1540" data-name="Path 1540" d="M17335,8941h20.309v1.14H17335Z" transform="translate(-17334.807 -8927.397)" fill="#afb0b5" fill-rule="evenodd"/>
      </g>
      <g id="Group_1578" data-name="Group 1578" transform="translate(83.083 28.84)">
        <path id="Path_1541" data-name="Path 1541" d="M17297,9947h12.4v7.97H17297Z" transform="translate(-17297 -9947)" fill="#afb0b5" fill-rule="evenodd"/>
        <path id="Path_1542" data-name="Path 1542" d="M17335,11935h15.309v1.706H17335Z" transform="translate(-17334.807 -11924.875)" fill="#8e8e93" fill-rule="evenodd"/>
        <path id="Path_1543" data-name="Path 1543" d="M17335,12618h20.309v1.14H17335Z" transform="translate(-17334.807 -12604.397)" fill="#afb0b5" fill-rule="evenodd"/>
      </g>
      <g id="Group_1579" data-name="Group 1579" transform="translate(83.083 47.566)">
        <path id="Path_1544" data-name="Path 1544" d="M17297,13624h12.4v7.97H17297Z" transform="translate(-17297 -13624)" fill="#afb0b5" fill-rule="evenodd"/>
        <path id="Path_1545" data-name="Path 1545" d="M17335,15612h15.309v1.706H17335Z" transform="translate(-17334.807 -15601.875)" fill="#8e8e93" fill-rule="evenodd"/>
        <path id="Path_1546" data-name="Path 1546" d="M17335,16295h20.309v1.141H17335Z" transform="translate(-17334.807 -16281.397)" fill="#afb0b5" fill-rule="evenodd"/>
      </g>
      <path id="Path_1547" data-name="Path 1547" d="M3103,15727h97.959v9.523H3103Z" transform="translate(-3092.203 -15668.724)" fill="#afb0b5" fill-rule="evenodd"/>
      <path id="Path_1548" data-name="Path 1548" d="M4052,16293h1.283v3.748H4052Zm2.862,0h1.283v3.748h-1.283Z" transform="translate(-4036.37 -16231.841)" fill="#fff" fill-rule="evenodd"/>
      <path id="Path_1549" data-name="Path 1549" d="M5800,16522h68.895v1.42H5800Z" transform="translate(-5775.468 -16459.676)" fill="#fff" fill-rule="evenodd"/>
      <path id="Path_1550" data-name="Path 1550" d="M5800,16522h41.75v1.42H5800Z" transform="translate(-5775.468 -16459.676)" fill="#ff576b" fill-rule="evenodd"/>
      <path id="Path_1551" data-name="Path 1551" d="M20599.7,16211v4.588l-2.266-1.441v-1.609Zm-2.785,3.146h-.91v-1.609h.91Z" transform="translate(-20496.115 -16150.261)" fill="#fff" fill-rule="evenodd"/>
      <path id="Path_1552" data-name="Path 1552" d="M4328,6295h59.213v33.352H4328Z" transform="translate(-4310.965 -6284.759)" fill="#ffb300" fill-rule="evenodd"/>
      <path id="Path_1553" data-name="Path 1553" d="M4328,13379h15.309v1.706H4328Z" transform="translate(-4310.965 -13332.682)" fill="#8e8e93" fill-rule="evenodd"/>
      <path id="Path_1554" data-name="Path 1554" d="M4328,14062h51.961v1.141H4328Z" transform="translate(-4310.965 -14012.202)" fill="#afb0b5" fill-rule="evenodd"/>
      <path id="Path_1555" data-name="Path 1555" d="M4328,14683h31.34v1.142H4328Z" transform="translate(-4310.965 -14630.041)" fill="#afb0b5" fill-rule="evenodd"/>
      <g id="Group_1580" data-name="Group 1580" transform="translate(39.978 11.841)">
        <path id="Path_1556" data-name="Path 1556" d="M8839.666,8261a6.675,6.675,0,1,1-4.711,1.955v0A6.652,6.652,0,0,1,8839.666,8261Zm4,2.669a5.655,5.655,0,1,0,1.655,4A5.623,5.623,0,0,0,8843.663,8263.669Z" transform="translate(-8833 -8252.587)" fill="#fff"/>
        <path id="Path_1557" data-name="Path 1557" d="M9899,8908l3.8,3.371-3.8,3.371Z" transform="translate(-9893.571 -8896.292)" fill="#fff" fill-rule="evenodd"/>
        <path id="Path_1558" data-name="Path 1558" d="M18264,6609l2.551,2.261-2.551,2.261Z" transform="translate(-18215.971 -6609)" fill="#fff" fill-rule="evenodd"/>
        <path id="Path_1559" data-name="Path 1559" d="M18264,10286l2.551,2.262-2.551,2.261Z" transform="translate(-18215.971 -10267.273)" fill="#fff" fill-rule="evenodd"/>
        <path id="Path_1560" data-name="Path 1560" d="M18264,13963l2.551,2.262-2.551,2.261Z" transform="translate(-18215.971 -13925.547)" fill="#fff" fill-rule="evenodd"/>
      </g>
    </g>
  </g>
</svg>
