<svg xmlns="http://www.w3.org/2000/svg" width="98.879" height="142.652" viewBox="0 0 98.879 142.652">
  <g id="lecture" transform="translate(-33.122 -15.989)">
    <g id="Group_1569" data-name="Group 1569" transform="translate(72.205 44.351)">
      <path id="Path_1489" data-name="Path 1489" d="M396.691,320.34,388.8,334.395V319.6Z" transform="translate(-336.895 -263.379)" fill="#f9b54c"/>
      <path id="Path_1490" data-name="Path 1490" d="M241.113,153.228c0,6.9-4.562,9.124-10.356,9.124s-10.356-2.219-10.356-9.124,4.562-16.028,10.356-16.028S241.113,146.324,241.113,153.228Z" transform="translate(-220.4 -137.2)" fill="#f9b54c"/>
    </g>
    <path id="Path_1491" data-name="Path 1491" d="M238.162,181.786l-.493,28.48-3.206,9.37-5.795,16.4H226.2l-5.795-16.028L215.6,206.568V184.745l1.6-3.945.123.123.616.616,6.411,6.534,1.11,1.11,1.973-1.11.123-.123,1.726-.986h0l7.767-4.438.74-.37h0Z" transform="translate(-144.875 -123.01)" fill="#e6e9ee"/>
    <path id="Path_1492" data-name="Path 1492" d="M237.819,204l-2.219,2.836,2.712,3.452h5.918l2.712-3.452L244.724,204Z" transform="translate(-158.71 -139.06)" fill="#f1543f"/>
    <path id="Path_1493" data-name="Path 1493" d="M243.568,258.552l-2.836,3.329h0L236.91,266.2h-3.452l-3.822-4.315h0l-2.836-3.329.37-2.343.986-6.165,1.356-8.877h0l2.712-16.768h5.918l2.712,16.768h0l1.356,8.507.986,6.411Z" transform="translate(-152.622 -153.172)" fill="#ff7058"/>
    <path id="Path_1494" data-name="Path 1494" d="M153.378,238.691c-.74.493-1.479,6.165-2.219,13.685-.123,0-.123,0-.247-.123a49.98,49.98,0,0,1-11.713-8.507c1.233-16.768,2.466-30.946,2.466-30.946h0Z" transform="translate(-92.023 -145.147)" fill="#055290"/>
    <path id="Path_1495" data-name="Path 1495" d="M179.749,227.456h-1.356a7.03,7.03,0,0,1-1.6-.123,53.039,53.039,0,0,1-20.1-5.548c-.123,0-.123,0-.247-.123a279.392,279.392,0,0,0-9.247-39.33h0c15.165-3.206,22.809-12.7,23.672-13.809h0A.121.121,0,0,1,171,168.4v.247a19.993,19.993,0,0,0-.37,4.315c0,1.726.123,3.7.247,5.795h0c0,.37.123.863.123,1.233h0c.616,6.658,2.1,14.918,3.452,22.562h0c2.466,13.069,5.178,24.781,5.178,24.781C179.749,227.333,179.749,227.333,179.749,227.456Z" transform="translate(-97.557 -114.432)" fill="#07487c"/>
    <path id="Path_1496" data-name="Path 1496" d="M211.847,227.456h-1.356a7.03,7.03,0,0,1-1.6-.123c-.74-1.356-1.479-2.712-2.219-4.192h0c-.863-1.849-1.726-3.7-2.466-5.548a238.726,238.726,0,0,1-10.6-32.425c1.233.123,4.808-1.48,4.808-1.48L193.6,178.14c5.055-1.233,8.63-8.014,9.37-9.493a.382.382,0,0,0,.123-.247v.247a19.994,19.994,0,0,0-.37,4.315c0,1.726.123,3.7.247,5.795h0c0,.37.123.863.123,1.233h0c.616,6.658,2.1,14.918,3.452,22.562h0c2.466,13.069,5.178,24.781,5.178,24.781C211.847,227.333,211.847,227.333,211.847,227.456Z" transform="translate(-129.656 -114.432)" fill="#acb3ba"/>
    <path id="Path_1497" data-name="Path 1497" d="M336.7,244.7a48.232,48.232,0,0,1-11.836,8.507c-.123,0-.123.123-.247.123-.74-7.644-1.479-13.192-2.219-13.685L334.113,214h0S335.346,227.932,336.7,244.7Z" transform="translate(-218.756 -145.977)" fill="#07487c"/>
    <path id="Path_1498" data-name="Path 1498" d="M287.625,181.932h0a269.516,269.516,0,0,0-9.247,39.453c-.123,0-.123.123-.247.123a51.823,51.823,0,0,1-19.973,5.548c-.493,0-1.11.123-1.6.123H255.2v-.247s2.712-11.589,5.178-24.781h0c1.479-7.767,2.836-15.9,3.452-22.562h0c0-.37.123-.863.123-1.233h0c.123-1.726.247-3.206.247-4.685a17.1,17.1,0,0,0-.37-5.425h0V168h0v.123h0A42.779,42.779,0,0,0,287.625,181.932Z" transform="translate(-172.269 -114.156)" fill="#055290"/>
    <path id="Path_1499" data-name="Path 1499" d="M273.447,184.491a260.346,260.346,0,0,1-10.6,32.426c-.863,1.973-1.6,3.822-2.466,5.548h0c-.74,1.479-1.479,2.836-2.219,4.192-.493,0-1.11.123-1.6.123H255.2v-.247s2.712-11.589,5.178-24.781h0c1.479-7.767,2.836-15.9,3.452-22.562h0c0-.37.123-.863.123-1.233h0c.123-1.726.247-3.206.247-4.685a17.1,17.1,0,0,0-.37-5.425h0V167.6h0a.382.382,0,0,0,.123.247h0c.74,1.479,4.315,8.26,9.37,9.617l-4.562,5.671S272.214,184.737,273.447,184.491Z" transform="translate(-172.269 -113.879)" fill="#ced5e0"/>
    <g id="Group_1570" data-name="Group 1570" transform="translate(72.286 53.844)">
      <path id="Path_1500" data-name="Path 1500" d="M263,168s2.219,5.055-9,10.973l5.055,7.644C259.055,186.74,267.192,175.151,263,168Z" transform="translate(-243.724 -168)" fill="#fff"/>
      <path id="Path_1501" data-name="Path 1501" d="M221.814,168s-2.219,5.055,9,10.973l-5.055,7.644C225.759,186.74,217.745,175.151,221.814,168Z" transform="translate(-220.662 -168)" fill="#fff"/>
    </g>
    <g id="Group_1571" data-name="Group 1571" transform="translate(65.645 24.131)">
      <path id="Path_1502" data-name="Path 1502" d="M237.277,84.669c0,9.987-6.041,22.932-13.439,22.932S210.4,94.655,210.4,84.669,216.441,71.6,223.839,71.6,237.277,74.682,237.277,84.669Z" transform="translate(-206.922 -71.6)" fill="#ffd05b"/>
      <path id="Path_1503" data-name="Path 1503" d="M297.576,120.31c-.863,1.849-2.342,2.959-3.329,2.589-1.11-.37-1.233-2.219-.493-4.069.863-1.849,2.342-2.959,3.329-2.589C298.192,116.734,298.315,118.46,297.576,120.31Z" transform="translate(-264.261 -102.432)" fill="#ffd05b"/>
      <path id="Path_1504" data-name="Path 1504" d="M199.635,120.31c.863,1.849,2.343,2.959,3.329,2.589,1.11-.37,1.233-2.219.493-4.069-.863-1.849-2.343-2.959-3.329-2.589C199.019,116.734,198.772,118.46,199.635,120.31Z" transform="translate(-199.116 -102.432)" fill="#ffd05b"/>
    </g>
    <path id="Path_1505" data-name="Path 1505" d="M217.241,56.9c3.945-2.219,13.192-5.3,13.069,14.425,0,0,8.754-22.562-4.685-22.932,0,0-9.493-9.617-21.7,4.438l1.973-.986s-9.863,5.795-1.48,19.48c0,0-1.479-19.727,9.493-14.3A3.937,3.937,0,0,0,217.241,56.9Z" transform="translate(-134.803 -29.195)" fill="#07487c"/>
    <path id="Path_1506" data-name="Path 1506" d="M200.764,320.4l-4.192,47.59a78.355,78.355,0,0,1-38.59,10.233,77.069,77.069,0,0,1-38.59-10.233L115.2,320.4Z" transform="translate(-75.421 -219.582)" fill="#ffb300"/>
    <g id="Group_1572" data-name="Group 1572" transform="translate(33.122 100.572)">
      <path id="Path_1507" data-name="Path 1507" d="M200.394,325.208l.37-4.808H115.2l.37,4.808Z" transform="translate(-108.542 -320.153)" fill="#f9b54c"/>
      <path id="Path_1508" data-name="Path 1508" d="M100.258,319.6l-6.658.74,7.891,14.055Z" transform="translate(-93.6 -319.6)" fill="#f9b54c"/>
    </g>
    <path id="Path_1509" data-name="Path 1509" d="M128,254.929s-.247-21.083,13.439-21.329" transform="translate(-84.275 -159.536)" fill="none" stroke="#fff" stroke-miterlimit="10" stroke-width="1.01"/>
    <rect id="Rectangle_171" data-name="Rectangle 171" width="98.756" height="9" transform="translate(33.122 92.311)" fill="#ffc949"/>
    <ellipse id="Ellipse_43" data-name="Ellipse 43" cx="3.329" cy="2.466" rx="3.329" ry="2.466" transform="translate(53.958 71.352)" fill="#ff7058"/>
  </g>
</svg>
