<svg xmlns="http://www.w3.org/2000/svg" width="44.23" height="44.23" viewBox="0 0 44.23 44.23">
  <g id="_5" data-name="5" transform="translate(0.4 0.4)">
    <path id="Path_1486" data-name="Path 1486" d="M26.239,44.763H4.524A4.529,4.529,0,0,1,0,40.239V18.524A4.529,4.529,0,0,1,4.524,14H26.239a4.529,4.529,0,0,1,4.524,4.524V40.239a4.529,4.529,0,0,1-4.524,4.524ZM4.524,15.81A2.714,2.714,0,0,0,1.81,18.524V40.239a2.714,2.714,0,0,0,2.714,2.714H26.239a2.714,2.714,0,0,0,2.714-2.714V18.524a2.714,2.714,0,0,0-2.714-2.714Z" transform="translate(0 -1.333)" fill="#fff" stroke="#fff" stroke-width="0.8"/>
    <path id="Path_1487" data-name="Path 1487" d="M33.239,37.763H30.525a.9.9,0,0,1,0-1.81h2.714a2.714,2.714,0,0,0,2.714-2.714V11.524A2.714,2.714,0,0,0,33.239,8.81H11.524A2.714,2.714,0,0,0,8.81,11.524v2.714a.9.9,0,0,1-1.81,0V11.524A4.529,4.529,0,0,1,11.524,7H33.239a4.529,4.529,0,0,1,4.524,4.524V33.239A4.529,4.529,0,0,1,33.239,37.763Z" transform="translate(-0.666 -0.666)" fill="#fff" stroke="#fff" stroke-width="0.8"/>
    <path id="Path_1488" data-name="Path 1488" d="M40.239,30.763H37.525a.9.9,0,0,1,0-1.81h2.714a2.714,2.714,0,0,0,2.714-2.714V4.524A2.714,2.714,0,0,0,40.239,1.81H18.524A2.714,2.714,0,0,0,15.81,4.524V7.238a.9.9,0,1,1-1.81,0V4.524A4.529,4.529,0,0,1,18.524,0H40.239a4.529,4.529,0,0,1,4.524,4.524V26.239a4.529,4.529,0,0,1-4.524,4.524Z" transform="translate(-1.333)" fill="#fff" stroke="#fff" stroke-width="0.8"/>
  </g>
</svg>
