<svg xmlns="http://www.w3.org/2000/svg" width="18" height="18.038" viewBox="0 0 18 18.038">
  <g id="_7" data-name="7" transform="translate(0 0)">
    <g id="Group_497" data-name="Group 497" transform="translate(0 0)">
      <path id="Path_1445" data-name="Path 1445" d="M18.067,13.238,15.55,10.721a1.674,1.674,0,0,0-2.787.629,1.713,1.713,0,0,1-1.978,1.079A7.762,7.762,0,0,1,6.11,7.754,1.629,1.629,0,0,1,7.189,5.776a1.674,1.674,0,0,0,.629-2.787L5.3.472a1.8,1.8,0,0,0-2.427,0L1.166,2.18c-1.708,1.8.18,6.563,4.405,10.788s8.99,6.2,10.788,4.405l1.708-1.708A1.8,1.8,0,0,0,18.067,13.238Z" transform="translate(-0.539 0)" fill="#fff"/>
    </g>
  </g>
</svg>
