<svg xmlns="http://www.w3.org/2000/svg" width="18" height="13.933" viewBox="0 0 18 13.933">
  <path id="_8" data-name="8" d="M27.325,78.679l5.41,5.412a3.045,3.045,0,0,0,4.289,0l5.41-5.412a.123.123,0,0,0-.017-.188,3.394,3.394,0,0,0-1.946-.613H29.288a3.394,3.394,0,0,0-1.946.613.123.123,0,0,0-.017.188Zm-1.446,2.607a3.382,3.382,0,0,1,.389-1.578.123.123,0,0,1,.2-.03l5.341,5.341a4.352,4.352,0,0,0,6.146,0l5.341-5.341a.123.123,0,0,1,.2.03,3.383,3.383,0,0,1,.389,1.578V88.4a3.412,3.412,0,0,1-3.409,3.409H29.288A3.412,3.412,0,0,1,25.879,88.4Z" transform="translate(-25.879 -77.878)" fill="#fff" fill-rule="evenodd"/>
</svg>
