<svg xmlns="http://www.w3.org/2000/svg" width="20.437" height="40.458" viewBox="0 0 20.437 40.458">
  <path id="facebook_1_" data-name="facebook (1)" d="M127.335,21.548h4.435V39.805a.652.652,0,0,0,.653.653h7.519a.652.652,0,0,0,.653-.653V21.634h5.1a.653.653,0,0,0,.648-.578l.774-6.721a.652.652,0,0,0-.648-.727h-5.872V9.394c0-1.27.684-1.914,2.033-1.914h3.84a.653.653,0,0,0,.653-.653V.657A.652.652,0,0,0,146.467,0h-5.291c-.037,0-.12,0-.242,0a10.14,10.14,0,0,0-6.63,2.5A6.953,6.953,0,0,0,131.99,8.68v4.927h-4.656a.652.652,0,0,0-.653.653V20.9A.653.653,0,0,0,127.335,21.548Z" transform="translate(-126.682)" fill="#fff"/>
</svg>
