<svg xmlns="http://www.w3.org/2000/svg" xmlns:xlink="http://www.w3.org/1999/xlink" width="1018.124" height="301" viewBox="0 0 1018.124 301">
  <defs>
    <clipPath id="clip-path">
      <rect id="Rectangle_66" data-name="Rectangle 66" width="1007" height="301" transform="translate(-0.499 -0.495)" fill="none"/>
    </clipPath>
    <linearGradient id="linear-gradient" y1="0.5" x2="1" y2="0.5" gradientUnits="objectBoundingBox">
      <stop offset="0" stop-color="#07487c"/>
      <stop offset="0.502" stop-color="#3ca7c3"/>
      <stop offset="1" stop-color="#ebfbff"/>
    </linearGradient>
  </defs>
  <g id="Group_543" data-name="Group 543" transform="translate(11.622 0.495)">
    <g id="Group_542" data-name="Group 542" transform="translate(0 0)" clip-path="url(#clip-path)">
      <g id="Group_541" data-name="Group 541" transform="translate(-27.238 90.26)">
        <g id="Group_537" data-name="Group 537">
          <path id="Path_1464" data-name="Path 1464" d="M778.17,205.856c-69.819,0-104.214-29.457-137.473-57.945-16.1-13.788-31.754-27.2-51.136-37.321-19.134-10-42.08-16.626-72.674-16.626-60.82,0-91.415,26.2-123.8,53.947-33.26,28.487-67.65,57.944-137.467,57.944s-104.2-29.457-137.463-57.945C85.764,120.169,55.169,93.965-5.649,93.965c-4.412,0-7.989-1.859-7.989-4.152s3.577-4.152,7.989-4.152c69.813,0,104.2,29.456,137.461,57.944,32.389,27.742,62.983,53.947,123.8,53.947s91.415-26.2,123.806-53.947c33.258-28.488,67.65-57.944,137.465-57.944S621.1,115.117,654.358,143.6c32.393,27.742,62.989,53.947,123.812,53.947s91.421-26.2,123.81-53.947c33.262-28.488,67.654-57.944,137.471-57.944,4.412,0,7.989,1.859,7.989,4.152s-3.577,4.152-7.989,4.152c-60.824,0-91.419,26.2-123.81,53.947C882.381,176.4,847.987,205.856,778.17,205.856Z" transform="translate(13.638 -85.661)" fill="url(#linear-gradient)"/>
        </g>
      </g>
    </g>
    <path id="Path_1466" data-name="Path 1466" d="M15.856,7.11c-5.6-4.51-6.889-2.238-.916-3.81,2.217-.583,2.944-3.149.349-3.284-3.27-.17-9.94,1.048-13.035,1.69C1.02,1.962-.824,3.634.405,4.906,8.594,13.386,9.2,15.028,11.1,13.918c1.639-.961.635-2.058-1.484-5.119C11.688,10.04,20.895,11.169,15.856,7.11Z" transform="matrix(0.848, -0.53, 0.53, 0.848, -11.622, 96.89)" fill="#07487c"/>
  </g>
</svg>
