<svg id="search_2_" data-name="search (2)" xmlns="http://www.w3.org/2000/svg" width="33.022" height="33.022" viewBox="0 0 33.022 33.022">
  <path id="Path_61" data-name="Path 61" d="M7.318,149.306,6.169,153.6l-4.2.089a16.54,16.54,0,0,1-.122-15.418h0l3.74.686,1.638,3.718a9.854,9.854,0,0,0,.093,6.634Z" transform="translate(0 -129.35)" fill="#fff"/>
  <path id="Path_62" data-name="Path 62" d="M277.488,208.176a16.506,16.506,0,0,1-5.886,15.961h0l-4.711-.24-.667-4.162a9.84,9.84,0,0,0,4.234-5.025h-8.829v-6.532h15.86Z" transform="translate(-244.754 -194.749)" fill="#fff"/>
  <path id="Path_63" data-name="Path 63" d="M55.388,318.839h0a16.516,16.516,0,0,1-24.88-5.051l5.351-4.38a9.82,9.82,0,0,0,14.15,5.028Z" transform="translate(-28.541 -289.453)" fill="#fff"/>
  <path id="Path_64" data-name="Path 64" d="M53.828,3.8,48.479,8.18A9.818,9.818,0,0,0,34,13.321l-5.379-4.4h0A16.514,16.514,0,0,1,53.828,3.8Z" transform="translate(-26.778 0)" fill="#fff"/>
</svg>
