<svg xmlns="http://www.w3.org/2000/svg" width="38.065" height="30.928" viewBox="0 0 38.065 30.928">
  <path id="twitter_1_" data-name="twitter (1)" d="M38.065,51.661a16.27,16.27,0,0,1-4.5,1.232A7.76,7.76,0,0,0,37,48.58a15.6,15.6,0,0,1-4.948,1.889,7.8,7.8,0,0,0-13.5,5.336,8.035,8.035,0,0,0,.181,1.78A22.088,22.088,0,0,1,2.65,49.423a7.806,7.806,0,0,0,2.4,10.43,7.707,7.707,0,0,1-3.526-.961v.086a7.84,7.84,0,0,0,6.252,7.668,7.788,7.788,0,0,1-2.046.257,6.9,6.9,0,0,1-1.477-.133A7.878,7.878,0,0,0,11.543,72.2a15.68,15.68,0,0,1-9.676,3.328A14.622,14.622,0,0,1,0,75.426a21.969,21.969,0,0,0,11.971,3.5c14.36,0,22.211-11.9,22.211-22.206,0-.345-.012-.678-.029-1.009A15.568,15.568,0,0,0,38.065,51.661Z" transform="translate(0 -48)" fill="#fff"/>
</svg>
